<svg width="250" height="89" viewBox="0 0 250 89" fill="none" xmlns="http://www.w3.org/2000/svg">
<path opacity="0.6" d="M0.908176 1.07531H5.12015V2.05221H3.59343V7.25091H5.12015V8.2229H0.908176V7.25091H2.40053V2.05221H0.908176V1.07531ZM11.4238 8.2229V2.9113H12.4841L12.5578 3.66729C12.6298 3.56584 12.7083 3.47257 12.7934 3.38748C12.8818 3.29911 12.975 3.22057 13.0732 3.15184C13.2303 3.04384 13.4021 2.96039 13.5887 2.90148C13.7752 2.84257 13.9716 2.81312 14.1778 2.81312C14.4494 2.81312 14.6981 2.85239 14.9239 2.93093C15.1497 3.00948 15.3428 3.13384 15.5032 3.30402C15.6636 3.4742 15.7879 3.69184 15.8763 3.95693C15.9647 4.21874 16.0088 4.5362 16.0088 4.90929V8.2229H14.8356V4.92892C14.8356 4.70965 14.811 4.52638 14.7619 4.37911C14.7128 4.23184 14.6408 4.11402 14.5459 4.02565C14.451 3.93729 14.3365 3.87511 14.2023 3.83911C14.0681 3.79984 13.9143 3.7802 13.7408 3.7802C13.5968 3.7802 13.4627 3.79984 13.3383 3.83911C13.2139 3.87511 13.101 3.92747 12.9996 3.9962C12.921 4.04856 12.8474 4.11238 12.7787 4.18765C12.7099 4.26293 12.6494 4.34474 12.597 4.43311V8.2229H11.4238ZM22.3566 2.9113H25.1744V7.25091H26.7355V8.2229H22.3566V7.25091H23.9914V3.8882H22.3566V2.9113ZM23.8834 1.53676C23.8834 1.44185 23.8997 1.35513 23.9324 1.27658C23.9652 1.19476 24.0126 1.1244 24.0748 1.06549C24.1337 1.00986 24.2041 0.967311 24.2859 0.937857C24.371 0.90513 24.4659 0.888766 24.5706 0.888766C24.7474 0.888766 24.8897 0.934584 24.9977 1.02622C25.109 1.11458 25.1728 1.22913 25.1892 1.36985C25.2121 1.51385 25.1875 1.63985 25.1155 1.74785C25.0435 1.85258 24.9388 1.92294 24.8014 1.95894C24.7326 2.02112 24.6508 2.06203 24.5559 2.08167C24.461 2.1013 24.3563 2.09312 24.2417 2.05712C24.1239 2.02112 24.0339 1.9573 23.9717 1.86567C23.9128 1.77076 23.8834 1.66112 23.8834 1.53676ZM35.1059 1.61531V2.9113H37.1038V3.79002H35.1059V6.328C35.1059 6.52437 35.1288 6.68964 35.1746 6.82382C35.2237 6.95473 35.2908 7.05782 35.3759 7.13309C35.4609 7.21163 35.5624 7.26727 35.6802 7.3C35.798 7.33272 35.9273 7.34909 36.068 7.34909C36.1695 7.34909 36.2742 7.34418 36.3822 7.33436C36.4902 7.32454 36.5949 7.31145 36.6964 7.29509C36.7946 7.282 36.8862 7.26727 36.9713 7.25091C37.0597 7.23127 37.1333 7.21491 37.1922 7.20182L37.3198 8.01181C37.2348 8.06417 37.1317 8.10999 37.0106 8.14926C36.8928 8.18526 36.7651 8.21635 36.6277 8.24254C36.4902 8.26872 36.3462 8.28835 36.1957 8.30145C36.0484 8.31781 35.9011 8.32599 35.7539 8.32599C35.4855 8.32599 35.2384 8.28999 35.0126 8.21799C34.79 8.14272 34.5986 8.02654 34.4382 7.86945C34.2779 7.71563 34.1519 7.51763 34.0602 7.27545C33.9719 7.03327 33.9277 6.742 33.9277 6.40164V3.79002H32.6415V2.9113H33.9277V1.61531H35.1059ZM43.6824 2.9113H46.5002V7.25091H48.0613V8.2229H43.6824V7.25091H45.3171V3.8882H43.6824V2.9113ZM45.2091 1.53676C45.2091 1.44185 45.2255 1.35513 45.2582 1.27658C45.2909 1.19476 45.3384 1.1244 45.4005 1.06549C45.4595 1.00986 45.5298 0.967311 45.6116 0.937857C45.6967 0.90513 45.7916 0.888766 45.8964 0.888766C46.0731 0.888766 46.2155 0.934584 46.3235 1.02622C46.4347 1.11458 46.4985 1.22913 46.5149 1.36985C46.5378 1.51385 46.5133 1.63985 46.4413 1.74785C46.3693 1.85258 46.2645 1.92294 46.1271 1.95894C46.0584 2.02112 45.9765 2.06203 45.8816 2.08167C45.7867 2.1013 45.682 2.09312 45.5675 2.05712C45.4496 2.02112 45.3596 1.9573 45.2975 1.86567C45.2385 1.77076 45.2091 1.66112 45.2091 1.53676ZM54.3011 0.682586H57.163V7.25091H58.7732V8.2229H54.3011V7.25091H55.98V1.65949H54.3011V0.682586ZM65.0081 2.9113H67.8259V7.25091H69.387V8.2229H65.0081V7.25091H66.6428V3.8882H65.0081V2.9113ZM66.5348 1.53676C66.5348 1.44185 66.5512 1.35513 66.5839 1.27658C66.6167 1.19476 66.6641 1.1244 66.7263 1.06549C66.7852 1.00986 66.8556 0.967311 66.9374 0.937857C67.0225 0.90513 67.1174 0.888766 67.2221 0.888766C67.3988 0.888766 67.5412 0.934584 67.6492 1.02622C67.7605 1.11458 67.8243 1.22913 67.8406 1.36985C67.8636 1.51385 67.839 1.63985 67.767 1.74785C67.695 1.85258 67.5903 1.92294 67.4528 1.95894C67.3841 2.02112 67.3023 2.06203 67.2074 2.08167C67.1125 2.1013 67.0077 2.09312 66.8932 2.05712C66.7754 2.02112 66.6854 1.9573 66.6232 1.86567C66.5643 1.77076 66.5348 1.66112 66.5348 1.53676ZM78.7931 8.2229C78.7571 8.15745 78.7277 8.0789 78.7048 7.98727C78.6851 7.89236 78.6671 7.79418 78.6508 7.69272C78.569 7.77781 78.4757 7.85963 78.371 7.93817C78.2695 8.01345 78.155 8.0789 78.0273 8.13454C77.8997 8.19345 77.7622 8.23926 77.615 8.27199C77.4677 8.30472 77.309 8.32108 77.1388 8.32108C76.8639 8.32108 76.6119 8.28181 76.3828 8.20326C76.157 8.12145 75.9639 8.01017 75.8035 7.86945C75.6399 7.73199 75.5123 7.56672 75.4206 7.37363C75.3323 7.17727 75.2881 6.96618 75.2881 6.74036C75.2881 6.44909 75.3454 6.19219 75.4599 5.96964C75.5777 5.74383 75.7479 5.55728 75.9704 5.41001C76.1766 5.27256 76.4303 5.16783 76.7313 5.09583C77.0357 5.02383 77.3793 4.98783 77.7622 4.98783H78.6164V4.62947C78.6164 4.49202 78.5919 4.36765 78.5428 4.25638C78.497 4.14511 78.4299 4.04856 78.3415 3.96675C78.2466 3.88493 78.1304 3.82275 77.993 3.7802C77.8588 3.73438 77.7033 3.71148 77.5266 3.71148C77.3662 3.71148 77.2255 3.73111 77.1044 3.77038C76.9866 3.80966 76.8884 3.86366 76.8099 3.93238C76.7313 3.99456 76.6724 4.07147 76.6332 4.16311C76.5972 4.25147 76.5792 4.34638 76.5792 4.44783H75.401C75.4043 4.23511 75.455 4.03056 75.5532 3.8342C75.6513 3.63784 75.7953 3.46439 75.9852 3.31384C76.1684 3.16002 76.3943 3.03893 76.6626 2.95057C76.9343 2.85894 77.2435 2.81312 77.5904 2.81312C77.9013 2.81312 78.191 2.85239 78.4593 2.93093C78.731 3.00621 78.965 3.11912 79.1613 3.26966C79.3577 3.4202 79.5115 3.61166 79.6228 3.84402C79.7341 4.07311 79.7897 4.3382 79.7897 4.63929V7.00054C79.7897 7.23945 79.806 7.45545 79.8388 7.64854C79.8748 7.83836 79.9255 8.00199 79.991 8.13945V8.2229H78.7931ZM77.3646 7.37854C77.5184 7.37854 77.6608 7.35891 77.7917 7.31963C77.9259 7.28036 78.047 7.22963 78.155 7.16745C78.263 7.10527 78.3562 7.03491 78.4348 6.95636C78.5133 6.87782 78.5739 6.796 78.6164 6.71091V5.7291H77.8604C77.6052 5.7291 77.3842 5.75364 77.1977 5.80273C77.0112 5.84855 76.8623 5.91564 76.751 6.00401C76.6528 6.07928 76.5792 6.16928 76.5301 6.274C76.4843 6.37873 76.4613 6.49655 76.4613 6.62746C76.4613 6.73546 76.481 6.83691 76.5203 6.93182C76.5595 7.02345 76.6168 7.102 76.6921 7.16745C76.7673 7.23291 76.8606 7.28527 76.9719 7.32454C77.0832 7.36054 77.2141 7.37854 77.3646 7.37854ZM87.5366 7.27545H90.7716V8.2229H85.9706V7.45218L89.024 3.86857H86.0295V2.9113H90.6244V3.65748L87.5366 7.27545ZM96.9967 2.9113H99.8145V7.25091H101.376V8.2229H96.9967V7.25091H98.6314V3.8882H96.9967V2.9113ZM98.5234 1.53676C98.5234 1.44185 98.5398 1.35513 98.5725 1.27658C98.6053 1.19476 98.6527 1.1244 98.7149 1.06549C98.7738 1.00986 98.8442 0.967311 98.926 0.937857C99.0111 0.90513 99.106 0.888766 99.2107 0.888766C99.3874 0.888766 99.5298 0.934584 99.6378 1.02622C99.7491 1.11458 99.8129 1.22913 99.8292 1.36985C99.8522 1.51385 99.8276 1.63985 99.7556 1.74785C99.6836 1.85258 99.5789 1.92294 99.4414 1.95894C99.3727 2.02112 99.2909 2.06203 99.196 2.08167C99.1011 2.1013 98.9963 2.09312 98.8818 2.05712C98.764 2.02112 98.674 1.9573 98.6118 1.86567C98.5529 1.77076 98.5234 1.66112 98.5234 1.53676ZM107.39 8.2229V2.9113H108.45L108.524 3.66729C108.596 3.56584 108.674 3.47257 108.759 3.38748C108.848 3.29911 108.941 3.22057 109.039 3.15184C109.196 3.04384 109.368 2.96039 109.554 2.90148C109.741 2.84257 109.937 2.81312 110.144 2.81312C110.415 2.81312 110.664 2.85239 110.89 2.93093C111.116 3.00948 111.309 3.13384 111.469 3.30402C111.629 3.4742 111.754 3.69184 111.842 3.95693C111.93 4.21874 111.975 4.5362 111.975 4.90929V8.2229H110.801V4.92892C110.801 4.70965 110.777 4.52638 110.728 4.37911C110.679 4.23184 110.607 4.11402 110.512 4.02565C110.417 3.93729 110.302 3.87511 110.168 3.83911C110.034 3.79984 109.88 3.7802 109.707 3.7802C109.563 3.7802 109.428 3.79984 109.304 3.83911C109.18 3.87511 109.067 3.92747 108.965 3.9962C108.887 4.04856 108.813 4.11238 108.744 4.18765C108.676 4.26293 108.615 4.34474 108.563 4.43311V8.2229H107.39ZM117.9 5.52783C117.9 5.12528 117.949 4.75874 118.048 4.4282C118.146 4.09438 118.288 3.80802 118.475 3.56911C118.661 3.3302 118.885 3.1453 119.147 3.01439C119.412 2.88021 119.71 2.81312 120.041 2.81312C120.237 2.81312 120.415 2.83439 120.576 2.87694C120.736 2.91621 120.882 2.97512 121.013 3.05366C121.098 3.10275 121.178 3.16166 121.253 3.23039C121.328 3.29584 121.399 3.36784 121.464 3.44639L121.513 2.9113H122.579V8.07563C122.579 8.43235 122.52 8.74817 122.402 9.02308C122.287 9.30126 122.125 9.53689 121.916 9.72998C121.703 9.9198 121.448 10.0638 121.15 10.162C120.856 10.2634 120.53 10.3142 120.173 10.3142C120.023 10.3142 119.857 10.2978 119.677 10.2651C119.497 10.2323 119.317 10.1816 119.137 10.1129C118.957 10.0442 118.786 9.95416 118.622 9.84289C118.458 9.73162 118.318 9.59744 118.2 9.44035L118.754 8.72853C118.849 8.84308 118.951 8.94126 119.059 9.02308C119.17 9.10817 119.283 9.17689 119.398 9.22926C119.512 9.28162 119.628 9.31926 119.746 9.34217C119.864 9.36835 119.983 9.38144 120.104 9.38144C120.314 9.38144 120.499 9.35198 120.659 9.29308C120.823 9.23417 120.962 9.14908 121.076 9.0378C121.181 8.9298 121.261 8.79726 121.317 8.64017C121.376 8.48308 121.405 8.30472 121.405 8.10508V7.7369C121.337 7.8089 121.265 7.87599 121.189 7.93817C121.117 8.00036 121.039 8.05436 120.954 8.10017C120.826 8.17217 120.685 8.22617 120.532 8.26217C120.378 8.30145 120.211 8.32108 120.031 8.32108C119.704 8.32108 119.409 8.25399 119.147 8.11981C118.885 7.98236 118.661 7.79254 118.475 7.55036C118.291 7.31145 118.149 7.02836 118.048 6.70109C117.949 6.37055 117.9 6.01382 117.9 5.63092V5.52783ZM119.078 5.63092C119.078 5.86655 119.101 6.0891 119.147 6.29855C119.196 6.508 119.273 6.68964 119.378 6.84345C119.479 7.00382 119.609 7.12982 119.766 7.22145C119.923 7.30982 120.109 7.354 120.325 7.354C120.46 7.354 120.581 7.33927 120.689 7.30982C120.8 7.28036 120.9 7.23945 120.988 7.18709C121.076 7.13145 121.155 7.06436 121.224 6.98582C121.292 6.90727 121.353 6.82055 121.405 6.72564V4.39874C121.353 4.30056 121.289 4.2122 121.214 4.13365C121.142 4.05511 121.058 3.98802 120.964 3.93238C120.878 3.88656 120.784 3.85057 120.679 3.82438C120.574 3.79493 120.46 3.7802 120.335 3.7802C120.116 3.7802 119.928 3.82602 119.771 3.91766C119.614 4.00929 119.484 4.13529 119.383 4.29565C119.278 4.45602 119.201 4.64256 119.152 4.85529C119.103 5.06474 119.078 5.28892 119.078 5.52783V5.63092ZM130.178 7.516C130.178 7.29018 130.25 7.09709 130.394 6.93673C130.542 6.77636 130.753 6.69618 131.028 6.69618C131.296 6.69618 131.505 6.77636 131.656 6.93673C131.806 7.09382 131.882 7.28691 131.882 7.516C131.882 7.74509 131.805 7.93654 131.651 8.09036C131.5 8.24417 131.293 8.32108 131.028 8.32108C130.759 8.32108 130.55 8.24417 130.399 8.09036C130.252 7.93327 130.178 7.74181 130.178 7.516ZM140.841 7.516C140.841 7.29018 140.913 7.09709 141.057 6.93673C141.204 6.77636 141.415 6.69618 141.69 6.69618C141.959 6.69618 142.168 6.77636 142.319 6.93673C142.469 7.09382 142.545 7.28691 142.545 7.516C142.545 7.74509 142.468 7.93654 142.314 8.09036C142.163 8.24417 141.955 8.32108 141.69 8.32108C141.422 8.32108 141.213 8.24417 141.062 8.09036C140.915 7.93327 140.841 7.74181 140.841 7.516ZM151.504 7.516C151.504 7.29018 151.576 7.09709 151.72 6.93673C151.867 6.77636 152.078 6.69618 152.353 6.69618C152.622 6.69618 152.831 6.77636 152.982 6.93673C153.132 7.09382 153.207 7.28691 153.207 7.516C153.207 7.74509 153.131 7.93654 152.977 8.09036C152.826 8.24417 152.618 8.32108 152.353 8.32108C152.085 8.32108 151.875 8.24417 151.725 8.09036C151.578 7.93327 151.504 7.74181 151.504 7.516ZM162.167 7.516C162.167 7.29018 162.239 7.09709 162.383 6.93673C162.53 6.77636 162.741 6.69618 163.016 6.69618C163.284 6.69618 163.494 6.77636 163.644 6.93673C163.795 7.09382 163.87 7.28691 163.87 7.516C163.87 7.74509 163.793 7.93654 163.64 8.09036C163.489 8.24417 163.281 8.32108 163.016 8.32108C162.748 8.32108 162.538 8.24417 162.388 8.09036C162.24 7.93327 162.167 7.74181 162.167 7.516ZM3.93707 34.2229H2.75398V28.5284L0.922903 29.2009V28.1651L3.86343 27.0753H3.93707V34.2229ZM16.0088 31.4984C16.0088 31.9566 15.9548 32.3624 15.8468 32.7158C15.7421 33.066 15.5899 33.3589 15.3903 33.5945C15.1939 33.8367 14.9517 34.02 14.6638 34.1444C14.379 34.2654 14.055 34.326 13.6918 34.326C13.3318 34.326 13.0078 34.2654 12.7198 34.1444C12.4318 34.02 12.1879 33.8367 11.9883 33.5945C11.7854 33.3589 11.63 33.066 11.522 32.7158C11.4172 32.3624 11.3649 31.9566 11.3649 31.4984V29.8047C11.3649 29.3466 11.4172 28.9424 11.522 28.5922C11.63 28.2388 11.7838 27.9409 11.9834 27.6988C12.183 27.4599 12.4252 27.2799 12.7099 27.1588C12.9979 27.0344 13.3219 26.9722 13.6819 26.9722C14.0452 26.9722 14.3692 27.0344 14.6539 27.1588C14.9419 27.2799 15.1874 27.4599 15.3903 27.6988C15.5867 27.9409 15.7388 28.2388 15.8468 28.5922C15.9548 28.9424 16.0088 29.3466 16.0088 29.8047V31.4984ZM12.543 31.0811L14.8159 29.358C14.8028 29.1028 14.7668 28.8818 14.7079 28.6953C14.6523 28.5088 14.5721 28.3566 14.4674 28.2388C14.3758 28.134 14.2628 28.0555 14.1287 28.0031C13.9978 27.9508 13.8488 27.9246 13.6819 27.9246C13.5019 27.9246 13.3432 27.9557 13.2058 28.0178C13.0683 28.08 12.9538 28.1717 12.8621 28.2928C12.7541 28.4302 12.6739 28.6086 12.6216 28.8278C12.5692 29.0438 12.543 29.2991 12.543 29.5937V30.5558C12.543 30.6802 12.543 30.7751 12.543 30.8406C12.543 30.906 12.543 30.9862 12.543 31.0811ZM14.8258 31.6947V30.7915C14.8258 30.7097 14.8258 30.6246 14.8258 30.5362C14.8258 30.4478 14.8258 30.3562 14.8258 30.2613L12.5529 31.9746C12.5692 32.2004 12.6036 32.4 12.6559 32.5735C12.7116 32.7469 12.7852 32.8909 12.8769 33.0055C12.9685 33.1298 13.0814 33.2231 13.2156 33.2853C13.353 33.3475 13.5118 33.3785 13.6918 33.3785C13.8685 33.3785 14.0239 33.3491 14.1581 33.2902C14.2923 33.228 14.4068 33.138 14.5018 33.0202C14.6098 32.8827 14.6899 32.7027 14.7423 32.4802C14.7979 32.2576 14.8258 31.9958 14.8258 31.6947ZM25.2628 34.2229H24.0797V28.5284L22.2486 29.2009V28.1651L25.1892 27.0753H25.2628V34.2229ZM37.3346 31.4984C37.3346 31.9566 37.2806 32.3624 37.1726 32.7158C37.0678 33.066 36.9157 33.3589 36.716 33.5945C36.5197 33.8367 36.2775 34.02 35.9895 34.1444C35.7048 34.2654 35.3808 34.326 35.0175 34.326C34.6575 34.326 34.3335 34.2654 34.0455 34.1444C33.7575 34.02 33.5137 33.8367 33.3141 33.5945C33.1111 33.3589 32.9557 33.066 32.8477 32.7158C32.743 32.3624 32.6906 31.9566 32.6906 31.4984V29.8047C32.6906 29.3466 32.743 28.9424 32.8477 28.5922C32.9557 28.2388 33.1095 27.9409 33.3091 27.6988C33.5088 27.4599 33.751 27.2799 34.0357 27.1588C34.3237 27.0344 34.6477 26.9722 35.0077 26.9722C35.3709 26.9722 35.6949 27.0344 35.9797 27.1588C36.2677 27.2799 36.5131 27.4599 36.716 27.6988C36.9124 27.9409 37.0646 28.2388 37.1726 28.5922C37.2806 28.9424 37.3346 29.3466 37.3346 29.8047V31.4984ZM33.8688 31.0811L36.1417 29.358C36.1286 29.1028 36.0926 28.8818 36.0337 28.6953C35.978 28.5088 35.8979 28.3566 35.7931 28.2388C35.7015 28.134 35.5886 28.0555 35.4544 28.0031C35.3235 27.9508 35.1746 27.9246 35.0077 27.9246C34.8277 27.9246 34.669 27.9557 34.5315 28.0178C34.394 28.08 34.2795 28.1717 34.1879 28.2928C34.0799 28.4302 33.9997 28.6086 33.9473 28.8278C33.895 29.0438 33.8688 29.2991 33.8688 29.5937V30.5558C33.8688 30.6802 33.8688 30.7751 33.8688 30.8406C33.8688 30.906 33.8688 30.9862 33.8688 31.0811ZM36.1515 31.6947V30.7915C36.1515 30.7097 36.1515 30.6246 36.1515 30.5362C36.1515 30.4478 36.1515 30.3562 36.1515 30.2613L33.8786 31.9746C33.895 32.2004 33.9293 32.4 33.9817 32.5735C34.0373 32.7469 34.111 32.8909 34.2026 33.0055C34.2942 33.1298 34.4071 33.2231 34.5413 33.2853C34.6788 33.3475 34.8375 33.3785 35.0175 33.3785C35.1942 33.3785 35.3497 33.3491 35.4839 33.2902C35.618 33.228 35.7326 33.138 35.8275 33.0202C35.9355 32.8827 36.0157 32.7027 36.068 32.4802C36.1237 32.2576 36.1515 31.9958 36.1515 31.6947ZM46.5885 34.2229H45.4055V28.5284L43.5744 29.2009V28.1651L46.5149 27.0753H46.5885V34.2229ZM58.6603 31.4984C58.6603 31.9566 58.6063 32.3624 58.4983 32.7158C58.3936 33.066 58.2414 33.3589 58.0418 33.5945C57.8454 33.8367 57.6032 34.02 57.3152 34.1444C57.0305 34.2654 56.7065 34.326 56.3432 34.326C55.9832 34.326 55.6592 34.2654 55.3712 34.1444C55.0832 34.02 54.8394 33.8367 54.6398 33.5945C54.4369 33.3589 54.2814 33.066 54.1734 32.7158C54.0687 32.3624 54.0163 31.9566 54.0163 31.4984V29.8047C54.0163 29.3466 54.0687 28.9424 54.1734 28.5922C54.2814 28.2388 54.4352 27.9409 54.6349 27.6988C54.8345 27.4599 55.0767 27.2799 55.3614 27.1588C55.6494 27.0344 55.9734 26.9722 56.3334 26.9722C56.6967 26.9722 57.0207 27.0344 57.3054 27.1588C57.5934 27.2799 57.8389 27.4599 58.0418 27.6988C58.2381 27.9409 58.3903 28.2388 58.4983 28.5922C58.6063 28.9424 58.6603 29.3466 58.6603 29.8047V31.4984ZM55.1945 31.0811L57.4674 29.358C57.4543 29.1028 57.4183 28.8818 57.3594 28.6953C57.3038 28.5088 57.2236 28.3566 57.1189 28.2388C57.0272 28.134 56.9143 28.0555 56.7801 28.0031C56.6492 27.9508 56.5003 27.9246 56.3334 27.9246C56.1534 27.9246 55.9947 27.9557 55.8572 28.0178C55.7198 28.08 55.6052 28.1717 55.5136 28.2928C55.4056 28.4302 55.3254 28.6086 55.2731 28.8278C55.2207 29.0438 55.1945 29.2991 55.1945 29.5937V30.5558C55.1945 30.6802 55.1945 30.7751 55.1945 30.8406C55.1945 30.906 55.1945 30.9862 55.1945 31.0811ZM57.4772 31.6947V30.7915C57.4772 30.7097 57.4772 30.6246 57.4772 30.5362C57.4772 30.4478 57.4772 30.3562 57.4772 30.2613L55.2043 31.9746C55.2207 32.2004 55.2551 32.4 55.3074 32.5735C55.3631 32.7469 55.4367 32.8909 55.5283 33.0055C55.62 33.1298 55.7329 33.2231 55.8671 33.2853C56.0045 33.3475 56.1632 33.3785 56.3432 33.3785C56.52 33.3785 56.6754 33.3491 56.8096 33.2902C56.9438 33.228 57.0583 33.138 57.1532 33.0202C57.2612 32.8827 57.3414 32.7027 57.3938 32.4802C57.4494 32.2576 57.4772 31.9958 57.4772 31.6947ZM69.3232 31.4984C69.3232 31.9566 69.2692 32.3624 69.1612 32.7158C69.0565 33.066 68.9043 33.3589 68.7046 33.5945C68.5083 33.8367 68.2661 34.02 67.9781 34.1444C67.6934 34.2654 67.3694 34.326 67.0061 34.326C66.6461 34.326 66.3221 34.2654 66.0341 34.1444C65.7461 34.02 65.5023 33.8367 65.3027 33.5945C65.0998 33.3589 64.9443 33.066 64.8363 32.7158C64.7316 32.3624 64.6792 31.9566 64.6792 31.4984V29.8047C64.6792 29.3466 64.7316 28.9424 64.8363 28.5922C64.9443 28.2388 65.0981 27.9409 65.2978 27.6988C65.4974 27.4599 65.7396 27.2799 66.0243 27.1588C66.3123 27.0344 66.6363 26.9722 66.9963 26.9722C67.3596 26.9722 67.6836 27.0344 67.9683 27.1588C68.2563 27.2799 68.5017 27.4599 68.7046 27.6988C68.901 27.9409 69.0532 28.2388 69.1612 28.5922C69.2692 28.9424 69.3232 29.3466 69.3232 29.8047V31.4984ZM65.8574 31.0811L68.1303 29.358C68.1172 29.1028 68.0812 28.8818 68.0223 28.6953C67.9666 28.5088 67.8865 28.3566 67.7817 28.2388C67.6901 28.134 67.5772 28.0555 67.443 28.0031C67.3121 27.9508 67.1632 27.9246 66.9963 27.9246C66.8163 27.9246 66.6576 27.9557 66.5201 28.0178C66.3827 28.08 66.2681 28.1717 66.1765 28.2928C66.0685 28.4302 65.9883 28.6086 65.9359 28.8278C65.8836 29.0438 65.8574 29.2991 65.8574 29.5937V30.5558C65.8574 30.6802 65.8574 30.7751 65.8574 30.8406C65.8574 30.906 65.8574 30.9862 65.8574 31.0811ZM68.1401 31.6947V30.7915C68.1401 30.7097 68.1401 30.6246 68.1401 30.5362C68.1401 30.4478 68.1401 30.3562 68.1401 30.2613L65.8672 31.9746C65.8836 32.2004 65.9179 32.4 65.9703 32.5735C66.0259 32.7469 66.0996 32.8909 66.1912 33.0055C66.2828 33.1298 66.3957 33.2231 66.5299 33.2853C66.6674 33.3475 66.8261 33.3785 67.0061 33.3785C67.1828 33.3785 67.3383 33.3491 67.4725 33.2902C67.6066 33.228 67.7212 33.138 67.8161 33.0202C67.9241 32.8827 68.0043 32.7027 68.0566 32.4802C68.1123 32.2576 68.1401 31.9958 68.1401 31.6947ZM79.986 31.4984C79.986 31.9566 79.932 32.3624 79.824 32.7158C79.7193 33.066 79.5671 33.3589 79.3675 33.5945C79.1711 33.8367 78.929 34.02 78.641 34.1444C78.3562 34.2654 78.0322 34.326 77.669 34.326C77.309 34.326 76.985 34.2654 76.697 34.1444C76.409 34.02 76.1652 33.8367 75.9655 33.5945C75.7626 33.3589 75.6072 33.066 75.4992 32.7158C75.3944 32.3624 75.3421 31.9566 75.3421 31.4984V29.8047C75.3421 29.3466 75.3944 28.9424 75.4992 28.5922C75.6072 28.2388 75.761 27.9409 75.9606 27.6988C76.1603 27.4599 76.4024 27.2799 76.6872 27.1588C76.9752 27.0344 77.2992 26.9722 77.6592 26.9722C78.0224 26.9722 78.3464 27.0344 78.6311 27.1588C78.9191 27.2799 79.1646 27.4599 79.3675 27.6988C79.5639 27.9409 79.7161 28.2388 79.824 28.5922C79.932 28.9424 79.986 29.3466 79.986 29.8047V31.4984ZM76.5203 31.0811L78.7931 29.358C78.7801 29.1028 78.7441 28.8818 78.6851 28.6953C78.6295 28.5088 78.5493 28.3566 78.4446 28.2388C78.353 28.134 78.2401 28.0555 78.1059 28.0031C77.975 27.9508 77.8261 27.9246 77.6592 27.9246C77.4792 27.9246 77.3204 27.9557 77.183 28.0178C77.0455 28.08 76.931 28.1717 76.8393 28.2928C76.7313 28.4302 76.6512 28.6086 76.5988 28.8278C76.5464 29.0438 76.5203 29.2991 76.5203 29.5937V30.5558C76.5203 30.6802 76.5203 30.7751 76.5203 30.8406C76.5203 30.906 76.5203 30.9862 76.5203 31.0811ZM78.803 31.6947V30.7915C78.803 30.7097 78.803 30.6246 78.803 30.5362C78.803 30.4478 78.803 30.3562 78.803 30.2613L76.5301 31.9746C76.5464 32.2004 76.5808 32.4 76.6332 32.5735C76.6888 32.7469 76.7624 32.8909 76.8541 33.0055C76.9457 33.1298 77.0586 33.2231 77.1928 33.2853C77.3302 33.3475 77.489 33.3785 77.669 33.3785C77.8457 33.3785 78.0012 33.3491 78.1353 33.2902C78.2695 33.228 78.3841 33.138 78.479 33.0202C78.587 32.8827 78.6671 32.7027 78.7195 32.4802C78.7751 32.2576 78.803 31.9958 78.803 31.6947ZM90.6489 31.4984C90.6489 31.9566 90.5949 32.3624 90.4869 32.7158C90.3822 33.066 90.23 33.3589 90.0304 33.5945C89.834 33.8367 89.5918 34.02 89.3038 34.1444C89.0191 34.2654 88.6951 34.326 88.3318 34.326C87.9718 34.326 87.6478 34.2654 87.3598 34.1444C87.0718 34.02 86.828 33.8367 86.6284 33.5945C86.4255 33.3589 86.27 33.066 86.162 32.7158C86.0573 32.3624 86.0049 31.9566 86.0049 31.4984V29.8047C86.0049 29.3466 86.0573 28.9424 86.162 28.5922C86.27 28.2388 86.4238 27.9409 86.6235 27.6988C86.8231 27.4599 87.0653 27.2799 87.35 27.1588C87.638 27.0344 87.962 26.9722 88.322 26.9722C88.6853 26.9722 89.0093 27.0344 89.294 27.1588C89.582 27.2799 89.8275 27.4599 90.0304 27.6988C90.2267 27.9409 90.3789 28.2388 90.4869 28.5922C90.5949 28.9424 90.6489 29.3466 90.6489 29.8047V31.4984ZM87.1831 31.0811L89.456 29.358C89.4429 29.1028 89.4069 28.8818 89.348 28.6953C89.2924 28.5088 89.2122 28.3566 89.1075 28.2388C89.0158 28.134 88.9029 28.0555 88.7687 28.0031C88.6378 27.9508 88.4889 27.9246 88.322 27.9246C88.142 27.9246 87.9833 27.9557 87.8458 28.0178C87.7084 28.08 87.5938 28.1717 87.5022 28.2928C87.3942 28.4302 87.314 28.6086 87.2617 28.8278C87.2093 29.0438 87.1831 29.2991 87.1831 29.5937V30.5558C87.1831 30.6802 87.1831 30.7751 87.1831 30.8406C87.1831 30.906 87.1831 30.9862 87.1831 31.0811ZM89.4658 31.6947V30.7915C89.4658 30.7097 89.4658 30.6246 89.4658 30.5362C89.4658 30.4478 89.4658 30.3562 89.4658 30.2613L87.1929 31.9746C87.2093 32.2004 87.2437 32.4 87.296 32.5735C87.3517 32.7469 87.4253 32.8909 87.5169 33.0055C87.6086 33.1298 87.7215 33.2231 87.8557 33.2853C87.9931 33.3475 88.1518 33.3785 88.3318 33.3785C88.5086 33.3785 88.664 33.3491 88.7982 33.2902C88.9324 33.228 89.0469 33.138 89.1418 33.0202C89.2498 32.8827 89.33 32.7027 89.3824 32.4802C89.438 32.2576 89.4658 31.9958 89.4658 31.6947ZM99.9029 34.2229H98.7198V28.5284L96.8887 29.2009V28.1651L99.8292 27.0753H99.9029V34.2229ZM111.975 31.4984C111.975 31.9566 111.921 32.3624 111.813 32.7158C111.708 33.066 111.556 33.3589 111.356 33.5945C111.16 33.8367 110.918 34.02 110.63 34.1444C110.345 34.2654 110.021 34.326 109.658 34.326C109.298 34.326 108.974 34.2654 108.686 34.1444C108.398 34.02 108.154 33.8367 107.954 33.5945C107.751 33.3589 107.596 33.066 107.488 32.7158C107.383 32.3624 107.331 31.9566 107.331 31.4984V29.8047C107.331 29.3466 107.383 28.9424 107.488 28.5922C107.596 28.2388 107.75 27.9409 107.949 27.6988C108.149 27.4599 108.391 27.2799 108.676 27.1588C108.964 27.0344 109.288 26.9722 109.648 26.9722C110.011 26.9722 110.335 27.0344 110.62 27.1588C110.908 27.2799 111.153 27.4599 111.356 27.6988C111.552 27.9409 111.705 28.2388 111.813 28.5922C111.921 28.9424 111.975 29.3466 111.975 29.8047V31.4984ZM108.509 31.0811L110.782 29.358C110.769 29.1028 110.733 28.8818 110.674 28.6953C110.618 28.5088 110.538 28.3566 110.433 28.2388C110.342 28.134 110.229 28.0555 110.094 28.0031C109.964 27.9508 109.815 27.9246 109.648 27.9246C109.468 27.9246 109.309 27.9557 109.172 28.0178C109.034 28.08 108.92 28.1717 108.828 28.2928C108.72 28.4302 108.64 28.6086 108.587 28.8278C108.535 29.0438 108.509 29.2991 108.509 29.5937V30.5558C108.509 30.6802 108.509 30.7751 108.509 30.8406C108.509 30.906 108.509 30.9862 108.509 31.0811ZM110.792 31.6947V30.7915C110.792 30.7097 110.792 30.6246 110.792 30.5362C110.792 30.4478 110.792 30.3562 110.792 30.2613L108.519 31.9746C108.535 32.2004 108.569 32.4 108.622 32.5735C108.677 32.7469 108.751 32.8909 108.843 33.0055C108.934 33.1298 109.047 33.2231 109.181 33.2853C109.319 33.3475 109.478 33.3785 109.658 33.3785C109.834 33.3785 109.99 33.3491 110.124 33.2902C110.258 33.228 110.373 33.138 110.468 33.0202C110.576 32.8827 110.656 32.7027 110.708 32.4802C110.764 32.2576 110.792 31.9958 110.792 31.6947ZM121.229 34.2229H120.046V28.5284L118.214 29.2009V28.1651L121.155 27.0753H121.229V34.2229ZM133.3 31.4984C133.3 31.9566 133.246 32.3624 133.138 32.7158C133.034 33.066 132.881 33.3589 132.682 33.5945C132.485 33.8367 132.243 34.02 131.955 34.1444C131.671 34.2654 131.347 34.326 130.983 34.326C130.623 34.326 130.299 34.2654 130.011 34.1444C129.723 34.02 129.48 33.8367 129.28 33.5945C129.077 33.3589 128.922 33.066 128.814 32.7158C128.709 32.3624 128.656 31.9566 128.656 31.4984V29.8047C128.656 29.3466 128.709 28.9424 128.814 28.5922C128.922 28.2388 129.075 27.9409 129.275 27.6988C129.475 27.4599 129.717 27.2799 130.002 27.1588C130.29 27.0344 130.614 26.9722 130.974 26.9722C131.337 26.9722 131.661 27.0344 131.945 27.1588C132.233 27.2799 132.479 27.4599 132.682 27.6988C132.878 27.9409 133.03 28.2388 133.138 28.5922C133.246 28.9424 133.3 29.3466 133.3 29.8047V31.4984ZM129.835 31.0811L132.107 29.358C132.094 29.1028 132.058 28.8818 131.999 28.6953C131.944 28.5088 131.864 28.3566 131.759 28.2388C131.667 28.134 131.554 28.0555 131.42 28.0031C131.289 27.9508 131.14 27.9246 130.974 27.9246C130.794 27.9246 130.635 27.9557 130.497 28.0178C130.36 28.08 130.245 28.1717 130.154 28.2928C130.046 28.4302 129.966 28.6086 129.913 28.8278C129.861 29.0438 129.835 29.2991 129.835 29.5937V30.5558C129.835 30.6802 129.835 30.7751 129.835 30.8406C129.835 30.906 129.835 30.9862 129.835 31.0811ZM132.117 31.6947V30.7915C132.117 30.7097 132.117 30.6246 132.117 30.5362C132.117 30.4478 132.117 30.3562 132.117 30.2613L129.844 31.9746C129.861 32.2004 129.895 32.4 129.948 32.5735C130.003 32.7469 130.077 32.8909 130.168 33.0055C130.26 33.1298 130.373 33.2231 130.507 33.2853C130.645 33.3475 130.803 33.3785 130.983 33.3785C131.16 33.3785 131.315 33.3491 131.45 33.2902C131.584 33.228 131.698 33.138 131.793 33.0202C131.901 32.8827 131.981 32.7027 132.034 32.4802C132.089 32.2576 132.117 31.9958 132.117 31.6947ZM142.554 34.2229H141.371V28.5284L139.54 29.2009V28.1651L142.481 27.0753H142.554V34.2229ZM154.626 31.4984C154.626 31.9566 154.572 32.3624 154.464 32.7158C154.359 33.066 154.207 33.3589 154.008 33.5945C153.811 33.8367 153.569 34.02 153.281 34.1444C152.996 34.2654 152.672 34.326 152.309 34.326C151.949 34.326 151.625 34.2654 151.337 34.1444C151.049 34.02 150.805 33.8367 150.606 33.5945C150.403 33.3589 150.247 33.066 150.139 32.7158C150.035 32.3624 149.982 31.9566 149.982 31.4984V29.8047C149.982 29.3466 150.035 28.9424 150.139 28.5922C150.247 28.2388 150.401 27.9409 150.601 27.6988C150.8 27.4599 151.043 27.2799 151.327 27.1588C151.615 27.0344 151.939 26.9722 152.299 26.9722C152.663 26.9722 152.987 27.0344 153.271 27.1588C153.559 27.2799 153.805 27.4599 154.008 27.6988C154.204 27.9409 154.356 28.2388 154.464 28.5922C154.572 28.9424 154.626 29.3466 154.626 29.8047V31.4984ZM151.16 31.0811L153.433 29.358C153.42 29.1028 153.384 28.8818 153.325 28.6953C153.27 28.5088 153.189 28.3566 153.085 28.2388C152.993 28.134 152.88 28.0555 152.746 28.0031C152.615 27.9508 152.466 27.9246 152.299 27.9246C152.119 27.9246 151.961 27.9557 151.823 28.0178C151.686 28.08 151.571 28.1717 151.479 28.2928C151.371 28.4302 151.291 28.6086 151.239 28.8278C151.187 29.0438 151.16 29.2991 151.16 29.5937V30.5558C151.16 30.6802 151.16 30.7751 151.16 30.8406C151.16 30.906 151.16 30.9862 151.16 31.0811ZM153.443 31.6947V30.7915C153.443 30.7097 153.443 30.6246 153.443 30.5362C153.443 30.4478 153.443 30.3562 153.443 30.2613L151.17 31.9746C151.187 32.2004 151.221 32.4 151.273 32.5735C151.329 32.7469 151.403 32.8909 151.494 33.0055C151.586 33.1298 151.699 33.2231 151.833 33.2853C151.97 33.3475 152.129 33.3785 152.309 33.3785C152.486 33.3785 152.641 33.3491 152.775 33.2902C152.91 33.228 153.024 33.138 153.119 33.0202C153.227 32.8827 153.307 32.7027 153.36 32.4802C153.415 32.2576 153.443 31.9958 153.443 31.6947ZM163.88 34.2229H162.697V28.5284L160.866 29.2009V28.1651L163.806 27.0753H163.88V34.2229ZM175.952 31.4984C175.952 31.9566 175.898 32.3624 175.79 32.7158C175.685 33.066 175.533 33.3589 175.333 33.5945C175.137 33.8367 174.895 34.02 174.607 34.1444C174.322 34.2654 173.998 34.326 173.635 34.326C173.275 34.326 172.951 34.2654 172.663 34.1444C172.375 34.02 172.131 33.8367 171.931 33.5945C171.728 33.3589 171.573 33.066 171.465 32.7158C171.36 32.3624 171.308 31.9566 171.308 31.4984V29.8047C171.308 29.3466 171.36 28.9424 171.465 28.5922C171.573 28.2388 171.727 27.9409 171.926 27.6988C172.126 27.4599 172.368 27.2799 172.653 27.1588C172.941 27.0344 173.265 26.9722 173.625 26.9722C173.988 26.9722 174.312 27.0344 174.597 27.1588C174.885 27.2799 175.13 27.4599 175.333 27.6988C175.53 27.9409 175.682 28.2388 175.79 28.5922C175.898 28.9424 175.952 29.3466 175.952 29.8047V31.4984ZM172.486 31.0811L174.759 29.358C174.746 29.1028 174.71 28.8818 174.651 28.6953C174.595 28.5088 174.515 28.3566 174.41 28.2388C174.319 28.134 174.206 28.0555 174.072 28.0031C173.941 27.9508 173.792 27.9246 173.625 27.9246C173.445 27.9246 173.286 27.9557 173.149 28.0178C173.011 28.08 172.897 28.1717 172.805 28.2928C172.697 28.4302 172.617 28.6086 172.565 28.8278C172.512 29.0438 172.486 29.2991 172.486 29.5937V30.5558C172.486 30.6802 172.486 30.7751 172.486 30.8406C172.486 30.906 172.486 30.9862 172.486 31.0811ZM174.769 31.6947V30.7915C174.769 30.7097 174.769 30.6246 174.769 30.5362C174.769 30.4478 174.769 30.3562 174.769 30.2613L172.496 31.9746C172.512 32.2004 172.547 32.4 172.599 32.5735C172.655 32.7469 172.728 32.8909 172.82 33.0055C172.912 33.1298 173.024 33.2231 173.159 33.2853C173.296 33.3475 173.455 33.3785 173.635 33.3785C173.812 33.3785 173.967 33.3491 174.101 33.2902C174.235 33.228 174.35 33.138 174.445 33.0202C174.553 32.8827 174.633 32.7027 174.685 32.4802C174.741 32.2576 174.769 31.9958 174.769 31.6947ZM3.93707 47.2229H2.75398V41.5284L0.922903 42.2009V41.1651L3.86343 40.0753H3.93707V47.2229ZM16.0088 44.4984C16.0088 44.9566 15.9548 45.3624 15.8468 45.7158C15.7421 46.066 15.5899 46.3589 15.3903 46.5945C15.1939 46.8367 14.9517 47.02 14.6638 47.1444C14.379 47.2654 14.055 47.326 13.6918 47.326C13.3318 47.326 13.0078 47.2654 12.7198 47.1444C12.4318 47.02 12.1879 46.8367 11.9883 46.5945C11.7854 46.3589 11.63 46.066 11.522 45.7158C11.4172 45.3624 11.3649 44.9566 11.3649 44.4984V42.8047C11.3649 42.3466 11.4172 41.9424 11.522 41.5922C11.63 41.2388 11.7838 40.9409 11.9834 40.6988C12.183 40.4599 12.4252 40.2799 12.7099 40.1588C12.9979 40.0344 13.3219 39.9722 13.6819 39.9722C14.0452 39.9722 14.3692 40.0344 14.6539 40.1588C14.9419 40.2799 15.1874 40.4599 15.3903 40.6988C15.5867 40.9409 15.7388 41.2388 15.8468 41.5922C15.9548 41.9424 16.0088 42.3466 16.0088 42.8047V44.4984ZM12.543 44.0811L14.8159 42.358C14.8028 42.1028 14.7668 41.8818 14.7079 41.6953C14.6523 41.5088 14.5721 41.3566 14.4674 41.2388C14.3758 41.134 14.2628 41.0555 14.1287 41.0031C13.9978 40.9508 13.8488 40.9246 13.6819 40.9246C13.5019 40.9246 13.3432 40.9557 13.2058 41.0178C13.0683 41.08 12.9538 41.1717 12.8621 41.2928C12.7541 41.4302 12.6739 41.6086 12.6216 41.8278C12.5692 42.0438 12.543 42.2991 12.543 42.5937V43.5558C12.543 43.6802 12.543 43.7751 12.543 43.8406C12.543 43.906 12.543 43.9862 12.543 44.0811ZM14.8258 44.6947V43.7915C14.8258 43.7097 14.8258 43.6246 14.8258 43.5362C14.8258 43.4478 14.8258 43.3562 14.8258 43.2613L12.5529 44.9746C12.5692 45.2004 12.6036 45.4 12.6559 45.5735C12.7116 45.7469 12.7852 45.8909 12.8769 46.0055C12.9685 46.1298 13.0814 46.2231 13.2156 46.2853C13.353 46.3475 13.5118 46.3785 13.6918 46.3785C13.8685 46.3785 14.0239 46.3491 14.1581 46.2902C14.2923 46.228 14.4068 46.138 14.5018 46.0202C14.6098 45.8827 14.6899 45.7027 14.7423 45.4802C14.7979 45.2576 14.8258 44.9958 14.8258 44.6947ZM25.2628 47.2229H24.0797V41.5284L22.2486 42.2009V41.1651L25.1892 40.0753H25.2628V47.2229ZM37.3346 44.4984C37.3346 44.9566 37.2806 45.3624 37.1726 45.7158C37.0678 46.066 36.9157 46.3589 36.716 46.5945C36.5197 46.8367 36.2775 47.02 35.9895 47.1444C35.7048 47.2654 35.3808 47.326 35.0175 47.326C34.6575 47.326 34.3335 47.2654 34.0455 47.1444C33.7575 47.02 33.5137 46.8367 33.3141 46.5945C33.1111 46.3589 32.9557 46.066 32.8477 45.7158C32.743 45.3624 32.6906 44.9566 32.6906 44.4984V42.8047C32.6906 42.3466 32.743 41.9424 32.8477 41.5922C32.9557 41.2388 33.1095 40.9409 33.3091 40.6988C33.5088 40.4599 33.751 40.2799 34.0357 40.1588C34.3237 40.0344 34.6477 39.9722 35.0077 39.9722C35.3709 39.9722 35.6949 40.0344 35.9797 40.1588C36.2677 40.2799 36.5131 40.4599 36.716 40.6988C36.9124 40.9409 37.0646 41.2388 37.1726 41.5922C37.2806 41.9424 37.3346 42.3466 37.3346 42.8047V44.4984ZM33.8688 44.0811L36.1417 42.358C36.1286 42.1028 36.0926 41.8818 36.0337 41.6953C35.978 41.5088 35.8979 41.3566 35.7931 41.2388C35.7015 41.134 35.5886 41.0555 35.4544 41.0031C35.3235 40.9508 35.1746 40.9246 35.0077 40.9246C34.8277 40.9246 34.669 40.9557 34.5315 41.0178C34.394 41.08 34.2795 41.1717 34.1879 41.2928C34.0799 41.4302 33.9997 41.6086 33.9473 41.8278C33.895 42.0438 33.8688 42.2991 33.8688 42.5937V43.5558C33.8688 43.6802 33.8688 43.7751 33.8688 43.8406C33.8688 43.906 33.8688 43.9862 33.8688 44.0811ZM36.1515 44.6947V43.7915C36.1515 43.7097 36.1515 43.6246 36.1515 43.5362C36.1515 43.4478 36.1515 43.3562 36.1515 43.2613L33.8786 44.9746C33.895 45.2004 33.9293 45.4 33.9817 45.5735C34.0373 45.7469 34.111 45.8909 34.2026 46.0055C34.2942 46.1298 34.4071 46.2231 34.5413 46.2853C34.6788 46.3475 34.8375 46.3785 35.0175 46.3785C35.1942 46.3785 35.3497 46.3491 35.4839 46.2902C35.618 46.228 35.7326 46.138 35.8275 46.0202C35.9355 45.8827 36.0157 45.7027 36.068 45.4802C36.1237 45.2576 36.1515 44.9958 36.1515 44.6947ZM46.5885 47.2229H45.4055V41.5284L43.5744 42.2009V41.1651L46.5149 40.0753H46.5885V47.2229ZM58.6603 44.4984C58.6603 44.9566 58.6063 45.3624 58.4983 45.7158C58.3936 46.066 58.2414 46.3589 58.0418 46.5945C57.8454 46.8367 57.6032 47.02 57.3152 47.1444C57.0305 47.2654 56.7065 47.326 56.3432 47.326C55.9832 47.326 55.6592 47.2654 55.3712 47.1444C55.0832 47.02 54.8394 46.8367 54.6398 46.5945C54.4369 46.3589 54.2814 46.066 54.1734 45.7158C54.0687 45.3624 54.0163 44.9566 54.0163 44.4984V42.8047C54.0163 42.3466 54.0687 41.9424 54.1734 41.5922C54.2814 41.2388 54.4352 40.9409 54.6349 40.6988C54.8345 40.4599 55.0767 40.2799 55.3614 40.1588C55.6494 40.0344 55.9734 39.9722 56.3334 39.9722C56.6967 39.9722 57.0207 40.0344 57.3054 40.1588C57.5934 40.2799 57.8389 40.4599 58.0418 40.6988C58.2381 40.9409 58.3903 41.2388 58.4983 41.5922C58.6063 41.9424 58.6603 42.3466 58.6603 42.8047V44.4984ZM55.1945 44.0811L57.4674 42.358C57.4543 42.1028 57.4183 41.8818 57.3594 41.6953C57.3038 41.5088 57.2236 41.3566 57.1189 41.2388C57.0272 41.134 56.9143 41.0555 56.7801 41.0031C56.6492 40.9508 56.5003 40.9246 56.3334 40.9246C56.1534 40.9246 55.9947 40.9557 55.8572 41.0178C55.7198 41.08 55.6052 41.1717 55.5136 41.2928C55.4056 41.4302 55.3254 41.6086 55.2731 41.8278C55.2207 42.0438 55.1945 42.2991 55.1945 42.5937V43.5558C55.1945 43.6802 55.1945 43.7751 55.1945 43.8406C55.1945 43.906 55.1945 43.9862 55.1945 44.0811ZM57.4772 44.6947V43.7915C57.4772 43.7097 57.4772 43.6246 57.4772 43.5362C57.4772 43.4478 57.4772 43.3562 57.4772 43.2613L55.2043 44.9746C55.2207 45.2004 55.2551 45.4 55.3074 45.5735C55.3631 45.7469 55.4367 45.8909 55.5283 46.0055C55.62 46.1298 55.7329 46.2231 55.8671 46.2853C56.0045 46.3475 56.1632 46.3785 56.3432 46.3785C56.52 46.3785 56.6754 46.3491 56.8096 46.2902C56.9438 46.228 57.0583 46.138 57.1532 46.0202C57.2612 45.8827 57.3414 45.7027 57.3938 45.4802C57.4494 45.2576 57.4772 44.9958 57.4772 44.6947ZM69.3232 44.4984C69.3232 44.9566 69.2692 45.3624 69.1612 45.7158C69.0565 46.066 68.9043 46.3589 68.7046 46.5945C68.5083 46.8367 68.2661 47.02 67.9781 47.1444C67.6934 47.2654 67.3694 47.326 67.0061 47.326C66.6461 47.326 66.3221 47.2654 66.0341 47.1444C65.7461 47.02 65.5023 46.8367 65.3027 46.5945C65.0998 46.3589 64.9443 46.066 64.8363 45.7158C64.7316 45.3624 64.6792 44.9566 64.6792 44.4984V42.8047C64.6792 42.3466 64.7316 41.9424 64.8363 41.5922C64.9443 41.2388 65.0981 40.9409 65.2978 40.6988C65.4974 40.4599 65.7396 40.2799 66.0243 40.1588C66.3123 40.0344 66.6363 39.9722 66.9963 39.9722C67.3596 39.9722 67.6836 40.0344 67.9683 40.1588C68.2563 40.2799 68.5017 40.4599 68.7046 40.6988C68.901 40.9409 69.0532 41.2388 69.1612 41.5922C69.2692 41.9424 69.3232 42.3466 69.3232 42.8047V44.4984ZM65.8574 44.0811L68.1303 42.358C68.1172 42.1028 68.0812 41.8818 68.0223 41.6953C67.9666 41.5088 67.8865 41.3566 67.7817 41.2388C67.6901 41.134 67.5772 41.0555 67.443 41.0031C67.3121 40.9508 67.1632 40.9246 66.9963 40.9246C66.8163 40.9246 66.6576 40.9557 66.5201 41.0178C66.3827 41.08 66.2681 41.1717 66.1765 41.2928C66.0685 41.4302 65.9883 41.6086 65.9359 41.8278C65.8836 42.0438 65.8574 42.2991 65.8574 42.5937V43.5558C65.8574 43.6802 65.8574 43.7751 65.8574 43.8406C65.8574 43.906 65.8574 43.9862 65.8574 44.0811ZM68.1401 44.6947V43.7915C68.1401 43.7097 68.1401 43.6246 68.1401 43.5362C68.1401 43.4478 68.1401 43.3562 68.1401 43.2613L65.8672 44.9746C65.8836 45.2004 65.9179 45.4 65.9703 45.5735C66.0259 45.7469 66.0996 45.8909 66.1912 46.0055C66.2828 46.1298 66.3957 46.2231 66.5299 46.2853C66.6674 46.3475 66.8261 46.3785 67.0061 46.3785C67.1828 46.3785 67.3383 46.3491 67.4725 46.2902C67.6066 46.228 67.7212 46.138 67.8161 46.0202C67.9241 45.8827 68.0043 45.7027 68.0566 45.4802C68.1123 45.2576 68.1401 44.9958 68.1401 44.6947ZM78.5771 47.2229H77.3941V41.5284L75.563 42.2009V41.1651L78.5035 40.0753H78.5771V47.2229ZM90.6489 44.4984C90.6489 44.9566 90.5949 45.3624 90.4869 45.7158C90.3822 46.066 90.23 46.3589 90.0304 46.5945C89.834 46.8367 89.5918 47.02 89.3038 47.1444C89.0191 47.2654 88.6951 47.326 88.3318 47.326C87.9718 47.326 87.6478 47.2654 87.3598 47.1444C87.0718 47.02 86.828 46.8367 86.6284 46.5945C86.4255 46.3589 86.27 46.066 86.162 45.7158C86.0573 45.3624 86.0049 44.9566 86.0049 44.4984V42.8047C86.0049 42.3466 86.0573 41.9424 86.162 41.5922C86.27 41.2388 86.4238 40.9409 86.6235 40.6988C86.8231 40.4599 87.0653 40.2799 87.35 40.1588C87.638 40.0344 87.962 39.9722 88.322 39.9722C88.6853 39.9722 89.0093 40.0344 89.294 40.1588C89.582 40.2799 89.8275 40.4599 90.0304 40.6988C90.2267 40.9409 90.3789 41.2388 90.4869 41.5922C90.5949 41.9424 90.6489 42.3466 90.6489 42.8047V44.4984ZM87.1831 44.0811L89.456 42.358C89.4429 42.1028 89.4069 41.8818 89.348 41.6953C89.2924 41.5088 89.2122 41.3566 89.1075 41.2388C89.0158 41.134 88.9029 41.0555 88.7687 41.0031C88.6378 40.9508 88.4889 40.9246 88.322 40.9246C88.142 40.9246 87.9833 40.9557 87.8458 41.0178C87.7084 41.08 87.5938 41.1717 87.5022 41.2928C87.3942 41.4302 87.314 41.6086 87.2617 41.8278C87.2093 42.0438 87.1831 42.2991 87.1831 42.5937V43.5558C87.1831 43.6802 87.1831 43.7751 87.1831 43.8406C87.1831 43.906 87.1831 43.9862 87.1831 44.0811ZM89.4658 44.6947V43.7915C89.4658 43.7097 89.4658 43.6246 89.4658 43.5362C89.4658 43.4478 89.4658 43.3562 89.4658 43.2613L87.1929 44.9746C87.2093 45.2004 87.2437 45.4 87.296 45.5735C87.3517 45.7469 87.4253 45.8909 87.5169 46.0055C87.6086 46.1298 87.7215 46.2231 87.8557 46.2853C87.9931 46.3475 88.1518 46.3785 88.3318 46.3785C88.5086 46.3785 88.664 46.3491 88.7982 46.2902C88.9324 46.228 89.0469 46.138 89.1418 46.0202C89.2498 45.8827 89.33 45.7027 89.3824 45.4802C89.438 45.2576 89.4658 44.9958 89.4658 44.6947ZM99.9029 47.2229H98.7198V41.5284L96.8887 42.2009V41.1651L99.8292 40.0753H99.9029V47.2229ZM111.975 44.4984C111.975 44.9566 111.921 45.3624 111.813 45.7158C111.708 46.066 111.556 46.3589 111.356 46.5945C111.16 46.8367 110.918 47.02 110.63 47.1444C110.345 47.2654 110.021 47.326 109.658 47.326C109.298 47.326 108.974 47.2654 108.686 47.1444C108.398 47.02 108.154 46.8367 107.954 46.5945C107.751 46.3589 107.596 46.066 107.488 45.7158C107.383 45.3624 107.331 44.9566 107.331 44.4984V42.8047C107.331 42.3466 107.383 41.9424 107.488 41.5922C107.596 41.2388 107.75 40.9409 107.949 40.6988C108.149 40.4599 108.391 40.2799 108.676 40.1588C108.964 40.0344 109.288 39.9722 109.648 39.9722C110.011 39.9722 110.335 40.0344 110.62 40.1588C110.908 40.2799 111.153 40.4599 111.356 40.6988C111.552 40.9409 111.705 41.2388 111.813 41.5922C111.921 41.9424 111.975 42.3466 111.975 42.8047V44.4984ZM108.509 44.0811L110.782 42.358C110.769 42.1028 110.733 41.8818 110.674 41.6953C110.618 41.5088 110.538 41.3566 110.433 41.2388C110.342 41.134 110.229 41.0555 110.094 41.0031C109.964 40.9508 109.815 40.9246 109.648 40.9246C109.468 40.9246 109.309 40.9557 109.172 41.0178C109.034 41.08 108.92 41.1717 108.828 41.2928C108.72 41.4302 108.64 41.6086 108.587 41.8278C108.535 42.0438 108.509 42.2991 108.509 42.5937V43.5558C108.509 43.6802 108.509 43.7751 108.509 43.8406C108.509 43.906 108.509 43.9862 108.509 44.0811ZM110.792 44.6947V43.7915C110.792 43.7097 110.792 43.6246 110.792 43.5362C110.792 43.4478 110.792 43.3562 110.792 43.2613L108.519 44.9746C108.535 45.2004 108.569 45.4 108.622 45.5735C108.677 45.7469 108.751 45.8909 108.843 46.0055C108.934 46.1298 109.047 46.2231 109.181 46.2853C109.319 46.3475 109.478 46.3785 109.658 46.3785C109.834 46.3785 109.99 46.3491 110.124 46.2902C110.258 46.228 110.373 46.138 110.468 46.0202C110.576 45.8827 110.656 45.7027 110.708 45.4802C110.764 45.2576 110.792 44.9958 110.792 44.6947ZM121.229 47.2229H120.046V41.5284L118.214 42.2009V41.1651L121.155 40.0753H121.229V47.2229ZM133.3 44.4984C133.3 44.9566 133.246 45.3624 133.138 45.7158C133.034 46.066 132.881 46.3589 132.682 46.5945C132.485 46.8367 132.243 47.02 131.955 47.1444C131.671 47.2654 131.347 47.326 130.983 47.326C130.623 47.326 130.299 47.2654 130.011 47.1444C129.723 47.02 129.48 46.8367 129.28 46.5945C129.077 46.3589 128.922 46.066 128.814 45.7158C128.709 45.3624 128.656 44.9566 128.656 44.4984V42.8047C128.656 42.3466 128.709 41.9424 128.814 41.5922C128.922 41.2388 129.075 40.9409 129.275 40.6988C129.475 40.4599 129.717 40.2799 130.002 40.1588C130.29 40.0344 130.614 39.9722 130.974 39.9722C131.337 39.9722 131.661 40.0344 131.945 40.1588C132.233 40.2799 132.479 40.4599 132.682 40.6988C132.878 40.9409 133.03 41.2388 133.138 41.5922C133.246 41.9424 133.3 42.3466 133.3 42.8047V44.4984ZM129.835 44.0811L132.107 42.358C132.094 42.1028 132.058 41.8818 131.999 41.6953C131.944 41.5088 131.864 41.3566 131.759 41.2388C131.667 41.134 131.554 41.0555 131.42 41.0031C131.289 40.9508 131.14 40.9246 130.974 40.9246C130.794 40.9246 130.635 40.9557 130.497 41.0178C130.36 41.08 130.245 41.1717 130.154 41.2928C130.046 41.4302 129.966 41.6086 129.913 41.8278C129.861 42.0438 129.835 42.2991 129.835 42.5937V43.5558C129.835 43.6802 129.835 43.7751 129.835 43.8406C129.835 43.906 129.835 43.9862 129.835 44.0811ZM132.117 44.6947V43.7915C132.117 43.7097 132.117 43.6246 132.117 43.5362C132.117 43.4478 132.117 43.3562 132.117 43.2613L129.844 44.9746C129.861 45.2004 129.895 45.4 129.948 45.5735C130.003 45.7469 130.077 45.8909 130.168 46.0055C130.26 46.1298 130.373 46.2231 130.507 46.2853C130.645 46.3475 130.803 46.3785 130.983 46.3785C131.16 46.3785 131.315 46.3491 131.45 46.2902C131.584 46.228 131.698 46.138 131.793 46.0202C131.901 45.8827 131.981 45.7027 132.034 45.4802C132.089 45.2576 132.117 44.9958 132.117 44.6947ZM142.554 47.2229H141.371V41.5284L139.54 42.2009V41.1651L142.481 40.0753H142.554V47.2229ZM154.626 44.4984C154.626 44.9566 154.572 45.3624 154.464 45.7158C154.359 46.066 154.207 46.3589 154.008 46.5945C153.811 46.8367 153.569 47.02 153.281 47.1444C152.996 47.2654 152.672 47.326 152.309 47.326C151.949 47.326 151.625 47.2654 151.337 47.1444C151.049 47.02 150.805 46.8367 150.606 46.5945C150.403 46.3589 150.247 46.066 150.139 45.7158C150.035 45.3624 149.982 44.9566 149.982 44.4984V42.8047C149.982 42.3466 150.035 41.9424 150.139 41.5922C150.247 41.2388 150.401 40.9409 150.601 40.6988C150.8 40.4599 151.043 40.2799 151.327 40.1588C151.615 40.0344 151.939 39.9722 152.299 39.9722C152.663 39.9722 152.987 40.0344 153.271 40.1588C153.559 40.2799 153.805 40.4599 154.008 40.6988C154.204 40.9409 154.356 41.2388 154.464 41.5922C154.572 41.9424 154.626 42.3466 154.626 42.8047V44.4984ZM151.16 44.0811L153.433 42.358C153.42 42.1028 153.384 41.8818 153.325 41.6953C153.27 41.5088 153.189 41.3566 153.085 41.2388C152.993 41.134 152.88 41.0555 152.746 41.0031C152.615 40.9508 152.466 40.9246 152.299 40.9246C152.119 40.9246 151.961 40.9557 151.823 41.0178C151.686 41.08 151.571 41.1717 151.479 41.2928C151.371 41.4302 151.291 41.6086 151.239 41.8278C151.187 42.0438 151.16 42.2991 151.16 42.5937V43.5558C151.16 43.6802 151.16 43.7751 151.16 43.8406C151.16 43.906 151.16 43.9862 151.16 44.0811ZM153.443 44.6947V43.7915C153.443 43.7097 153.443 43.6246 153.443 43.5362C153.443 43.4478 153.443 43.3562 153.443 43.2613L151.17 44.9746C151.187 45.2004 151.221 45.4 151.273 45.5735C151.329 45.7469 151.403 45.8909 151.494 46.0055C151.586 46.1298 151.699 46.2231 151.833 46.2853C151.97 46.3475 152.129 46.3785 152.309 46.3785C152.486 46.3785 152.641 46.3491 152.775 46.2902C152.91 46.228 153.024 46.138 153.119 46.0202C153.227 45.8827 153.307 45.7027 153.36 45.4802C153.415 45.2576 153.443 44.9958 153.443 44.6947ZM163.88 47.2229H162.697V41.5284L160.866 42.2009V41.1651L163.806 40.0753H163.88V47.2229ZM174.543 47.2229H173.36V41.5284L171.529 42.2009V41.1651L174.469 40.0753H174.543V47.2229ZM186.615 44.4984C186.615 44.9566 186.561 45.3624 186.453 45.7158C186.348 46.066 186.196 46.3589 185.996 46.5945C185.8 46.8367 185.558 47.02 185.27 47.1444C184.985 47.2654 184.661 47.326 184.298 47.326C183.938 47.326 183.614 47.2654 183.326 47.1444C183.038 47.02 182.794 46.8367 182.594 46.5945C182.391 46.3589 182.236 46.066 182.128 45.7158C182.023 45.3624 181.971 44.9566 181.971 44.4984V42.8047C181.971 42.3466 182.023 41.9424 182.128 41.5922C182.236 41.2388 182.39 40.9409 182.589 40.6988C182.789 40.4599 183.031 40.2799 183.316 40.1588C183.604 40.0344 183.928 39.9722 184.288 39.9722C184.651 39.9722 184.975 40.0344 185.26 40.1588C185.548 40.2799 185.793 40.4599 185.996 40.6988C186.193 40.9409 186.345 41.2388 186.453 41.5922C186.561 41.9424 186.615 42.3466 186.615 42.8047V44.4984ZM183.149 44.0811L185.422 42.358C185.409 42.1028 185.373 41.8818 185.314 41.6953C185.258 41.5088 185.178 41.3566 185.073 41.2388C184.982 41.134 184.869 41.0555 184.735 41.0031C184.604 40.9508 184.455 40.9246 184.288 40.9246C184.108 40.9246 183.949 40.9557 183.812 41.0178C183.674 41.08 183.56 41.1717 183.468 41.2928C183.36 41.4302 183.28 41.6086 183.227 41.8278C183.175 42.0438 183.149 42.2991 183.149 42.5937V43.5558C183.149 43.6802 183.149 43.7751 183.149 43.8406C183.149 43.906 183.149 43.9862 183.149 44.0811ZM185.432 44.6947V43.7915C185.432 43.7097 185.432 43.6246 185.432 43.5362C185.432 43.4478 185.432 43.3562 185.432 43.2613L183.159 44.9746C183.175 45.2004 183.209 45.4 183.262 45.5735C183.317 45.7469 183.391 45.8909 183.483 46.0055C183.574 46.1298 183.687 46.2231 183.821 46.2853C183.959 46.3475 184.118 46.3785 184.298 46.3785C184.474 46.3785 184.63 46.3491 184.764 46.2902C184.898 46.228 185.013 46.138 185.108 46.0202C185.216 45.8827 185.296 45.7027 185.348 45.4802C185.404 45.2576 185.432 44.9958 185.432 44.6947ZM195.869 47.2229H194.686V41.5284L192.855 42.2009V41.1651L195.795 40.0753H195.869V47.2229ZM207.94 44.4984C207.94 44.9566 207.886 45.3624 207.778 45.7158C207.674 46.066 207.522 46.3589 207.322 46.5945C207.126 46.8367 206.883 47.02 206.595 47.1444C206.311 47.2654 205.987 47.326 205.623 47.326C205.263 47.326 204.939 47.2654 204.651 47.1444C204.363 47.02 204.12 46.8367 203.92 46.5945C203.717 46.3589 203.562 46.066 203.454 45.7158C203.349 45.3624 203.297 44.9566 203.297 44.4984V42.8047C203.297 42.3466 203.349 41.9424 203.454 41.5922C203.562 41.2388 203.715 40.9409 203.915 40.6988C204.115 40.4599 204.357 40.2799 204.642 40.1588C204.93 40.0344 205.254 39.9722 205.614 39.9722C205.977 39.9722 206.301 40.0344 206.586 40.1588C206.874 40.2799 207.119 40.4599 207.322 40.6988C207.518 40.9409 207.67 41.2388 207.778 41.5922C207.886 41.9424 207.94 42.3466 207.94 42.8047V44.4984ZM204.475 44.0811L206.748 42.358C206.734 42.1028 206.698 41.8818 206.64 41.6953C206.584 41.5088 206.504 41.3566 206.399 41.2388C206.307 41.134 206.194 41.0555 206.06 41.0031C205.929 40.9508 205.78 40.9246 205.614 40.9246C205.434 40.9246 205.275 40.9557 205.137 41.0178C205 41.08 204.885 41.1717 204.794 41.2928C204.686 41.4302 204.606 41.6086 204.553 41.8278C204.501 42.0438 204.475 42.2991 204.475 42.5937V43.5558C204.475 43.6802 204.475 43.7751 204.475 43.8406C204.475 43.906 204.475 43.9862 204.475 44.0811ZM206.757 44.6947V43.7915C206.757 43.7097 206.757 43.6246 206.757 43.5362C206.757 43.4478 206.757 43.3562 206.757 43.2613L204.485 44.9746C204.501 45.2004 204.535 45.4 204.588 45.5735C204.643 45.7469 204.717 45.8909 204.808 46.0055C204.9 46.1298 205.013 46.2231 205.147 46.2853C205.285 46.3475 205.443 46.3785 205.623 46.3785C205.8 46.3785 205.956 46.3491 206.09 46.2902C206.224 46.228 206.338 46.138 206.433 46.0202C206.541 45.8827 206.622 45.7027 206.674 45.4802C206.73 45.2576 206.757 44.9958 206.757 44.6947ZM217.194 47.2229H216.011V41.5284L214.18 42.2009V41.1651L217.121 40.0753H217.194V47.2229ZM229.266 44.4984C229.266 44.9566 229.212 45.3624 229.104 45.7158C228.999 46.066 228.847 46.3589 228.648 46.5945C228.451 46.8367 228.209 47.02 227.921 47.1444C227.636 47.2654 227.312 47.326 226.949 47.326C226.589 47.326 226.265 47.2654 225.977 47.1444C225.689 47.02 225.445 46.8367 225.246 46.5945C225.043 46.3589 224.887 46.066 224.779 45.7158C224.675 45.3624 224.622 44.9566 224.622 44.4984V42.8047C224.622 42.3466 224.675 41.9424 224.779 41.5922C224.887 41.2388 225.041 40.9409 225.241 40.6988C225.44 40.4599 225.683 40.2799 225.967 40.1588C226.255 40.0344 226.579 39.9722 226.939 39.9722C227.303 39.9722 227.627 40.0344 227.911 40.1588C228.199 40.2799 228.445 40.4599 228.648 40.6988C228.844 40.9409 228.996 41.2388 229.104 41.5922C229.212 41.9424 229.266 42.3466 229.266 42.8047V44.4984ZM225.8 44.0811L228.073 42.358C228.06 42.1028 228.024 41.8818 227.965 41.6953C227.91 41.5088 227.829 41.3566 227.725 41.2388C227.633 41.134 227.52 41.0555 227.386 41.0031C227.255 40.9508 227.106 40.9246 226.939 40.9246C226.759 40.9246 226.601 40.9557 226.463 41.0178C226.326 41.08 226.211 41.1717 226.12 41.2928C226.012 41.4302 225.931 41.6086 225.879 41.8278C225.827 42.0438 225.8 42.2991 225.8 42.5937V43.5558C225.8 43.6802 225.8 43.7751 225.8 43.8406C225.8 43.906 225.8 43.9862 225.8 44.0811ZM228.083 44.6947V43.7915C228.083 43.7097 228.083 43.6246 228.083 43.5362C228.083 43.4478 228.083 43.3562 228.083 43.2613L225.81 44.9746C225.827 45.2004 225.861 45.4 225.913 45.5735C225.969 45.7469 226.043 45.8909 226.134 46.0055C226.226 46.1298 226.339 46.2231 226.473 46.2853C226.61 46.3475 226.769 46.3785 226.949 46.3785C227.126 46.3785 227.281 46.3491 227.415 46.2902C227.55 46.228 227.664 46.138 227.759 46.0202C227.867 45.8827 227.947 45.7027 228 45.4802C228.055 45.2576 228.083 44.9958 228.083 44.6947ZM239.929 44.4984C239.929 44.9566 239.875 45.3624 239.767 45.7158C239.662 46.066 239.51 46.3589 239.311 46.5945C239.114 46.8367 238.872 47.02 238.584 47.1444C238.299 47.2654 237.975 47.326 237.612 47.326C237.252 47.326 236.928 47.2654 236.64 47.1444C236.352 47.02 236.108 46.8367 235.909 46.5945C235.706 46.3589 235.55 46.066 235.442 45.7158C235.337 45.3624 235.285 44.9566 235.285 44.4984V42.8047C235.285 42.3466 235.337 41.9424 235.442 41.5922C235.55 41.2388 235.704 40.9409 235.904 40.6988C236.103 40.4599 236.345 40.2799 236.63 40.1588C236.918 40.0344 237.242 39.9722 237.602 39.9722C237.965 39.9722 238.289 40.0344 238.574 40.1588C238.862 40.2799 239.108 40.4599 239.311 40.6988C239.507 40.9409 239.659 41.2388 239.767 41.5922C239.875 41.9424 239.929 42.3466 239.929 42.8047V44.4984ZM236.463 44.0811L238.736 42.358C238.723 42.1028 238.687 41.8818 238.628 41.6953C238.573 41.5088 238.492 41.3566 238.388 41.2388C238.296 41.134 238.183 41.0555 238.049 41.0031C237.918 40.9508 237.769 40.9246 237.602 40.9246C237.422 40.9246 237.263 40.9557 237.126 41.0178C236.989 41.08 236.874 41.1717 236.782 41.2928C236.674 41.4302 236.594 41.6086 236.542 41.8278C236.489 42.0438 236.463 42.2991 236.463 42.5937V43.5558C236.463 43.6802 236.463 43.7751 236.463 43.8406C236.463 43.906 236.463 43.9862 236.463 44.0811ZM238.746 44.6947V43.7915C238.746 43.7097 238.746 43.6246 238.746 43.5362C238.746 43.4478 238.746 43.3562 238.746 43.2613L236.473 44.9746C236.489 45.2004 236.524 45.4 236.576 45.5735C236.632 45.7469 236.705 45.8909 236.797 46.0055C236.889 46.1298 237.002 46.2231 237.136 46.2853C237.273 46.3475 237.432 46.3785 237.612 46.3785C237.789 46.3785 237.944 46.3491 238.078 46.2902C238.213 46.228 238.327 46.138 238.422 46.0202C238.53 45.8827 238.61 45.7027 238.663 45.4802C238.718 45.2576 238.746 44.9958 238.746 44.6947ZM249.183 47.2229H248V41.5284L246.169 42.2009V41.1651L249.109 40.0753H249.183V47.2229ZM3.93707 60.2229H2.75398V54.5284L0.922903 55.2009V54.1651L3.86343 53.0753H3.93707V60.2229ZM16.0088 57.4984C16.0088 57.9566 15.9548 58.3624 15.8468 58.7158C15.7421 59.066 15.5899 59.3589 15.3903 59.5945C15.1939 59.8367 14.9517 60.02 14.6638 60.1444C14.379 60.2654 14.055 60.326 13.6918 60.326C13.3318 60.326 13.0078 60.2654 12.7198 60.1444C12.4318 60.02 12.1879 59.8367 11.9883 59.5945C11.7854 59.3589 11.63 59.066 11.522 58.7158C11.4172 58.3624 11.3649 57.9566 11.3649 57.4984V55.8047C11.3649 55.3466 11.4172 54.9424 11.522 54.5922C11.63 54.2388 11.7838 53.9409 11.9834 53.6988C12.183 53.4599 12.4252 53.2799 12.7099 53.1588C12.9979 53.0344 13.3219 52.9722 13.6819 52.9722C14.0452 52.9722 14.3692 53.0344 14.6539 53.1588C14.9419 53.2799 15.1874 53.4599 15.3903 53.6988C15.5867 53.9409 15.7388 54.2388 15.8468 54.5922C15.9548 54.9424 16.0088 55.3466 16.0088 55.8047V57.4984ZM12.543 57.0811L14.8159 55.358C14.8028 55.1028 14.7668 54.8818 14.7079 54.6953C14.6523 54.5088 14.5721 54.3566 14.4674 54.2388C14.3758 54.134 14.2628 54.0555 14.1287 54.0031C13.9978 53.9508 13.8488 53.9246 13.6819 53.9246C13.5019 53.9246 13.3432 53.9557 13.2058 54.0178C13.0683 54.08 12.9538 54.1717 12.8621 54.2928C12.7541 54.4302 12.6739 54.6086 12.6216 54.8278C12.5692 55.0438 12.543 55.2991 12.543 55.5937V56.5558C12.543 56.6802 12.543 56.7751 12.543 56.8406C12.543 56.906 12.543 56.9862 12.543 57.0811ZM14.8258 57.6947V56.7915C14.8258 56.7097 14.8258 56.6246 14.8258 56.5362C14.8258 56.4478 14.8258 56.3562 14.8258 56.2613L12.5529 57.9746C12.5692 58.2004 12.6036 58.4 12.6559 58.5735C12.7116 58.7469 12.7852 58.8909 12.8769 59.0055C12.9685 59.1298 13.0814 59.2231 13.2156 59.2853C13.353 59.3475 13.5118 59.3785 13.6918 59.3785C13.8685 59.3785 14.0239 59.3491 14.1581 59.2902C14.2923 59.228 14.4068 59.138 14.5018 59.0202C14.6098 58.8827 14.6899 58.7027 14.7423 58.4802C14.7979 58.2576 14.8258 57.9958 14.8258 57.6947ZM25.2628 60.2229H24.0797V54.5284L22.2486 55.2009V54.1651L25.1892 53.0753H25.2628V60.2229ZM37.3346 57.4984C37.3346 57.9566 37.2806 58.3624 37.1726 58.7158C37.0678 59.066 36.9157 59.3589 36.716 59.5945C36.5197 59.8367 36.2775 60.02 35.9895 60.1444C35.7048 60.2654 35.3808 60.326 35.0175 60.326C34.6575 60.326 34.3335 60.2654 34.0455 60.1444C33.7575 60.02 33.5137 59.8367 33.3141 59.5945C33.1111 59.3589 32.9557 59.066 32.8477 58.7158C32.743 58.3624 32.6906 57.9566 32.6906 57.4984V55.8047C32.6906 55.3466 32.743 54.9424 32.8477 54.5922C32.9557 54.2388 33.1095 53.9409 33.3091 53.6988C33.5088 53.4599 33.751 53.2799 34.0357 53.1588C34.3237 53.0344 34.6477 52.9722 35.0077 52.9722C35.3709 52.9722 35.6949 53.0344 35.9797 53.1588C36.2677 53.2799 36.5131 53.4599 36.716 53.6988C36.9124 53.9409 37.0646 54.2388 37.1726 54.5922C37.2806 54.9424 37.3346 55.3466 37.3346 55.8047V57.4984ZM33.8688 57.0811L36.1417 55.358C36.1286 55.1028 36.0926 54.8818 36.0337 54.6953C35.978 54.5088 35.8979 54.3566 35.7931 54.2388C35.7015 54.134 35.5886 54.0555 35.4544 54.0031C35.3235 53.9508 35.1746 53.9246 35.0077 53.9246C34.8277 53.9246 34.669 53.9557 34.5315 54.0178C34.394 54.08 34.2795 54.1717 34.1879 54.2928C34.0799 54.4302 33.9997 54.6086 33.9473 54.8278C33.895 55.0438 33.8688 55.2991 33.8688 55.5937V56.5558C33.8688 56.6802 33.8688 56.7751 33.8688 56.8406C33.8688 56.906 33.8688 56.9862 33.8688 57.0811ZM36.1515 57.6947V56.7915C36.1515 56.7097 36.1515 56.6246 36.1515 56.5362C36.1515 56.4478 36.1515 56.3562 36.1515 56.2613L33.8786 57.9746C33.895 58.2004 33.9293 58.4 33.9817 58.5735C34.0373 58.7469 34.111 58.8909 34.2026 59.0055C34.2942 59.1298 34.4071 59.2231 34.5413 59.2853C34.6788 59.3475 34.8375 59.3785 35.0175 59.3785C35.1942 59.3785 35.3497 59.3491 35.4839 59.2902C35.618 59.228 35.7326 59.138 35.8275 59.0202C35.9355 58.8827 36.0157 58.7027 36.068 58.4802C36.1237 58.2576 36.1515 57.9958 36.1515 57.6947ZM46.5885 60.2229H45.4055V54.5284L43.5744 55.2009V54.1651L46.5149 53.0753H46.5885V60.2229ZM58.6603 57.4984C58.6603 57.9566 58.6063 58.3624 58.4983 58.7158C58.3936 59.066 58.2414 59.3589 58.0418 59.5945C57.8454 59.8367 57.6032 60.02 57.3152 60.1444C57.0305 60.2654 56.7065 60.326 56.3432 60.326C55.9832 60.326 55.6592 60.2654 55.3712 60.1444C55.0832 60.02 54.8394 59.8367 54.6398 59.5945C54.4369 59.3589 54.2814 59.066 54.1734 58.7158C54.0687 58.3624 54.0163 57.9566 54.0163 57.4984V55.8047C54.0163 55.3466 54.0687 54.9424 54.1734 54.5922C54.2814 54.2388 54.4352 53.9409 54.6349 53.6988C54.8345 53.4599 55.0767 53.2799 55.3614 53.1588C55.6494 53.0344 55.9734 52.9722 56.3334 52.9722C56.6967 52.9722 57.0207 53.0344 57.3054 53.1588C57.5934 53.2799 57.8389 53.4599 58.0418 53.6988C58.2381 53.9409 58.3903 54.2388 58.4983 54.5922C58.6063 54.9424 58.6603 55.3466 58.6603 55.8047V57.4984ZM55.1945 57.0811L57.4674 55.358C57.4543 55.1028 57.4183 54.8818 57.3594 54.6953C57.3038 54.5088 57.2236 54.3566 57.1189 54.2388C57.0272 54.134 56.9143 54.0555 56.7801 54.0031C56.6492 53.9508 56.5003 53.9246 56.3334 53.9246C56.1534 53.9246 55.9947 53.9557 55.8572 54.0178C55.7198 54.08 55.6052 54.1717 55.5136 54.2928C55.4056 54.4302 55.3254 54.6086 55.2731 54.8278C55.2207 55.0438 55.1945 55.2991 55.1945 55.5937V56.5558C55.1945 56.6802 55.1945 56.7751 55.1945 56.8406C55.1945 56.906 55.1945 56.9862 55.1945 57.0811ZM57.4772 57.6947V56.7915C57.4772 56.7097 57.4772 56.6246 57.4772 56.5362C57.4772 56.4478 57.4772 56.3562 57.4772 56.2613L55.2043 57.9746C55.2207 58.2004 55.2551 58.4 55.3074 58.5735C55.3631 58.7469 55.4367 58.8909 55.5283 59.0055C55.62 59.1298 55.7329 59.2231 55.8671 59.2853C56.0045 59.3475 56.1632 59.3785 56.3432 59.3785C56.52 59.3785 56.6754 59.3491 56.8096 59.2902C56.9438 59.228 57.0583 59.138 57.1532 59.0202C57.2612 58.8827 57.3414 58.7027 57.3938 58.4802C57.4494 58.2576 57.4772 57.9958 57.4772 57.6947ZM67.9143 60.2229H66.7312V54.5284L64.9001 55.2009V54.1651L67.8406 53.0753H67.9143V60.2229ZM79.986 57.4984C79.986 57.9566 79.932 58.3624 79.824 58.7158C79.7193 59.066 79.5671 59.3589 79.3675 59.5945C79.1711 59.8367 78.929 60.02 78.641 60.1444C78.3562 60.2654 78.0322 60.326 77.669 60.326C77.309 60.326 76.985 60.2654 76.697 60.1444C76.409 60.02 76.1652 59.8367 75.9655 59.5945C75.7626 59.3589 75.6072 59.066 75.4992 58.7158C75.3944 58.3624 75.3421 57.9566 75.3421 57.4984V55.8047C75.3421 55.3466 75.3944 54.9424 75.4992 54.5922C75.6072 54.2388 75.761 53.9409 75.9606 53.6988C76.1603 53.4599 76.4024 53.2799 76.6872 53.1588C76.9752 53.0344 77.2992 52.9722 77.6592 52.9722C78.0224 52.9722 78.3464 53.0344 78.6311 53.1588C78.9191 53.2799 79.1646 53.4599 79.3675 53.6988C79.5639 53.9409 79.7161 54.2388 79.824 54.5922C79.932 54.9424 79.986 55.3466 79.986 55.8047V57.4984ZM76.5203 57.0811L78.7931 55.358C78.7801 55.1028 78.7441 54.8818 78.6851 54.6953C78.6295 54.5088 78.5493 54.3566 78.4446 54.2388C78.353 54.134 78.2401 54.0555 78.1059 54.0031C77.975 53.9508 77.8261 53.9246 77.6592 53.9246C77.4792 53.9246 77.3204 53.9557 77.183 54.0178C77.0455 54.08 76.931 54.1717 76.8393 54.2928C76.7313 54.4302 76.6512 54.6086 76.5988 54.8278C76.5464 55.0438 76.5203 55.2991 76.5203 55.5937V56.5558C76.5203 56.6802 76.5203 56.7751 76.5203 56.8406C76.5203 56.906 76.5203 56.9862 76.5203 57.0811ZM78.803 57.6947V56.7915C78.803 56.7097 78.803 56.6246 78.803 56.5362C78.803 56.4478 78.803 56.3562 78.803 56.2613L76.5301 57.9746C76.5464 58.2004 76.5808 58.4 76.6332 58.5735C76.6888 58.7469 76.7624 58.8909 76.8541 59.0055C76.9457 59.1298 77.0586 59.2231 77.1928 59.2853C77.3302 59.3475 77.489 59.3785 77.669 59.3785C77.8457 59.3785 78.0012 59.3491 78.1353 59.2902C78.2695 59.228 78.3841 59.138 78.479 59.0202C78.587 58.8827 78.6671 58.7027 78.7195 58.4802C78.7751 58.2576 78.803 57.9958 78.803 57.6947ZM89.24 60.2229H88.0569V54.5284L86.2259 55.2009V54.1651L89.1664 53.0753H89.24V60.2229ZM101.312 57.4984C101.312 57.9566 101.258 58.3624 101.15 58.7158C101.045 59.066 100.893 59.3589 100.693 59.5945C100.497 59.8367 100.255 60.02 99.9667 60.1444C99.682 60.2654 99.358 60.326 98.9947 60.326C98.6347 60.326 98.3107 60.2654 98.0227 60.1444C97.7347 60.02 97.4909 59.8367 97.2913 59.5945C97.0884 59.3589 96.9329 59.066 96.8249 58.7158C96.7202 58.3624 96.6678 57.9566 96.6678 57.4984V55.8047C96.6678 55.3466 96.7202 54.9424 96.8249 54.5922C96.9329 54.2388 97.0867 53.9409 97.2864 53.6988C97.486 53.4599 97.7282 53.2799 98.0129 53.1588C98.3009 53.0344 98.6249 52.9722 98.9849 52.9722C99.3482 52.9722 99.6722 53.0344 99.9569 53.1588C100.245 53.2799 100.49 53.4599 100.693 53.6988C100.89 53.9409 101.042 54.2388 101.15 54.5922C101.258 54.9424 101.312 55.3466 101.312 55.8047V57.4984ZM97.846 57.0811L100.119 55.358C100.106 55.1028 100.07 54.8818 100.011 54.6953C99.9552 54.5088 99.8751 54.3566 99.7703 54.2388C99.6787 54.134 99.5658 54.0555 99.4316 54.0031C99.3007 53.9508 99.1518 53.9246 98.9849 53.9246C98.8049 53.9246 98.6462 53.9557 98.5087 54.0178C98.3713 54.08 98.2567 54.1717 98.1651 54.2928C98.0571 54.4302 97.9769 54.6086 97.9245 54.8278C97.8722 55.0438 97.846 55.2991 97.846 55.5937V56.5558C97.846 56.6802 97.846 56.7751 97.846 56.8406C97.846 56.906 97.846 56.9862 97.846 57.0811ZM100.129 57.6947V56.7915C100.129 56.7097 100.129 56.6246 100.129 56.5362C100.129 56.4478 100.129 56.3562 100.129 56.2613L97.8558 57.9746C97.8722 58.2004 97.9065 58.4 97.9589 58.5735C98.0145 58.7469 98.0882 58.8909 98.1798 59.0055C98.2714 59.1298 98.3844 59.2231 98.5185 59.2853C98.656 59.3475 98.8147 59.3785 98.9947 59.3785C99.1714 59.3785 99.3269 59.3491 99.4611 59.2902C99.5953 59.228 99.7098 59.138 99.8047 59.0202C99.9127 58.8827 99.9929 58.7027 100.045 58.4802C100.101 58.2576 100.129 57.9958 100.129 57.6947ZM110.566 60.2229H109.383V54.5284L107.552 55.2009V54.1651L110.492 53.0753H110.566V60.2229ZM122.638 57.4984C122.638 57.9566 122.584 58.3624 122.476 58.7158C122.371 59.066 122.219 59.3589 122.019 59.5945C121.823 59.8367 121.58 60.02 121.292 60.1444C121.008 60.2654 120.684 60.326 120.32 60.326C119.96 60.326 119.636 60.2654 119.348 60.1444C119.06 60.02 118.817 59.8367 118.617 59.5945C118.414 59.3589 118.259 59.066 118.151 58.7158C118.046 58.3624 117.994 57.9566 117.994 57.4984V55.8047C117.994 55.3466 118.046 54.9424 118.151 54.5922C118.259 54.2388 118.412 53.9409 118.612 53.6988C118.812 53.4599 119.054 53.2799 119.339 53.1588C119.627 53.0344 119.951 52.9722 120.311 52.9722C120.674 52.9722 120.998 53.0344 121.283 53.1588C121.571 53.2799 121.816 53.4599 122.019 53.6988C122.215 53.9409 122.368 54.2388 122.476 54.5922C122.584 54.9424 122.638 55.3466 122.638 55.8047V57.4984ZM119.172 57.0811L121.445 55.358C121.432 55.1028 121.396 54.8818 121.337 54.6953C121.281 54.5088 121.201 54.3566 121.096 54.2388C121.004 54.134 120.892 54.0555 120.757 54.0031C120.626 53.9508 120.478 53.9246 120.311 53.9246C120.131 53.9246 119.972 53.9557 119.834 54.0178C119.697 54.08 119.582 54.1717 119.491 54.2928C119.383 54.4302 119.303 54.6086 119.25 54.8278C119.198 55.0438 119.172 55.2991 119.172 55.5937V56.5558C119.172 56.6802 119.172 56.7751 119.172 56.8406C119.172 56.906 119.172 56.9862 119.172 57.0811ZM121.454 57.6947V56.7915C121.454 56.7097 121.454 56.6246 121.454 56.5362C121.454 56.4478 121.454 56.3562 121.454 56.2613L119.182 57.9746C119.198 58.2004 119.232 58.4 119.285 58.5735C119.34 58.7469 119.414 58.8909 119.506 59.0055C119.597 59.1298 119.71 59.2231 119.844 59.2853C119.982 59.3475 120.14 59.3785 120.32 59.3785C120.497 59.3785 120.653 59.3491 120.787 59.2902C120.921 59.228 121.036 59.138 121.13 59.0202C121.238 58.8827 121.319 58.7027 121.371 58.4802C121.427 58.2576 121.454 57.9958 121.454 57.6947ZM133.3 57.4984C133.3 57.9566 133.246 58.3624 133.138 58.7158C133.034 59.066 132.881 59.3589 132.682 59.5945C132.485 59.8367 132.243 60.02 131.955 60.1444C131.671 60.2654 131.347 60.326 130.983 60.326C130.623 60.326 130.299 60.2654 130.011 60.1444C129.723 60.02 129.48 59.8367 129.28 59.5945C129.077 59.3589 128.922 59.066 128.814 58.7158C128.709 58.3624 128.656 57.9566 128.656 57.4984V55.8047C128.656 55.3466 128.709 54.9424 128.814 54.5922C128.922 54.2388 129.075 53.9409 129.275 53.6988C129.475 53.4599 129.717 53.2799 130.002 53.1588C130.29 53.0344 130.614 52.9722 130.974 52.9722C131.337 52.9722 131.661 53.0344 131.945 53.1588C132.233 53.2799 132.479 53.4599 132.682 53.6988C132.878 53.9409 133.03 54.2388 133.138 54.5922C133.246 54.9424 133.3 55.3466 133.3 55.8047V57.4984ZM129.835 57.0811L132.107 55.358C132.094 55.1028 132.058 54.8818 131.999 54.6953C131.944 54.5088 131.864 54.3566 131.759 54.2388C131.667 54.134 131.554 54.0555 131.42 54.0031C131.289 53.9508 131.14 53.9246 130.974 53.9246C130.794 53.9246 130.635 53.9557 130.497 54.0178C130.36 54.08 130.245 54.1717 130.154 54.2928C130.046 54.4302 129.966 54.6086 129.913 54.8278C129.861 55.0438 129.835 55.2991 129.835 55.5937V56.5558C129.835 56.6802 129.835 56.7751 129.835 56.8406C129.835 56.906 129.835 56.9862 129.835 57.0811ZM132.117 57.6947V56.7915C132.117 56.7097 132.117 56.6246 132.117 56.5362C132.117 56.4478 132.117 56.3562 132.117 56.2613L129.844 57.9746C129.861 58.2004 129.895 58.4 129.948 58.5735C130.003 58.7469 130.077 58.8909 130.168 59.0055C130.26 59.1298 130.373 59.2231 130.507 59.2853C130.645 59.3475 130.803 59.3785 130.983 59.3785C131.16 59.3785 131.315 59.3491 131.45 59.2902C131.584 59.228 131.698 59.138 131.793 59.0202C131.901 58.8827 131.981 58.7027 132.034 58.4802C132.089 58.2576 132.117 57.9958 132.117 57.6947ZM4.35434 84.3575C4.35434 84.2298 4.33143 84.1104 4.28561 83.9991C4.24306 83.8878 4.16943 83.7831 4.0647 83.6849C3.9567 83.59 3.81598 83.5033 3.64252 83.4247C3.47234 83.3429 3.25962 83.2676 3.00434 83.1989C2.60835 83.0909 2.2598 82.96 1.95871 82.8062C1.6609 82.6524 1.41708 82.4838 1.22726 82.3006C1.03745 82.1173 0.893449 81.9144 0.795268 81.6918C0.700359 81.4693 0.652905 81.2271 0.652905 80.9653C0.652905 80.6642 0.716723 80.3909 0.844358 80.1455C0.971994 79.9 1.14872 79.6906 1.37454 79.5171C1.60035 79.3437 1.86708 79.2111 2.17471 79.1195C2.48235 79.0246 2.81616 78.9771 3.17616 78.9771C3.54925 78.9771 3.88961 79.0311 4.19725 79.1391C4.50815 79.2471 4.77488 79.3977 4.99742 79.5908C5.21997 79.7871 5.39342 80.0195 5.51778 80.2878C5.64215 80.5562 5.70433 80.8508 5.70433 81.1715H4.35924C4.3527 81.0111 4.32324 80.8638 4.27088 80.7297C4.22179 80.5955 4.14815 80.4793 4.04997 80.3811C3.94852 80.2862 3.82252 80.2126 3.67198 80.1602C3.5247 80.1046 3.35125 80.0768 3.15162 80.0768C2.96834 80.0768 2.80471 80.0997 2.66071 80.1455C2.51998 80.188 2.40053 80.2486 2.30235 80.3271C2.20417 80.4089 2.1289 80.5055 2.07653 80.6168C2.02744 80.7248 2.0029 80.8426 2.0029 80.9702C2.0029 81.1044 2.03562 81.2255 2.10108 81.3335C2.1698 81.4415 2.26799 81.538 2.39562 81.6231C2.52326 81.7115 2.67707 81.7917 2.85707 81.8637C3.04034 81.9357 3.24652 82.0027 3.47561 82.0649C3.72107 82.1337 3.95507 82.2171 4.17761 82.3153C4.40015 82.4135 4.6047 82.5264 4.79124 82.654C5.07269 82.8635 5.29687 83.1073 5.46378 83.3855C5.63069 83.6636 5.71414 83.9844 5.71414 84.3476C5.71414 84.6618 5.65033 84.9416 5.52269 85.1871C5.39833 85.4293 5.22488 85.6338 5.00233 85.8007C4.77979 85.9709 4.5147 86.1002 4.20706 86.1885C3.89943 86.2736 3.56398 86.3162 3.20071 86.3162C2.84398 86.3162 2.49053 86.2638 2.14035 86.1591C1.79344 86.0511 1.49072 85.894 1.23217 85.6878C0.986721 85.4849 0.791995 85.246 0.647996 84.9711C0.507269 84.6962 0.436906 84.3738 0.436906 84.004H1.79181C1.79835 84.22 1.83599 84.4049 1.90471 84.5587C1.97344 84.7125 2.06999 84.8385 2.19435 84.9367C2.31544 85.0349 2.46107 85.1069 2.63126 85.1527C2.80471 85.1985 2.99453 85.2215 3.20071 85.2215C3.38398 85.2215 3.54598 85.2002 3.6867 85.1576C3.8307 85.1151 3.95179 85.0562 4.04997 84.9809C4.14815 84.9056 4.22343 84.8156 4.27579 84.7109C4.32815 84.6029 4.35434 84.4851 4.35434 84.3575ZM12.1945 88.3682C12.0636 88.3682 11.949 88.36 11.8509 88.3436C11.756 88.3273 11.6496 88.3027 11.5318 88.27L11.6987 87.2293C11.7543 87.2293 11.8247 87.2309 11.9098 87.2342C11.9981 87.2407 12.0685 87.244 12.1209 87.244C12.2289 87.244 12.3238 87.2096 12.4056 87.1409C12.4907 87.0754 12.5627 87.0034 12.6216 86.9249C12.6805 86.8464 12.723 86.7874 12.7492 86.7482C12.7787 86.7089 12.813 86.6533 12.8523 86.5813L13.1665 85.9971L10.9181 80.9113H12.4105L13.6279 84.0236L13.7752 84.5636L13.9765 84.0335L15.189 80.9113H16.6961L14.001 87.0182C13.9421 87.1523 13.8652 87.298 13.7703 87.4551C13.6787 87.6122 13.5625 87.7578 13.4218 87.892C13.281 88.0262 13.1092 88.1391 12.9063 88.2307C12.7067 88.3223 12.4694 88.3682 12.1945 88.3682ZM25.4444 84.7649C25.4444 84.6831 25.4248 84.6111 25.3855 84.5489C25.3495 84.4867 25.2841 84.4278 25.1892 84.3722C25.091 84.3198 24.9617 84.2707 24.8014 84.2249C24.641 84.1791 24.4381 84.1333 24.1926 84.0875C23.8817 84.0253 23.597 83.9484 23.3385 83.8567C23.0832 83.7618 22.8639 83.6473 22.6806 83.5131C22.4974 83.3822 22.3534 83.23 22.2486 83.0566C22.1472 82.8831 22.0965 82.6835 22.0965 82.4577C22.0965 82.2384 22.1488 82.0289 22.2535 81.8293C22.3583 81.6297 22.5088 81.4546 22.7052 81.304C22.9015 81.1535 23.1405 81.034 23.4219 80.9457C23.7034 80.8573 24.0208 80.8131 24.3743 80.8131C24.7441 80.8131 25.0763 80.8573 25.3708 80.9457C25.6653 81.0308 25.9157 81.1486 26.1219 81.2991C26.3248 81.4529 26.4802 81.6346 26.5882 81.844C26.6962 82.0535 26.7502 82.2809 26.7502 82.5264H25.3855C25.3855 82.438 25.3708 82.3562 25.3413 82.2809C25.3119 82.2024 25.2677 82.132 25.2088 82.0698C25.127 81.988 25.0157 81.9226 24.875 81.8735C24.7375 81.8244 24.5706 81.7998 24.3743 81.7998C24.2074 81.7998 24.0617 81.8162 23.9374 81.8489C23.813 81.8817 23.7115 81.9275 23.633 81.9864C23.561 82.0387 23.5054 82.1009 23.4661 82.1729C23.4301 82.2417 23.4121 82.3153 23.4121 82.3938C23.4121 82.4724 23.4285 82.546 23.4612 82.6147C23.4939 82.6802 23.5528 82.7391 23.6379 82.7915C23.7197 82.8471 23.8326 82.8978 23.9766 82.9436C24.1206 82.9862 24.3039 83.0238 24.5264 83.0566C24.8472 83.1089 25.145 83.176 25.4199 83.2578C25.6948 83.3396 25.9321 83.4444 26.1317 83.572C26.3313 83.7029 26.4868 83.8616 26.5981 84.0482C26.7126 84.2315 26.7699 84.4507 26.7699 84.706C26.7699 84.9416 26.7126 85.1593 26.5981 85.3589C26.4868 85.5553 26.3281 85.7254 26.1219 85.8694C25.9124 86.0134 25.6604 86.1264 25.3659 86.2082C25.0713 86.2867 24.7424 86.326 24.3792 86.326C23.9799 86.326 23.6264 86.2736 23.3188 86.1689C23.0145 86.0642 22.7592 85.9267 22.553 85.7565C22.3468 85.5896 22.1897 85.3998 22.0817 85.1871C21.977 84.9711 21.9246 84.7551 21.9246 84.5391H23.2255C23.2354 84.6831 23.2746 84.8075 23.3434 84.9122C23.4121 85.0136 23.5005 85.0955 23.6084 85.1576C23.7164 85.2231 23.8392 85.2705 23.9766 85.3C24.1174 85.3295 24.2614 85.3442 24.4086 85.3442C24.5854 85.3442 24.7392 85.3295 24.8701 85.3C25.0043 85.2673 25.1139 85.2247 25.199 85.1724C25.2808 85.12 25.3413 85.0595 25.3806 84.9907C25.4232 84.922 25.4444 84.8467 25.4444 84.7649ZM35.1844 79.6104V80.9113H37.1677V81.9177H35.1844V84.2004C35.1844 84.3935 35.2057 84.5555 35.2482 84.6864C35.294 84.814 35.3579 84.9155 35.4397 84.9907C35.5215 85.0693 35.6197 85.1249 35.7342 85.1576C35.852 85.1904 35.9829 85.2067 36.1269 85.2067C36.2317 85.2067 36.338 85.2018 36.446 85.192C36.5573 85.1822 36.6637 85.1691 36.7651 85.1527C36.8633 85.1396 36.9549 85.1249 37.04 85.1085C37.1284 85.0922 37.2037 85.0758 37.2658 85.0595L37.3984 85.9971C37.3035 86.0527 37.1922 86.1018 37.0646 86.1444C36.9369 86.1836 36.8011 86.2164 36.6571 86.2425C36.5131 86.2687 36.3626 86.2884 36.2055 86.3014C36.0517 86.3178 35.8995 86.326 35.7489 86.326C35.4577 86.326 35.1926 86.2884 34.9537 86.2131C34.718 86.1345 34.5168 86.0134 34.3499 85.8498C34.1797 85.6894 34.0488 85.4849 33.9571 85.2362C33.8655 84.9842 33.8197 84.6831 33.8197 84.3329V81.9177H32.6071V80.9113H33.8197V79.6104H35.1844ZM45.9209 86.3211C45.5118 86.3211 45.1404 86.254 44.8066 86.1198C44.4727 85.9856 44.1864 85.8024 43.9475 85.57C43.7086 85.3409 43.5237 85.0709 43.3927 84.76C43.2651 84.4458 43.2013 84.1104 43.2013 83.7536V83.5573C43.2013 83.1515 43.2651 82.7817 43.3927 82.4478C43.5204 82.1107 43.6987 81.8211 43.9278 81.5789C44.1569 81.3368 44.4286 81.1486 44.7427 81.0144C45.0569 80.8802 45.3989 80.8131 45.7687 80.8131C46.1516 80.8131 46.492 80.8769 46.7898 81.0046C47.0909 81.1289 47.3462 81.3057 47.5556 81.5347C47.7618 81.7638 47.9189 82.0404 48.0269 82.3644C48.1349 82.6851 48.1889 83.0402 48.1889 83.4296V84.0089H44.5856V84.0236C44.6315 84.2364 44.6904 84.4082 44.7624 84.5391C44.8344 84.6667 44.9309 84.7829 45.052 84.8876C45.1764 84.9956 45.3187 85.0791 45.4791 85.138C45.6395 85.1969 45.8145 85.2264 46.0044 85.2264C46.2727 85.2264 46.5329 85.1756 46.7849 85.0742C47.0369 84.9727 47.2414 84.8205 47.3985 84.6176L48.0809 85.354C47.9074 85.5994 47.6325 85.822 47.2562 86.0216C46.8798 86.2213 46.4347 86.3211 45.9209 86.3211ZM45.7589 81.9177C45.6051 81.9177 45.4644 81.9455 45.3367 82.0011C45.2091 82.0535 45.0978 82.1304 45.0029 82.2318C44.9047 82.3333 44.8229 82.4544 44.7575 82.5951C44.692 82.7358 44.6429 82.8929 44.6102 83.0664H46.8487V82.9584C46.8487 82.8144 46.8225 82.6786 46.7702 82.5509C46.7178 82.4233 46.6458 82.312 46.5542 82.2171C46.4625 82.1255 46.3496 82.0535 46.2155 82.0011C46.0845 81.9455 45.9324 81.9177 45.7589 81.9177ZM54.8558 80.9113L54.8951 81.5544C54.9965 81.3253 55.1356 81.1453 55.3123 81.0144C55.4923 80.8802 55.71 80.8131 55.9652 80.8131C56.0896 80.8131 56.2009 80.8278 56.2991 80.8573C56.3972 80.8868 56.4823 80.9326 56.5543 80.9948C56.61 81.0406 56.6574 81.0962 56.6967 81.1617C56.7392 81.2238 56.7752 81.2958 56.8047 81.3777C56.8505 81.2991 56.9012 81.2288 56.9569 81.1666C57.0158 81.1011 57.0796 81.0455 57.1483 80.9997C57.2334 80.9408 57.33 80.8949 57.438 80.8622C57.546 80.8295 57.6638 80.8131 57.7914 80.8131C57.9518 80.8131 58.1007 80.8426 58.2381 80.9015C58.3789 80.9604 58.5016 81.0537 58.6063 81.1813C58.7078 81.3122 58.7863 81.4807 58.8419 81.6869C58.9009 81.8898 58.9303 82.1386 58.9303 82.4331V86.2229H57.6883V82.4282C57.6883 82.3267 57.6769 82.2433 57.654 82.1778C57.6343 82.1124 57.6065 82.06 57.5705 82.0207C57.5345 81.9847 57.492 81.9602 57.4429 81.9471C57.397 81.9307 57.3496 81.9226 57.3005 81.9226C57.2481 81.9226 57.2007 81.9291 57.1581 81.9422C57.1189 81.9553 57.0812 81.9733 57.0452 81.9962C57.0158 82.0191 56.9896 82.0453 56.9667 82.0747C56.9438 82.1009 56.9241 82.132 56.9078 82.168C56.9078 82.1746 56.9078 82.1893 56.9078 82.2122C56.9078 82.2351 56.9078 82.2662 56.9078 82.3055V86.2229H55.7051V82.4233C55.7051 82.3218 55.6952 82.2384 55.6756 82.1729C55.656 82.1075 55.6298 82.0567 55.5971 82.0207C55.5611 81.9847 55.5202 81.9602 55.4743 81.9471C55.4285 81.9307 55.3794 81.9226 55.3271 81.9226C55.2682 81.9226 55.2158 81.9324 55.17 81.952C55.1242 81.9717 55.0832 81.9995 55.0472 82.0355C55.0211 82.0617 54.9982 82.0927 54.9785 82.1287C54.9589 82.1647 54.9409 82.204 54.9245 82.2466V86.2229H53.6825V80.9113H54.8558ZM68.0959 84.7649C68.0959 84.6831 68.0763 84.6111 68.037 84.5489C68.001 84.4867 67.9356 84.4278 67.8406 84.3722C67.7425 84.3198 67.6132 84.2707 67.4528 84.2249C67.2925 84.1791 67.0896 84.1333 66.8441 84.0875C66.5332 84.0253 66.2485 83.9484 65.9899 83.8567C65.7347 83.7618 65.5154 83.6473 65.3321 83.5131C65.1488 83.3822 65.0048 83.23 64.9001 83.0566C64.7987 82.8831 64.7479 82.6835 64.7479 82.4577C64.7479 82.2384 64.8003 82.0289 64.905 81.8293C65.0098 81.6297 65.1603 81.4546 65.3567 81.304C65.553 81.1535 65.7919 81.034 66.0734 80.9457C66.3548 80.8573 66.6723 80.8131 67.0257 80.8131C67.3956 80.8131 67.7277 80.8573 68.0223 80.9457C68.3168 81.0308 68.5672 81.1486 68.7734 81.2991C68.9763 81.4529 69.1317 81.6346 69.2397 81.844C69.3477 82.0535 69.4017 82.2809 69.4017 82.5264H68.037C68.037 82.438 68.0223 82.3562 67.9928 82.2809C67.9634 82.2024 67.9192 82.132 67.8603 82.0698C67.7785 81.988 67.6672 81.9226 67.5265 81.8735C67.389 81.8244 67.2221 81.7998 67.0257 81.7998C66.8588 81.7998 66.7132 81.8162 66.5888 81.8489C66.4645 81.8817 66.363 81.9275 66.2845 81.9864C66.2125 82.0387 66.1568 82.1009 66.1176 82.1729C66.0816 82.2417 66.0636 82.3153 66.0636 82.3938C66.0636 82.4724 66.0799 82.546 66.1127 82.6147C66.1454 82.6802 66.2043 82.7391 66.2894 82.7915C66.3712 82.8471 66.4841 82.8978 66.6281 82.9436C66.7721 82.9862 66.9554 83.0238 67.1779 83.0566C67.4986 83.1089 67.7965 83.176 68.0714 83.2578C68.3463 83.3396 68.5835 83.4444 68.7832 83.572C68.9828 83.7029 69.1383 83.8616 69.2495 84.0482C69.3641 84.2315 69.4214 84.4507 69.4214 84.706C69.4214 84.9416 69.3641 85.1593 69.2495 85.3589C69.1383 85.5553 68.9795 85.7254 68.7734 85.8694C68.5639 86.0134 68.3119 86.1264 68.0174 86.2082C67.7228 86.2867 67.3939 86.326 67.0306 86.326C66.6314 86.326 66.2779 86.2736 65.9703 86.1689C65.6659 86.0642 65.4107 85.9267 65.2045 85.7565C64.9983 85.5896 64.8412 85.3998 64.7332 85.1871C64.6285 84.9711 64.5761 84.7551 64.5761 84.5391H65.877C65.8868 84.6831 65.9261 84.8075 65.9948 84.9122C66.0636 85.0136 66.1519 85.0955 66.2599 85.1576C66.3679 85.2231 66.4907 85.2705 66.6281 85.3C66.7688 85.3295 66.9128 85.3442 67.0601 85.3442C67.2368 85.3442 67.3906 85.3295 67.5216 85.3C67.6557 85.2673 67.7654 85.2247 67.8505 85.1724C67.9323 85.12 67.9928 85.0595 68.0321 84.9907C68.0746 84.922 68.0959 84.8467 68.0959 84.7649ZM89.8095 80.8131C90.0156 80.8131 90.2055 80.8278 90.3789 80.8573C90.5556 80.8835 90.698 80.9129 90.806 80.9457L90.6047 82.3055C90.4247 82.2629 90.2398 82.2318 90.05 82.2122C89.8635 82.1893 89.6851 82.1778 89.5149 82.1778C89.3382 82.1778 89.1778 82.1942 89.0338 82.2269C88.8931 82.2564 88.7671 82.3022 88.6558 82.3644C88.5217 82.4364 88.4071 82.528 88.3122 82.6393C88.2173 82.7506 88.1387 82.8815 88.0766 83.032V86.2229H86.7118V80.9113H87.9833L88.0373 81.6624L88.0471 81.7802C88.2631 81.4791 88.5217 81.2435 88.8227 81.0733C89.1238 80.8998 89.4527 80.8131 89.8095 80.8131ZM99.2353 86.3211C98.8262 86.3211 98.4547 86.254 98.1209 86.1198C97.7871 85.9856 97.5007 85.8024 97.2618 85.57C97.0229 85.3409 96.838 85.0709 96.7071 84.76C96.5795 84.4458 96.5156 84.1104 96.5156 83.7536V83.5573C96.5156 83.1515 96.5795 82.7817 96.7071 82.4478C96.8347 82.1107 97.0131 81.8211 97.2422 81.5789C97.4713 81.3368 97.7429 81.1486 98.0571 81.0144C98.3713 80.8802 98.7133 80.8131 99.0831 80.8131C99.466 80.8131 99.8063 80.8769 100.104 81.0046C100.405 81.1289 100.661 81.3057 100.87 81.5347C101.076 81.7638 101.233 82.0404 101.341 82.3644C101.449 82.6851 101.503 83.0402 101.503 83.4296V84.0089H97.9V84.0236C97.9458 84.2364 98.0047 84.4082 98.0767 84.5391C98.1487 84.6667 98.2453 84.7829 98.3664 84.8876C98.4907 84.9956 98.6331 85.0791 98.7934 85.138C98.9538 85.1969 99.1289 85.2264 99.3187 85.2264C99.5871 85.2264 99.8472 85.1756 100.099 85.0742C100.351 84.9727 100.556 84.8205 100.713 84.6176L101.395 85.354C101.222 85.5994 100.947 85.822 100.571 86.0216C100.194 86.2213 99.7491 86.3211 99.2353 86.3211ZM99.0733 81.9177C98.9194 81.9177 98.7787 81.9455 98.6511 82.0011C98.5234 82.0535 98.4122 82.1304 98.3173 82.2318C98.2191 82.3333 98.1373 82.4544 98.0718 82.5951C98.0064 82.7358 97.9573 82.8929 97.9245 83.0664H100.163V82.9584C100.163 82.8144 100.137 82.6786 100.085 82.5509C100.032 82.4233 99.9602 82.312 99.8685 82.2171C99.7769 82.1255 99.664 82.0535 99.5298 82.0011C99.3989 81.9455 99.2467 81.9177 99.0733 81.9177ZM110.639 86.2229C110.607 86.1574 110.579 86.0822 110.556 85.9971C110.533 85.912 110.513 85.822 110.497 85.7271C110.422 85.8089 110.335 85.8858 110.237 85.9578C110.139 86.0298 110.031 86.092 109.913 86.1444C109.792 86.2 109.659 86.2425 109.515 86.272C109.371 86.3047 109.216 86.3211 109.049 86.3211C108.777 86.3211 108.527 86.2818 108.298 86.2033C108.072 86.1247 107.877 86.0151 107.714 85.8744C107.55 85.7336 107.422 85.5667 107.331 85.3736C107.239 85.1773 107.193 84.9645 107.193 84.7355C107.193 84.4409 107.251 84.1807 107.365 83.9549C107.48 83.7258 107.651 83.5376 107.881 83.3904C108.087 83.2562 108.34 83.1547 108.641 83.086C108.946 83.014 109.294 82.978 109.687 82.978H110.448V82.6638C110.448 82.5395 110.428 82.4282 110.389 82.33C110.35 82.2286 110.291 82.1418 110.212 82.0698C110.13 81.9946 110.027 81.9373 109.903 81.898C109.782 81.8555 109.64 81.8342 109.476 81.8342C109.332 81.8342 109.208 81.8522 109.103 81.8882C108.998 81.9209 108.913 81.9684 108.848 82.0306C108.789 82.0862 108.744 82.1533 108.715 82.2318C108.689 82.3104 108.676 82.3971 108.676 82.492H107.311C107.311 82.2662 107.36 82.0518 107.458 81.8489C107.56 81.646 107.707 81.4677 107.9 81.3138C108.09 81.16 108.322 81.0389 108.597 80.9506C108.875 80.8589 109.193 80.8131 109.55 80.8131C109.87 80.8131 110.168 80.8524 110.443 80.9309C110.721 81.0095 110.962 81.1257 111.165 81.2795C111.368 81.4333 111.526 81.628 111.641 81.8637C111.755 82.096 111.813 82.366 111.813 82.6737V84.9515C111.813 85.2362 111.831 85.4718 111.867 85.6584C111.903 85.8449 111.955 86.0053 112.024 86.1394V86.2229H110.639ZM109.338 85.2656C109.476 85.2656 109.604 85.2493 109.721 85.2165C109.839 85.1838 109.946 85.1413 110.04 85.0889C110.135 85.0365 110.217 84.9776 110.286 84.9122C110.355 84.8435 110.409 84.7747 110.448 84.706V83.7929H109.751C109.538 83.7929 109.356 83.8142 109.206 83.8567C109.055 83.896 108.933 83.9516 108.838 84.0236C108.743 84.0989 108.672 84.1889 108.627 84.2936C108.581 84.3951 108.558 84.5064 108.558 84.6275C108.558 84.7224 108.574 84.8107 108.607 84.8925C108.643 84.9711 108.694 85.0382 108.759 85.0938C108.825 85.1462 108.905 85.1887 109 85.2215C109.098 85.2509 109.211 85.2656 109.338 85.2656ZM117.841 83.5278C117.841 83.1253 117.887 82.7571 117.979 82.4233C118.074 82.0895 118.211 81.8031 118.391 81.5642C118.571 81.3253 118.789 81.1404 119.044 81.0095C119.303 80.8786 119.597 80.8131 119.928 80.8131C120.206 80.8131 120.45 80.8638 120.659 80.9653C120.872 81.0635 121.06 81.2042 121.224 81.3875V78.6826H122.593V86.2229H121.361L121.292 85.6682C121.126 85.8744 120.929 86.0347 120.703 86.1493C120.478 86.2638 120.216 86.3211 119.918 86.3211C119.594 86.3211 119.303 86.254 119.044 86.1198C118.789 85.9824 118.573 85.7942 118.396 85.5553C118.216 85.3164 118.079 85.0333 117.984 84.706C117.889 84.3755 117.841 84.0171 117.841 83.6309V83.5278ZM119.206 83.6309C119.206 83.8535 119.224 84.0613 119.26 84.2544C119.299 84.4442 119.362 84.6095 119.447 84.7502C119.532 84.8942 119.641 85.0071 119.776 85.0889C119.91 85.1707 120.073 85.2116 120.266 85.2116C120.502 85.2116 120.697 85.1609 120.851 85.0595C121.008 84.958 121.132 84.8189 121.224 84.6422V82.492C121.132 82.312 121.009 82.1729 120.856 82.0747C120.702 81.9733 120.509 81.9226 120.276 81.9226C120.083 81.9226 119.918 81.9651 119.78 82.0502C119.646 82.132 119.537 82.2449 119.452 82.3889C119.366 82.5362 119.304 82.708 119.265 82.9044C119.226 83.0975 119.206 83.3053 119.206 83.5278V83.6309ZM129.486 88.3682C129.355 88.3682 129.241 88.36 129.142 88.3436C129.048 88.3273 128.941 88.3027 128.823 88.27L128.99 87.2293C129.046 87.2293 129.116 87.2309 129.201 87.2342C129.29 87.2407 129.36 87.244 129.412 87.244C129.52 87.244 129.615 87.2096 129.697 87.1409C129.782 87.0754 129.854 87.0034 129.913 86.9249C129.972 86.8464 130.015 86.7874 130.041 86.7482C130.07 86.7089 130.105 86.6533 130.144 86.5813L130.458 85.9971L128.21 80.9113H129.702L130.92 84.0236L131.067 84.5636L131.268 84.0335L132.481 80.9113H133.988L131.293 87.0182C131.234 87.1523 131.157 87.298 131.062 87.4551C130.97 87.6122 130.854 87.7578 130.713 87.892C130.573 88.0262 130.401 88.1391 130.198 88.2307C129.998 88.3223 129.761 88.3682 129.486 88.3682Z" fill="white"/>
</svg>
