<svg width="255" height="66" viewBox="0 0 255 66" fill="none" xmlns="http://www.w3.org/2000/svg">
<path d="M31.0372 25.2654L35.2661 25.2654L20.027 0.197021L15.9886 0.197021L0.749512 25.2654H4.67358L8.25477 19.3221L27.4561 19.3221L31.0372 25.2654ZM9.93108 16.5029L17.8173 3.39724H17.8935L25.7798 16.5029L9.93108 16.5029Z" fill="white"/>
<path d="M62.1545 25.2654H65.5833V3.20675H65.6214L87.7562 25.2654H91.2993V0.197021L87.8705 0.197021V20.465H87.7943L67.4501 0.197021L62.1545 0.197021L62.1545 25.2654Z" fill="white"/>
<path d="M119.988 25.2654L123.57 25.2654V0.197021L119.988 0.197021V25.2654Z" fill="white"/>
<path d="M152.257 25.2654H155.686V2.74957H155.762L167.801 25.2654H170.506L182.469 2.74957H182.507V25.2654H186.088V0.197021L180.183 0.197021L169.249 21.1508H169.211L158.239 0.197021L152.257 0.197021V25.2654Z" fill="white"/>
<path d="M243.276 25.2654H247.505L232.266 0.197021L228.227 0.197021L212.988 25.2654H216.912L220.494 19.3221L239.695 19.3221L243.276 25.2654ZM222.17 16.5029L230.056 3.39724H230.132L238.019 16.5029L222.17 16.5029Z" fill="white"/>
<path d="M14.6803 57.3796L13.4575 47.3216H14.6733L15.3987 54.2572L15.4401 54.6579L15.5161 54.2434L16.7319 47.3216H17.8441L19.0669 54.2503L19.1428 54.6579L19.1843 54.2434L19.9096 47.3216H21.1185L19.8958 57.3796H18.5902L17.3675 50.2229L17.2984 49.8015L17.2224 50.2298L15.9928 57.3796H14.6803ZM29.194 52.9309C29.1894 53.2901 29.1572 53.6539 29.0973 54.0223C29.042 54.3862 28.9545 54.7385 28.8348 55.0793C28.7151 55.4201 28.5608 55.7378 28.372 56.0326C28.1878 56.3273 27.9667 56.5852 27.7088 56.8063C27.4509 57.0273 27.1538 57.2023 26.8177 57.3313C26.4861 57.4556 26.113 57.5178 25.6986 57.5178C25.2841 57.5178 24.9087 57.4556 24.5725 57.3313C24.241 57.2023 23.9462 57.0273 23.6883 56.8063C23.4304 56.5852 23.2071 56.3273 23.0182 56.0326C22.8294 55.7332 22.6751 55.4132 22.5554 55.0724C22.4311 54.7316 22.339 54.3793 22.2791 54.0154C22.2192 53.6516 22.187 53.2901 22.1824 52.9309V51.7841C22.187 51.4249 22.2169 51.0634 22.2722 50.6996C22.332 50.3311 22.4242 49.9765 22.5485 49.6357C22.6682 49.2949 22.8202 48.9772 23.0044 48.6824C23.1932 48.3831 23.4166 48.1206 23.6745 47.8949C23.9324 47.6739 24.2271 47.5012 24.5587 47.3768C24.8949 47.2479 25.2703 47.1834 25.6847 47.1834C26.0992 47.1834 26.4746 47.2479 26.8108 47.3768C27.1469 47.5012 27.444 47.6739 27.7019 47.8949C27.9598 48.116 28.1808 48.3762 28.3651 48.6755C28.5539 48.9703 28.7105 49.288 28.8348 49.6288C28.9545 49.9696 29.042 50.3242 29.0973 50.6927C29.1572 51.0611 29.1894 51.4249 29.194 51.7841V52.9309ZM27.9299 51.7703C27.9252 51.5308 27.9091 51.2822 27.8815 51.0243C27.8539 50.7617 27.8078 50.5015 27.7433 50.2436C27.6743 49.9904 27.5844 49.7486 27.4739 49.5183C27.3634 49.2834 27.2252 49.0762 27.0594 48.8966C26.8936 48.7216 26.6979 48.5834 26.4723 48.4821C26.2466 48.3762 25.9841 48.3232 25.6847 48.3232C25.39 48.3232 25.1298 48.3762 24.9041 48.4821C24.6785 48.588 24.4827 48.7285 24.317 48.9035C24.1512 49.0831 24.013 49.2903 23.9025 49.5252C23.7919 49.7555 23.7044 49.9973 23.64 50.2506C23.5709 50.5085 23.5202 50.7687 23.488 51.0312C23.4604 51.2891 23.4442 51.5354 23.4396 51.7703V52.9309C23.4442 53.1657 23.4604 53.4144 23.488 53.6769C23.5202 53.9394 23.5709 54.1973 23.64 54.4506C23.709 54.7085 23.7989 54.9549 23.9094 55.1898C24.0199 55.4247 24.1581 55.6296 24.3239 55.8046C24.4897 55.9842 24.6854 56.127 24.911 56.2329C25.1367 56.3388 25.3992 56.3918 25.6986 56.3918C25.9979 56.3918 26.2604 56.3388 26.4861 56.2329C26.7163 56.127 26.9144 55.9842 27.0802 55.8046C27.2414 55.6296 27.3749 55.427 27.4808 55.1967C27.5914 54.9618 27.6812 54.7154 27.7502 54.4575C27.8147 54.2042 27.8585 53.9463 27.8815 53.6838C27.9091 53.4213 27.9252 53.1703 27.9299 52.9309V51.7703ZM34.4787 53.2763H32.4684V57.3796H31.1973V47.3216H34.1471C34.6168 47.3308 35.0589 47.3975 35.4734 47.5219C35.8879 47.6462 36.2517 47.8327 36.5649 48.0814C36.8734 48.3301 37.1152 48.6433 37.2902 49.0209C37.4698 49.394 37.5596 49.8338 37.5596 50.3404C37.5596 50.6673 37.5113 50.9667 37.4146 51.2384C37.3225 51.5101 37.1935 51.7565 37.0277 51.9776C36.8619 52.1986 36.6639 52.3943 36.4336 52.5647C36.2034 52.7351 35.9501 52.8802 35.6737 52.9999L37.8083 57.2967L37.8014 57.3796H36.4544L34.4787 53.2763ZM32.4684 52.2263H34.1816C34.4671 52.2216 34.7366 52.1779 34.9899 52.095C35.2431 52.0075 35.4665 51.8832 35.6599 51.722C35.8488 51.5608 35.9984 51.365 36.109 51.1348C36.2195 50.8999 36.2747 50.6305 36.2747 50.3265C36.2747 50.0042 36.2218 49.7232 36.1159 49.4838C36.0099 49.2397 35.8626 49.0347 35.6737 48.8689C35.4849 48.7078 35.2593 48.5857 34.9968 48.5028C34.7389 48.4199 34.4556 48.3762 34.1471 48.3716H32.4684V52.2263ZM41.0896 56.2951H46.0082V57.3796H39.8117V47.3216H41.0896V56.2951ZM48.0115 57.3796V47.3216H50.3395C50.7309 47.3262 51.0994 47.3676 51.4448 47.4459C51.7948 47.5196 52.1172 47.6255 52.4119 47.7637C52.8218 47.9525 53.1833 48.2012 53.4965 48.5097C53.8142 48.8137 54.0675 49.166 54.2563 49.5667C54.4267 49.9075 54.5557 50.2805 54.6432 50.6858C54.7353 51.091 54.7837 51.5239 54.7883 51.9845V52.7236C54.7883 53.1657 54.7445 53.5848 54.657 53.9809C54.5741 54.3769 54.4521 54.7408 54.2909 55.0724C54.1251 55.4178 53.9155 55.7309 53.6623 56.0118C53.409 56.2928 53.1257 56.5323 52.8126 56.7303C52.481 56.9375 52.1056 57.0964 51.6866 57.2069C51.2721 57.3175 50.8231 57.375 50.3395 57.3796H48.0115ZM49.3102 48.3716V56.3365H50.3395C50.7079 56.3319 51.0418 56.2859 51.3412 56.1984C51.6451 56.1109 51.9145 55.9865 52.1494 55.8253C52.3981 55.6595 52.6122 55.4569 52.7918 55.2174C52.9761 54.9733 53.1211 54.7016 53.227 54.4023C53.3192 54.1582 53.3882 53.8957 53.4343 53.6148C53.4803 53.3292 53.5057 53.0322 53.5103 52.7236V51.9707C53.5057 51.6575 53.478 51.3581 53.4274 51.0726C53.3813 50.7825 53.3099 50.5131 53.2132 50.2644C53.0889 49.942 52.9208 49.6519 52.7089 49.394C52.5017 49.1315 52.2461 48.9196 51.9422 48.7584C51.7257 48.6387 51.4839 48.5466 51.2168 48.4821C50.9497 48.413 50.6573 48.3762 50.3395 48.3716H49.3102ZM61.9035 54.8375C61.9035 54.5289 61.8321 54.2687 61.6894 54.0569C61.5512 53.845 61.3716 53.6654 61.1506 53.5181C60.9295 53.3753 60.6854 53.2555 60.4183 53.1588C60.1558 53.0621 59.9025 52.9746 59.6584 52.8963C59.3038 52.7812 58.9423 52.643 58.5739 52.4818C58.21 52.3161 57.8785 52.118 57.5791 51.8878C57.2751 51.6529 57.0265 51.3766 56.833 51.0588C56.6442 50.7364 56.5498 50.3588 56.5498 49.9259C56.5498 49.493 56.6442 49.1061 56.833 48.7653C57.0265 48.4245 57.2775 48.1367 57.586 47.9018C57.8946 47.667 58.2446 47.4896 58.636 47.3699C59.0275 47.2456 59.4212 47.1834 59.8173 47.1834C60.2548 47.1834 60.6762 47.2571 61.0815 47.4044C61.4867 47.5472 61.846 47.7498 62.1591 48.0124C62.4723 48.2749 62.7233 48.5926 62.9121 48.9657C63.1009 49.3387 63.1999 49.7555 63.2091 50.216H61.8966C61.8598 49.9259 61.7884 49.6634 61.6825 49.4285C61.5765 49.189 61.4361 48.9841 61.2611 48.8137C61.0861 48.6433 60.8765 48.512 60.6325 48.4199C60.393 48.3232 60.1213 48.2749 59.8173 48.2749C59.5732 48.2749 59.3337 48.3094 59.0989 48.3785C58.8686 48.4476 58.6637 48.5512 58.4841 48.6893C58.2998 48.8275 58.1525 48.9979 58.0419 49.2005C57.936 49.4032 57.8831 49.638 57.8831 49.9052C57.8877 50.1953 57.9613 50.4417 58.1041 50.6443C58.2469 50.8423 58.4288 51.0104 58.6498 51.1486C58.8663 51.2868 59.1012 51.4019 59.3545 51.494C59.6124 51.5861 59.8541 51.6667 60.0798 51.7358C60.4528 51.8509 60.8259 51.9914 61.1989 52.1572C61.5719 52.3184 61.9127 52.5256 62.2213 52.7789C62.5253 53.0138 62.7693 53.3016 62.9535 53.6424C63.1424 53.9832 63.2368 54.3769 63.2368 54.8237C63.2368 55.275 63.1355 55.6688 62.9328 56.0049C62.7348 56.3411 62.4769 56.6198 62.1591 56.8408C61.8414 57.0665 61.4821 57.2369 61.0815 57.352C60.6808 57.4625 60.2801 57.5178 59.8795 57.5178C59.4005 57.5178 58.9285 57.4372 58.4633 57.276C58.0028 57.1148 57.6021 56.8823 57.2613 56.5783C56.9574 56.3158 56.7156 56.0095 56.536 55.6595C56.361 55.3049 56.2666 54.9112 56.2528 54.4783H57.5584C57.5998 54.7914 57.685 55.0701 57.814 55.3141C57.9429 55.5536 58.1087 55.7563 58.3114 55.922C58.514 56.0924 58.7466 56.2214 59.0091 56.3089C59.2762 56.3918 59.5663 56.4332 59.8795 56.4332C60.1282 56.4332 60.3722 56.4033 60.6117 56.3434C60.8558 56.279 61.0723 56.1799 61.2611 56.0464C61.4499 55.9174 61.6042 55.7539 61.7239 55.5559C61.8437 55.3533 61.9035 55.1138 61.9035 54.8375Z" fill="white"/>
<rect x="0.938621" y="38.7616" width="75.0293" height="26.2362" stroke="#D9D9D9" stroke-width="0.378218"/>
<path d="M93.4304 57.3796V47.3216H96.4215C96.836 47.3262 97.2413 47.3814 97.6374 47.4873C98.0334 47.5887 98.3857 47.7475 98.6943 47.964C99.0028 48.1804 99.2492 48.4568 99.4334 48.793C99.6177 49.1292 99.7075 49.5321 99.7029 50.0019C99.6983 50.2644 99.6545 50.5038 99.5716 50.7203C99.4933 50.9368 99.3851 51.1302 99.2469 51.3006C99.1042 51.4756 98.9453 51.6229 98.7703 51.7427C98.5999 51.8624 98.3926 51.9753 98.1486 52.0812V52.1019C98.4018 52.1618 98.6459 52.27 98.8808 52.4266C99.1157 52.5832 99.3091 52.7559 99.4611 52.9447C99.6223 53.1519 99.7466 53.3845 99.8341 53.6424C99.9262 53.9003 99.9723 54.1789 99.9723 54.4783C99.9769 54.948 99.8871 55.3625 99.7029 55.7217C99.5186 56.0809 99.2723 56.3803 98.9637 56.6198C98.6551 56.8638 98.2982 57.0504 97.893 57.1793C97.4923 57.3083 97.0778 57.375 96.6495 57.3796H93.4304ZM94.7153 52.6753V56.2951H96.684C96.9512 56.2905 97.2045 56.2467 97.4439 56.1638C97.6834 56.0763 97.8953 55.9566 98.0795 55.8046C98.2637 55.6526 98.4088 55.4661 98.5147 55.2451C98.6252 55.024 98.6805 54.773 98.6805 54.4921C98.6851 54.2066 98.6367 53.9533 98.5354 53.7322C98.4387 53.5111 98.3028 53.3223 98.1278 53.1657C97.9528 53.0138 97.7479 52.8963 97.513 52.8134C97.2781 52.7305 97.0248 52.6845 96.7531 52.6753H94.7153ZM94.7153 51.6114H96.4975C96.737 51.6068 96.9719 51.57 97.2022 51.5009C97.4324 51.4272 97.6374 51.3213 97.817 51.1831C97.9966 51.0496 98.1416 50.8838 98.2522 50.6858C98.3627 50.4877 98.418 50.2575 98.418 49.995C98.418 49.714 98.3627 49.4746 98.2522 49.2765C98.1462 49.0785 98.0035 48.915 97.8239 48.7861C97.6397 48.6617 97.4278 48.5696 97.1883 48.5097C96.9535 48.4499 96.7117 48.4176 96.463 48.413H94.7153V51.6114ZM107.474 52.7305H103.274V56.2951H108.172V57.3796H101.996V47.3216H108.11V48.413H103.274V51.646H107.474V52.7305ZM113.401 52.3713L115.695 47.3216H117.146L114.016 53.6286L113.996 57.3796H112.807L112.787 53.6286L109.657 47.3216H111.115L113.401 52.3713ZM125.477 52.9309C125.472 53.2901 125.44 53.6539 125.38 54.0223C125.325 54.3862 125.237 54.7385 125.117 55.0793C124.998 55.4201 124.843 55.7378 124.655 56.0326C124.47 56.3273 124.249 56.5852 123.991 56.8063C123.734 57.0273 123.437 57.2023 123.1 57.3313C122.769 57.4556 122.396 57.5178 121.981 57.5178C121.567 57.5178 121.191 57.4556 120.855 57.3313C120.524 57.2023 120.229 57.0273 119.971 56.8063C119.713 56.5852 119.49 56.3273 119.301 56.0326C119.112 55.7332 118.958 55.4132 118.838 55.0724C118.714 54.7316 118.622 54.3793 118.562 54.0154C118.502 53.6516 118.47 53.2901 118.465 52.9309V51.7841C118.47 51.4249 118.5 51.0634 118.555 50.6996C118.615 50.3311 118.707 49.9765 118.831 49.6357C118.951 49.2949 119.103 48.9772 119.287 48.6824C119.476 48.3831 119.699 48.1206 119.957 47.8949C120.215 47.6739 120.51 47.5012 120.841 47.3768C121.178 47.2479 121.553 47.1834 121.967 47.1834C122.382 47.1834 122.757 47.2479 123.093 47.3768C123.43 47.5012 123.727 47.6739 123.985 47.8949C124.242 48.116 124.464 48.3762 124.648 48.6755C124.837 48.9703 124.993 49.288 125.117 49.6288C125.237 49.9696 125.325 50.3242 125.38 50.6927C125.44 51.0611 125.472 51.4249 125.477 51.7841V52.9309ZM124.213 51.7703C124.208 51.5308 124.192 51.2822 124.164 51.0243C124.137 50.7617 124.09 50.5015 124.026 50.2436C123.957 49.9904 123.867 49.7486 123.757 49.5183C123.646 49.2834 123.508 49.0762 123.342 48.8966C123.176 48.7216 122.981 48.5834 122.755 48.4821C122.529 48.3762 122.267 48.3232 121.967 48.3232C121.673 48.3232 121.412 48.3762 121.187 48.4821C120.961 48.588 120.765 48.7285 120.6 48.9035C120.434 49.0831 120.296 49.2903 120.185 49.5252C120.075 49.7555 119.987 49.9973 119.923 50.2506C119.854 50.5085 119.803 50.7687 119.771 51.0312C119.743 51.2891 119.727 51.5354 119.722 51.7703V52.9309C119.727 53.1657 119.743 53.4144 119.771 53.6769C119.803 53.9394 119.854 54.1973 119.923 54.4506C119.992 54.7085 120.082 54.9549 120.192 55.1898C120.303 55.4247 120.441 55.6296 120.607 55.8046C120.772 55.9842 120.968 56.127 121.194 56.2329C121.419 56.3388 121.682 56.3918 121.981 56.3918C122.281 56.3918 122.543 56.3388 122.769 56.2329C122.999 56.127 123.197 55.9842 123.363 55.8046C123.524 55.6296 123.658 55.427 123.764 55.1967C123.874 54.9618 123.964 54.7154 124.033 54.4575C124.097 54.2042 124.141 53.9463 124.164 53.6838C124.192 53.4213 124.208 53.1703 124.213 52.9309V51.7703ZM133.732 57.3796H132.433L128.53 49.8637L128.509 57.3796H127.218V47.3216H128.516L132.419 54.8237L132.44 47.3216H133.732V57.3796ZM135.797 57.3796V47.3216H138.125C138.517 47.3262 138.885 47.3676 139.231 47.4459C139.581 47.5196 139.903 47.6255 140.198 47.7637C140.608 47.9525 140.969 48.2012 141.282 48.5097C141.6 48.8137 141.853 49.166 142.042 49.5667C142.213 49.9075 142.342 50.2805 142.429 50.6858C142.521 51.091 142.569 51.5239 142.574 51.9845V52.7236C142.574 53.1657 142.53 53.5848 142.443 53.9809C142.36 54.3769 142.238 54.7408 142.077 55.0724C141.911 55.4178 141.701 55.7309 141.448 56.0118C141.195 56.2928 140.912 56.5323 140.598 56.7303C140.267 56.9375 139.891 57.0964 139.472 57.2069C139.058 57.3175 138.609 57.375 138.125 57.3796H135.797ZM137.096 48.3716V56.3365H138.125C138.494 56.3319 138.828 56.2859 139.127 56.1984C139.431 56.1109 139.7 55.9865 139.935 55.8253C140.184 55.6595 140.398 55.4569 140.578 55.2174C140.762 54.9733 140.907 54.7016 141.013 54.4023C141.105 54.1582 141.174 53.8957 141.22 53.6148C141.266 53.3292 141.291 53.0322 141.296 52.7236V51.9707C141.291 51.6575 141.264 51.3581 141.213 51.0726C141.167 50.7825 141.096 50.5131 140.999 50.2644C140.875 49.942 140.707 49.6519 140.495 49.394C140.288 49.1315 140.032 48.9196 139.728 48.7584C139.512 48.6387 139.27 48.5466 139.003 48.4821C138.736 48.413 138.443 48.3762 138.125 48.3716H137.096Z" fill="white"/>
<rect x="76.3462" y="38.7616" width="82.7919" height="26.2362" stroke="#D9D9D9" stroke-width="0.378218"/>
<path d="M181.543 53.2763H179.533V57.3796H178.262V47.3216H181.211C181.681 47.3308 182.123 47.3975 182.538 47.5219C182.952 47.6462 183.316 47.8327 183.629 48.0814C183.938 48.3301 184.18 48.6433 184.355 49.0209C184.534 49.394 184.624 49.8338 184.624 50.3404C184.624 50.6673 184.576 50.9667 184.479 51.2384C184.387 51.5101 184.258 51.7565 184.092 51.9776C183.926 52.1986 183.728 52.3943 183.498 52.5647C183.268 52.7351 183.014 52.8802 182.738 52.9999L184.873 57.2967L184.866 57.3796H183.519L181.543 53.2763ZM179.533 52.2263H181.246C181.532 52.2216 181.801 52.1779 182.054 52.095C182.308 52.0075 182.531 51.8832 182.724 51.722C182.913 51.5608 183.063 51.365 183.173 51.1348C183.284 50.8999 183.339 50.6305 183.339 50.3265C183.339 50.0042 183.286 49.7232 183.18 49.4838C183.074 49.2397 182.927 49.0347 182.738 48.8689C182.549 48.7078 182.324 48.5857 182.061 48.5028C181.803 48.4199 181.52 48.3762 181.211 48.3716H179.533V52.2263ZM192.244 52.7305H188.043V56.2951H192.941V57.3796H186.765V47.3216H192.879V48.413H188.043V51.646H192.244V52.7305ZM200.008 54.7753H196.651L195.843 57.3796H194.565L197.811 47.3216H198.882L202.074 57.3796H200.803L200.008 54.7753ZM196.996 53.6631H199.67L198.343 49.2972L196.996 53.6631ZM205.148 56.2951H210.066V57.3796H203.87V47.3216H205.148V56.2951ZM212.201 47.3216H218.28V48.4337H215.869V56.2744H218.28V57.3796H212.201V56.2744H214.556V48.4337H212.201V47.3216ZM227.481 48.413H224.373V57.3796H223.129V48.413H220.021V47.3216H227.481V48.413ZM232.158 52.3713L234.452 47.3216H235.902L232.773 53.6286L232.752 57.3796H231.564L231.543 53.6286L228.414 47.3216H229.872L232.158 52.3713Z" fill="white"/>
<rect x="159.516" y="38.7616" width="94.9902" height="26.2362" stroke="#D9D9D9" stroke-width="0.378218"/>
</svg>
