<svg width="47" height="41" viewBox="0 0 47 41" fill="none" xmlns="http://www.w3.org/2000/svg">
<path fill-rule="evenodd" clip-rule="evenodd" d="M22.6739 1.41476C23.0685 1.74832 23.4176 2.15872 23.7003 2.64598L37.7193 26.8158C38.2809 27.7848 37.5828 29.0013 36.4597 29.0013H15.5308V27.8678H36.4597C36.7082 27.8678 36.8629 27.5987 36.7387 27.3844L22.7199 3.21484C22.7199 3.21482 22.7199 3.21487 22.7199 3.21484C21.3642 0.878389 17.988 0.877834 16.6303 3.21508L2.58309 27.4184C2.58308 27.4184 2.5831 27.4184 2.58309 27.4184C1.55319 29.1932 1.53214 31.3794 2.528 33.1736C2.528 33.1736 2.52801 33.1736 2.528 33.1736L5.39026 38.3296C5.91758 39.2781 6.91674 39.8665 8.00252 39.8665H37.6608C38.6284 39.8665 39.535 39.3976 40.0952 38.6104L44.1854 32.8624C45.1098 31.5639 45.1877 29.8429 44.382 28.4668L44.3819 28.4667L29.9347 3.77274C29.0805 2.31194 27.5165 1.41476 25.8238 1.41476H22.6739ZM19.6761 0.328779V0.28125H25.8238C27.9192 0.28125 29.8556 1.39194 30.9132 3.20045L45.3601 27.8941C45.3602 27.8942 45.3602 27.8942 45.3602 27.8943C46.3916 29.6559 46.2917 31.8582 45.1089 33.5197L41.0188 39.2676C40.2464 40.353 38.9959 41 37.6608 41H8.00252C6.50483 41 5.12664 40.1883 4.39954 38.8803L4.39938 38.88L1.53696 33.7237C0.347391 31.5806 0.372535 28.9694 1.6027 26.8495L15.6501 2.64592L15.6502 2.64574C16.5474 1.10113 18.1119 0.328739 19.6761 0.328779Z" fill="#FF5C00"/>
<path fill-rule="evenodd" clip-rule="evenodd" d="M18.3437 9.8886C18.93 8.88023 20.3861 8.88023 20.9724 9.8886L20.9727 9.8891L31.566 28.151L30.5855 28.7198L19.9925 10.4584C19.8433 10.2017 19.4729 10.2017 19.3236 10.4583C19.3236 10.4583 19.3236 10.4582 19.3236 10.4583L5.42749 34.3985C5.42747 34.3985 5.42751 34.3984 5.42749 34.3985C4.72438 35.6103 4.70899 37.1034 5.39001 38.3286L4.39926 38.8793C3.52382 37.3043 3.544 35.386 4.44707 33.8296L18.3437 9.8886Z" fill="#FF5C00"/>
<path fill-rule="evenodd" clip-rule="evenodd" d="M12.2615 32.8897L22.778 14.6941L23.7594 15.2613L13.2422 33.4581C13.119 33.6706 13.2724 33.9397 13.5212 33.9397H42.0974C42.9271 33.9397 43.707 33.5378 44.1867 32.8618L45.1111 33.5179C44.4181 34.4943 43.2933 35.0732 42.0974 35.0732H13.5212C12.4021 35.0732 11.699 33.8608 12.2613 32.89L12.2612 32.8903L12.7519 33.1739L12.2615 32.8897Z" fill="#FF5C00"/>
</svg>
