<svg width="63" height="69" viewBox="0 0 63 69" fill="none" xmlns="http://www.w3.org/2000/svg">
<g id="Group">
<path id="Vector" d="M55.9231 29.0159C55.1479 22.1791 50.8795 16.2634 44.7572 12.7188C44.7446 12.4825 44.7256 12.2462 44.6813 12.0251C44.5674 11.0407 44.2731 9.99859 43.7415 8.71124C43.2258 7.58744 42.5518 6.53328 41.7292 5.56395C40.8496 4.56128 39.8086 3.68888 38.641 2.97096C36.2331 1.45942 33.1166 0.756623 30.0826 1.05045C26.9217 1.36851 23.8747 2.8437 21.7266 5.09743C19.7364 7.14512 18.4961 9.89561 18.2588 12.7127C12.1301 16.2508 7.8552 22.1726 7.07679 29.0153C3.09953 30.5662 0.463867 34.2738 0.463867 38.4239V54.7149C0.463867 59.3101 3.63429 63.2721 8.21581 64.4958C9.5289 66.6101 11.9335 68.0338 14.6832 68.0338H48.32C51.0728 68.0338 53.4775 66.6071 54.7937 64.4958C59.3689 63.269 62.5362 59.3068 62.5362 54.718V38.427C62.5362 34.2771 59.9003 30.5668 55.9231 29.0159ZM2.26381 38.4246C2.26381 35.2622 4.10526 32.4057 6.9593 30.9608C6.95613 31.0637 6.94981 31.1667 6.94981 31.2697L7.03207 43.1529H2.26384L2.26381 38.4246ZM2.26381 44.8767H7.04467L7.07631 49.5961H2.26378L2.26381 44.8767ZM2.26381 54.7157V51.3201H7.08582L7.15227 60.8226C7.15227 61.3466 7.21555 61.8585 7.32629 62.3523C4.27931 60.9892 2.26381 58.0539 2.26381 54.7157ZM23.0517 6.26173C24.9121 4.31098 27.5446 3.03565 30.2689 2.76308C32.8951 2.51166 35.5877 3.11446 37.6633 4.41698C38.6853 5.04402 39.5902 5.80437 40.3433 6.66156C41.0552 7.50061 41.6437 8.42147 42.0835 9.37568C42.441 10.2481 42.6752 10.9902 42.8112 11.7021C42.0613 11.3507 41.2893 11.0326 40.4951 10.7539C40.4255 10.554 40.3496 10.351 40.2578 10.1269C39.8844 9.32722 39.4035 8.57595 38.8182 7.87928C38.1886 7.16743 37.445 6.54339 36.6096 6.02848C34.8884 4.94105 32.7147 4.44724 30.4809 4.65025C28.2249 4.87744 26.0448 5.93457 24.504 7.54916C23.6244 8.4549 22.9535 9.56056 22.5233 10.751C21.7354 11.0297 20.9665 11.3447 20.2198 11.693C20.6185 9.67253 21.6025 7.75209 23.0517 6.26173ZM38.1857 10.0512C36.0594 9.50897 33.8193 9.21213 31.5 9.21213C29.1776 9.21213 26.9311 9.50899 24.7986 10.0542C25.0865 9.57258 25.4282 9.11823 25.8237 8.7153C27.0767 7.40368 28.8391 6.54641 30.652 6.36471C32.4714 6.20114 34.2306 6.59493 35.6228 7.47339C36.3157 7.9005 36.9264 8.40938 37.4232 8.97585C37.7143 9.31512 37.961 9.67861 38.1857 10.0512ZM15.0343 17.2576C19.1824 13.3681 25.0264 10.9358 31.5 10.9358C37.9735 10.9358 43.8176 13.3681 47.9624 17.2576V27.2509H45.3078C44.8142 20.7837 38.812 15.6586 31.5029 15.6586C24.194 15.6586 18.1882 20.7839 17.6949 27.2509H15.0371L15.0343 17.2576ZM15.0343 28.974H19.4608V28.1137C19.4608 22.1978 24.8618 17.3813 31.4998 17.3813C38.1377 17.3813 43.5388 22.1946 43.5388 28.1137V28.974H47.9653V36.6802C47.9653 41.9085 43.5229 46.1587 38.0647 46.1587H24.9338C19.4757 46.1587 15.0331 41.9087 15.0331 36.6802L15.0343 28.974ZM43.748 66.311H19.2519V62.5215C19.2519 61.8036 19.8626 61.222 20.6093 61.222H42.3846C43.1345 61.222 43.742 61.8066 43.742 62.5215L43.748 66.311ZM43.748 59.8044C43.3335 59.6136 42.8779 59.4984 42.3906 59.4984L20.6121 59.4954C20.1248 59.4954 19.666 59.6105 19.2547 59.8014V58.617C19.2547 57.8991 19.8654 57.3175 20.6121 57.3175H42.3873C43.134 57.3175 43.7416 57.8991 43.7447 58.611L43.748 59.8044ZM43.748 55.9029C43.3335 55.7121 42.8779 55.5969 42.3906 55.5969H20.6121C20.1248 55.5969 19.666 55.7121 19.2515 55.9029V54.6216C19.2515 53.9037 19.8622 53.3221 20.6089 53.3221H42.3842C43.134 53.3221 43.7416 53.9067 43.7416 54.6216L43.748 55.9029ZM54.0503 60.8223C54.0503 63.8484 51.478 66.3111 48.3171 66.3111H45.5453V58.62V58.6109V54.6216C45.5453 52.9525 44.1279 51.5985 42.3876 51.5985H20.6124C18.8691 51.5985 17.4547 52.9556 17.4547 54.6216V66.3109H14.683C11.5253 66.3109 8.95287 63.8482 8.95287 60.8191L8.75037 31.2639C8.75037 26.7322 10.4178 22.543 13.237 19.1597V36.6805C13.237 42.8569 18.4862 47.882 24.9375 47.882H38.0684C44.5199 47.882 49.7689 42.8566 49.7689 36.6805L49.7657 19.1566C52.5817 22.5401 54.2524 26.7264 54.2524 31.2577L54.0503 60.8223ZM60.736 54.7155C60.736 58.0476 58.7236 60.9828 55.6798 62.352C55.7906 61.8613 55.8507 61.3524 55.8507 60.8314L55.914 51.3227H60.7328L60.736 54.7155ZM60.736 49.5962H55.9298L55.9614 44.8768H60.736L60.736 49.5962ZM60.736 43.1532H55.9709L56.0532 31.2638C56.0532 31.1638 56.0469 31.0639 56.0437 30.9609C58.8977 32.4088 60.736 35.2653 60.736 38.4247L60.736 43.1532Z" fill="#B5B5B5"/>
<path id="Vector_2" d="M31.4999 28.4374C34.009 28.4374 36.0467 26.5533 36.0467 24.239C36.0467 21.9247 34.0059 20.0405 31.4999 20.0405C28.9908 20.0405 26.9531 21.9247 26.9531 24.239C26.9531 26.5533 28.9939 28.4374 31.4999 28.4374ZM32.4017 21.9126C33.4743 22.2488 34.2494 23.1606 34.2494 24.239C34.2494 25.3204 33.4742 26.2291 32.4017 26.5684V21.9126ZM30.6013 21.9126V26.5684C29.5287 26.2291 28.7535 25.3204 28.7535 24.239C28.7535 23.1576 29.5287 22.2488 30.6013 21.9126Z" fill="#B5B5B5"/>
</g>
</svg>
