<svg width="39" height="48" viewBox="0 0 39 48" fill="none" xmlns="http://www.w3.org/2000/svg">
<path d="M28.6308 7.45387H27.285V7.01841C27.285 3.19104 24.1712 0.0771484 20.3438 0.0771484H18.5652C14.7378 0.0771484 11.6239 3.19098 11.6239 7.01841V7.45387H10.2756C4.72209 7.45387 0.202148 11.9738 0.202148 17.5273V37.8554C0.202148 43.4089 4.72209 47.9289 10.2756 47.9289H28.6307C34.1842 47.9289 38.7041 43.4089 38.7041 37.8554V17.5273C38.7041 11.9738 34.1869 7.45387 28.6308 7.45387ZM15.6562 7.01841C15.6562 5.41297 16.9626 4.10658 18.568 4.10658H20.3466C21.952 4.10658 23.2584 5.41297 23.2584 7.01841V7.45387H15.6563L15.6562 7.01841ZM34.6748 37.8551C34.6748 41.1893 31.9649 43.8992 28.6308 43.8992H10.2783C6.94416 43.8992 4.23427 41.1893 4.23427 37.8551V26.1841C5.6692 27.2649 7.39007 27.9784 9.27098 28.1673V35.5363H13.3003V28.2177H25.6141V35.5343H29.6435L29.6408 28.1653C31.5218 27.979 33.2426 27.2628 34.6749 26.1821L34.6748 37.8551ZM34.6748 18.1435C34.6748 21.4777 31.9649 24.1875 28.6308 24.1875H10.2783C6.94416 24.1875 4.23427 21.4777 4.23427 18.1435V17.527C4.23427 14.1955 6.94416 11.483 10.2783 11.483H28.6334C31.9676 11.483 34.6775 14.1955 34.6775 17.527L34.6748 18.1435Z" fill="white"/>
</svg>
