<svg xmlns="http://www.w3.org/2000/svg" width="50" height="47" viewBox="0 0 50 47" fill="none">
  <path d="M28.3695 19.4494C25.8808 17.5767 24.2603 14.6006 24.2603 11.2573C24.2603 5.61573 28.8577 1.00435 34.4976 0.994343L34.5015 0.993629H34.5198C40.1678 0.993629 44.7755 5.60881 44.7755 11.2566C44.7755 14.6069 43.1549 17.5834 40.6627 19.4561C46.0135 21.825 49.7645 27.1845 49.7649 33.4M28.3695 19.4494L49.5588 33.401M28.3695 19.4494C27.456 19.8532 26.5907 20.3446 25.7828 20.9121C25.2697 15.738 20.8859 11.668 15.5785 11.668C9.93047 11.668 5.32284 16.2759 5.32284 21.9236C5.32284 25.2738 6.9467 28.2537 9.44224 30.1266C4.08835 32.4922 0.340538 37.8485 0.336891 44.0678L0.336841 44.1532L0.338416 44.1548L28.3695 19.4494ZM49.7649 33.4C49.7649 33.4004 49.7649 33.4007 49.7649 33.401H49.5588M49.7649 33.4C49.7649 33.3997 49.7649 33.3994 49.7649 33.3992L49.5588 33.401M49.7649 33.4C49.7688 33.849 49.5932 34.2816 49.2787 34.6003C48.9638 34.9192 48.5344 35.0991 48.0847 35.0991C47.6352 35.0991 47.2059 34.9193 46.8911 34.6005M49.5588 33.401C49.5624 33.7955 49.4082 34.1757 49.132 34.4555C48.8559 34.7352 48.4793 34.8931 48.0847 34.8931C47.6902 34.8931 47.3136 34.7352 47.0375 34.4555M46.8911 34.6005C46.8913 34.6008 46.8915 34.601 46.8918 34.6012L47.0375 34.4555M46.8911 34.6005C46.5926 34.3018 46.4238 33.9039 46.4061 33.4879M46.8911 34.6005C46.891 34.6004 46.8909 34.6003 46.8908 34.6003L47.0375 34.4555M47.0375 34.4555L46.4061 33.4879M46.4061 33.4879L46.4613 33.5432L46.4649 33.5467L46.6107 33.401L46.6035 33.401L46.4046 33.3992C46.4043 33.4288 46.4048 33.4584 46.4061 33.4879ZM46.4061 33.4879L46.401 33.4828V33.3974C46.401 26.8185 41.0989 21.5128 34.5164 21.5128C30.1074 21.5128 26.276 23.905 24.2198 27.4615M46.4061 33.4879L46.6071 33.3974C46.6071 26.7047 41.2127 21.3067 34.5164 21.3067C30.0295 21.3067 26.1308 23.7421 24.0398 27.3611M24.2198 27.4615C24.2204 27.4604 24.2209 27.4594 24.2215 27.4584L24.0398 27.3611M24.2198 27.4615C24.1602 27.5722 24.0893 27.6714 24.0079 27.7621M24.2198 27.4615C24.2193 27.4624 24.2188 27.4633 24.2183 27.4642L24.0398 27.3611M24.0398 27.3611C23.986 27.4615 23.9215 27.5512 23.8461 27.6337M24.0079 27.7621L21.3032 30.1766C21.378 30.2075 21.4526 30.239 21.5268 30.2711C21.5915 30.2249 21.6556 30.178 21.7192 30.1303C21.6466 30.0983 21.5738 30.0667 21.5006 30.0358C22.4082 29.3719 23.2037 28.5606 23.8461 27.6337M24.0079 27.7621C24.0047 27.7656 24.0015 27.7691 23.9983 27.7726L23.8461 27.6337M24.0079 27.7621C24.0104 27.7584 24.013 27.7548 24.0155 27.7511L23.8461 27.6337M27.6727 44.0715H27.6691L27.4666 44.0734C27.4672 44.1425 27.472 44.2107 27.4808 44.2776H27.6691H27.6727V44.0715ZM3.69378 44.0663C3.69368 44.0643 3.69358 44.0624 3.69348 44.0605L3.4877 44.0715H3.69377C3.69377 44.0698 3.69378 44.068 3.69378 44.0663ZM21.4605 25.5432L21.4588 25.546C21.4375 25.582 21.4143 25.6186 21.3889 25.6586C21.3641 25.6975 21.3371 25.7398 21.3118 25.7827L21.4028 25.8365L21.3379 25.826L21.301 25.801C21.3022 25.7986 21.3031 25.797 21.3036 25.7963C21.3038 25.7958 21.304 25.7955 21.304 25.7956C21.3039 25.7956 21.3038 25.7959 21.3035 25.7964L21.3006 25.8007C21.3004 25.801 21.3002 25.8013 21.3 25.8016C20.0601 27.6331 17.9676 28.8305 15.5783 28.8305C11.7506 28.8305 8.68275 25.7561 8.68275 21.9278C8.68275 18.0999 11.7503 15.0323 15.5783 15.0323C19.4065 15.0323 22.481 18.1002 22.481 21.9279C22.481 23.2584 22.105 24.491 21.4605 25.5432ZM21.3004 25.8023L21.3352 25.8256L21.2937 25.8188C21.296 25.8119 21.2984 25.8065 21.3 25.803C21.3001 25.8028 21.3002 25.8025 21.3004 25.8023ZM34.5159 4.35469C38.3438 4.35469 41.4151 7.42931 41.4151 11.2574C41.4151 15.0854 38.3474 18.1566 34.5159 18.1566C30.688 18.1566 27.6204 15.089 27.6204 11.2574C27.6204 7.42917 30.6882 4.35469 34.5159 4.35469Z" fill="white" stroke="white" stroke-width="0.412156"/>
</svg>