<svg width="74" height="74" viewBox="0 0 74 74" fill="none" xmlns="http://www.w3.org/2000/svg">
<g id="np_community_4563443_000000 1">
<g id="Group">
<path id="Vector" d="M60.8821 51.1378C60.4225 52.1987 58.6245 53.5428 59.9513 54.6123C61.4603 55.52 62.1685 53.2538 62.8709 52.32C63.1859 51.7708 63.0009 51.0713 62.4575 50.7504C61.9141 50.4267 61.2116 50.6002 60.8821 51.1378Z" fill="#ABABAB"/>
<path id="Vector_2" d="M63.4841 48.6551C65.1635 49.1754 65.3139 46.8138 65.7735 45.7298V45.7327C65.9585 45.1199 65.6145 44.4753 65.0017 44.2903C63.3396 43.9059 63.3887 46.1403 62.8308 47.1549C62.5967 47.7504 62.8886 48.421 63.4841 48.6551Z" fill="#ABABAB"/>
<path id="Vector_3" d="M60.6512 18.4453C60.2523 17.9568 59.5383 17.8788 59.0411 18.269C58.5468 18.6563 58.4543 19.3732 58.8359 19.8733C59.6019 20.596 59.9314 22.102 61.1021 22.1887H61.0992C61.5241 22.1829 61.9115 21.9488 62.111 21.5759C62.3104 21.203 62.2931 20.7492 62.0618 20.3936C61.6224 19.7316 61.1483 19.0755 60.6512 18.4453Z" fill="#ABABAB"/>
<path id="Vector_4" d="M66.794 41.0354C66.82 39.8647 67.6757 37.6505 65.9268 37.4221C64.2271 37.4597 64.7995 39.6045 64.5017 40.7261C64.4266 41.3562 64.8688 41.9257 65.4961 42.0124C66.1234 42.0962 66.7015 41.6626 66.794 41.0354Z" fill="#ABABAB"/>
<path id="Vector_5" d="M64.2786 31.8839C64.64 32.9678 64.1543 35.026 65.7471 35.1156C66.0737 35.1156 66.3859 34.9768 66.6056 34.734C66.8253 34.4912 66.9323 34.1646 66.8976 33.8409C66.649 32.6961 66.9554 30.3432 65.2037 30.5369C64.5764 30.6525 64.163 31.2566 64.2786 31.8839Z" fill="#ABABAB"/>
<path id="Vector_6" d="M63.12 27.6057C63.3368 28.2069 63.9987 28.5191 64.6 28.3023C66.2101 27.5797 64.7561 25.7123 64.3918 24.5965C64.1201 24.0242 63.4437 23.7727 62.8656 24.0358C62.2904 24.2959 62.0331 24.9723 62.2846 25.5505C62.5881 26.2211 62.8685 26.9119 63.12 27.6057Z" fill="#ABABAB"/>
<path id="Vector_7" d="M25.0735 11.8201C25.935 11.5542 26.779 11.2391 27.6057 10.8807C28.207 10.6668 28.5192 10.0019 28.3024 9.40067C27.5768 7.79057 25.7153 9.24457 24.5937 9.60879C24.1081 9.84004 23.8422 10.3777 23.9578 10.9038C24.0705 11.4299 24.533 11.8114 25.0735 11.8201Z" fill="#ABABAB"/>
<path id="Vector_8" d="M19.1594 15.4127C20.1335 15.2826 20.8042 14.3085 21.6742 13.8633V13.8662C21.9286 13.6957 22.1049 13.4297 22.1656 13.1291C22.2263 12.8285 22.1656 12.5163 21.9951 12.2619C20.9111 10.8686 19.4369 12.7331 18.4453 13.3488C18.0667 13.6552 17.9193 14.1698 18.0811 14.6294C18.2401 15.0919 18.6709 15.4041 19.1594 15.4127Z" fill="#ABABAB"/>
<path id="Vector_9" d="M31.67 9.74156C32.8031 9.39757 35.1764 9.87163 35.1069 8.13146C34.789 6.39417 32.6239 7.36253 31.459 7.44639H31.4619C30.8837 7.5649 30.4877 8.09967 30.5397 8.68648C30.5947 9.27617 31.0804 9.72705 31.67 9.74156Z" fill="#ABABAB"/>
<path id="Vector_10" d="M38.5179 9.29091C39.31 9.32271 40.0991 9.42677 40.8853 9.50771H40.8825C41.4866 9.49904 41.9809 9.03076 42.0214 8.42664C42.059 7.82539 41.6312 7.29644 41.0357 7.20683C39.8593 7.18081 37.6595 6.32519 37.4253 8.07404C37.3906 8.71286 37.8791 9.25917 38.5179 9.29091Z" fill="#ABABAB"/>
<path id="Vector_11" d="M45.0623 10.4377C45.9093 10.64 46.7215 11.1054 47.58 11.2471C48.1292 11.2384 48.5975 10.8453 48.7016 10.3048C48.8027 9.76425 48.5137 9.22662 48.0049 9.01557C46.8631 8.70338 44.9322 7.35345 44.2905 8.99533C44.1055 9.60814 44.4495 10.2527 45.0623 10.4377Z" fill="#ABABAB"/>
<path id="Vector_12" d="M51.1407 13.1181C52.0079 13.5141 52.719 14.4044 53.67 14.5374L53.6671 14.5403C54.1672 14.5316 54.6037 14.205 54.754 13.728C54.9072 13.2539 54.7396 12.7336 54.3378 12.4388C53.3116 11.8693 51.7507 10.0887 50.7361 11.534C50.4094 12.0832 50.5915 12.7915 51.1407 13.1181Z" fill="#ABABAB"/>
<path id="Vector_13" d="M10.8804 46.3943C10.7792 46.1052 10.5653 45.8682 10.2849 45.7381C10.0074 45.6052 9.68947 45.5936 9.40042 45.6977C7.79033 46.4203 9.24433 48.2877 9.60855 49.4034C9.88027 49.9729 10.5566 50.2215 11.1319 49.9613C11.7043 49.6983 11.9644 49.0277 11.7158 48.4495C11.4123 47.7789 11.1319 47.088 10.8804 46.3943Z" fill="#ABABAB"/>
<path id="Vector_14" d="M9.7215 42.1165C9.58564 41.3909 9.47869 40.6509 9.40353 39.9195C9.32837 39.2894 8.76181 38.8385 8.13162 38.9049C7.50435 38.9714 7.0447 39.5293 7.10257 40.1595C7.36562 41.2695 7.01297 43.3825 8.58257 43.4837C8.92655 43.4837 9.2503 43.3305 9.46998 43.0645C9.68967 42.8015 9.78221 42.4546 9.7215 42.1165Z" fill="#ABABAB"/>
<path id="Vector_15" d="M10.5164 25.345C9.92379 25.1109 9.25318 25.4028 9.01905 25.9954C8.71264 27.1285 7.35405 29.071 8.99881 29.7098C10.6494 30.1029 10.6176 27.8569 11.1697 26.8452C11.4038 26.2497 11.1118 25.5791 10.5164 25.345Z" fill="#ABABAB"/>
<path id="Vector_16" d="M12.1236 23.4255C13.329 23.3475 13.5921 21.7605 14.3292 20.9974H14.3263C14.6963 20.4771 14.572 19.7545 14.0517 19.3874C12.537 18.4797 11.8374 20.743 11.1321 21.6797H11.1293C10.924 22.0381 10.9211 22.4774 11.1264 22.8388C11.3287 23.1972 11.7102 23.4226 12.1236 23.4255Z" fill="#ABABAB"/>
<path id="Vector_17" d="M7.20636 32.9649C7.16879 34.1414 6.32184 36.4366 8.13714 36.5782C9.78193 36.4799 9.19511 34.3784 9.49859 33.2742C9.57374 32.6441 9.13148 32.0746 8.50418 31.9879C7.87691 31.9041 7.29886 32.3377 7.20636 32.9649Z" fill="#ABABAB"/>
<path id="Vector_18" d="M15.1642 54.1275C14.3317 53.3065 13.7391 51.1559 12.262 52.0058C10.8687 53.0927 12.7216 54.5524 13.3459 55.5584L13.3488 55.5555C13.7477 56.044 14.4617 56.122 14.956 55.7318C15.4532 55.3416 15.5457 54.6276 15.1642 54.1275Z" fill="#ABABAB"/>
<path id="Vector_19" d="M48.4501 62.2843C47.4616 62.8942 45.2271 62.9607 45.6982 64.5997C46.4324 66.2126 48.2824 64.7558 49.4069 64.3915C49.9763 64.1227 50.2278 63.4435 49.9648 62.8682C49.7046 62.29 49.0312 62.0328 48.4501 62.2843Z" fill="#ABABAB"/>
<path id="Vector_20" d="M42.1165 64.2786C41.0209 64.6313 38.8212 64.1659 38.8905 65.8684C38.9541 66.4552 39.4484 66.9033 40.0381 66.9033C41.2204 66.6576 43.6427 66.9929 43.4635 65.2036C43.345 64.5792 42.7437 64.163 42.1165 64.2786Z" fill="#ABABAB"/>
<path id="Vector_21" d="M28.9379 63.5624C28.2355 63.3514 27.5302 63.1028 26.8423 62.834V62.8311C26.2497 62.6085 25.5906 62.9033 25.3594 63.4901C25.1281 64.0798 25.4114 64.7446 25.9953 64.9846C26.8365 65.343 27.7094 65.6263 28.6026 65.8257C29.1692 65.8141 29.6462 65.395 29.7299 64.8343C29.8138 64.2735 29.4785 63.7358 28.9379 63.5624Z" fill="#ABABAB"/>
<path id="Vector_22" d="M35.4825 64.7093C34.7454 64.6689 34.0025 64.5995 33.2712 64.5041V64.5012C32.6439 64.426 32.0744 64.8712 31.9906 65.4956C31.9068 66.1229 32.3404 66.701 32.9647 66.7935C33.7741 66.9004 34.6008 66.9814 35.4217 67.019C36.0432 67.0103 36.5433 66.5131 36.5607 65.8916C36.578 65.2731 36.1011 64.7498 35.4825 64.7093Z" fill="#ABABAB"/>
<path id="Vector_23" d="M22.8595 60.882C21.7929 60.4195 20.4603 58.6244 19.3879 59.9483C19.2116 60.1998 19.1393 60.5091 19.1913 60.8127C19.2434 61.1133 19.4139 61.385 19.6625 61.5613C20.4343 62.2059 21.3188 62.706 22.2698 63.0327C22.7844 63.0211 23.2324 62.6742 23.3683 62.1771C23.5041 61.6799 23.2989 61.1537 22.8595 60.882Z" fill="#ABABAB"/>
<path id="Vector_24" d="M54.1275 58.836C53.3181 59.657 51.1531 60.264 52.0058 61.7411C53.0984 63.1344 54.561 61.27 55.5555 60.6542V60.6513C56.044 60.2524 56.122 59.5384 55.7318 59.0441C55.3444 58.5498 54.6305 58.4574 54.1275 58.836Z" fill="#ABABAB"/>
<path id="Vector_25" d="M71.6876 9.2501C71.6876 7.03587 70.6325 4.95462 68.8462 3.64807C67.0597 2.34153 64.756 1.96864 62.6458 2.63923C60.5385 3.31275 58.8764 4.95173 58.1769 7.0503C57.4744 9.15175 57.8184 11.4585 59.1019 13.2622L54.1416 18.2225C44.8745 9.40616 29.1229 9.40912 19.8588 18.2225L14.8985 13.2622C16.182 11.4585 16.5259 9.15175 15.8235 7.0503C15.124 4.95173 13.4619 3.31271 11.3546 2.63923C9.24442 1.96861 6.94065 2.3415 5.15422 3.64807C3.36778 4.95462 2.31277 7.03587 2.31277 9.2501C2.33589 11.8343 3.78988 14.1902 6.08507 15.3753C8.38025 16.5605 11.1436 16.3755 13.2625 14.8983L18.2228 19.8586C9.40641 29.1257 9.40937 44.8773 18.2228 54.1414L13.2625 59.1017C11.4587 57.8182 9.152 57.4742 7.05054 58.1767C4.95198 58.8762 3.31295 60.5383 2.63948 62.6456C1.96885 64.7558 2.34174 67.0595 3.64832 68.846C4.95486 70.6324 7.03611 71.6874 9.25034 71.6874C11.8346 71.6643 14.1904 70.2103 15.3755 67.9151C16.5607 65.6199 16.3757 62.8566 14.8986 60.7377L19.8589 55.7774C29.1259 64.5938 44.8775 64.5908 54.1416 55.7774L59.1019 60.7377C57.0149 63.6746 57.5236 67.7215 60.2784 70.0484C63.0303 72.3753 67.1089 72.2048 69.6556 69.6553C72.2052 67.1086 72.3757 63.03 70.0488 60.278C67.7218 57.5232 63.6749 57.0145 60.7381 59.1015L55.7778 54.1413C64.5941 44.8742 64.5912 29.1226 55.7778 19.8585L60.7381 14.8982C62.8569 16.3753 65.6204 16.5603 67.9155 15.3752C70.2107 14.19 71.6645 11.8343 71.6876 9.2501ZM9.25012 13.8751C6.71214 13.852 4.6656 11.7881 4.6656 9.2501C4.6656 6.71212 6.71214 4.64818 9.25012 4.6251C11.7881 4.64822 13.8346 6.71212 13.8346 9.2501C13.8346 11.7881 11.7881 13.852 9.25012 13.8751ZM9.25012 69.3751C6.71214 69.352 4.6656 67.2881 4.6656 64.7501C4.6656 62.2121 6.71214 60.1482 9.25012 60.1251C11.7881 60.1482 13.8346 62.2121 13.8346 64.7501C13.8346 67.2881 11.7881 69.352 9.25012 69.3751ZM64.7501 60.1251C67.2881 60.1482 69.3346 62.2121 69.3346 64.7501C69.3346 67.2881 67.2881 69.352 64.7501 69.3751C62.2121 69.352 60.1656 67.2881 60.1656 64.7501C60.1656 62.2121 62.2121 60.1482 64.7501 60.1251ZM35.8442 60.0673C30.6729 59.8129 25.7388 57.8242 21.836 54.419C25.6777 47.8631 35.8442 50.6467 35.8442 58.2462V60.0673ZM23.1888 43.2205C23.394 36.4708 33.2135 36.4853 33.4304 43.2205C33.4043 46.0302 31.1179 48.2935 28.3082 48.2935C25.4984 48.2935 23.2148 46.0302 23.1888 43.2205ZM37.0001 53.6263C35.9971 51.7561 34.4217 50.2559 32.5023 49.3482C34.9218 47.6659 36.1214 44.7175 35.5664 41.8269C35.0114 38.9333 32.8029 36.6382 29.9354 35.9704C31.0512 33.0394 33.8638 31.0998 37.0001 31.0998C40.1365 31.0998 42.9491 33.0394 44.0648 35.9704C41.1973 36.6382 38.9889 38.9333 38.4339 41.8269C37.8789 44.7175 39.0785 47.6659 41.4979 49.3482C39.5785 50.2559 38.0031 51.7561 37.0001 53.6263ZM31.8779 23.6186C31.9039 20.8089 34.1904 18.5455 37.0001 18.5455C39.8098 18.5455 42.0963 20.8089 42.1223 23.6215C42.0963 26.4312 39.8098 28.6945 37.0001 28.6945C34.1904 28.6945 31.904 26.4312 31.8779 23.6186ZM45.3918 38.1292C52.3524 37.9587 52.6732 48.0615 45.6924 48.339C42.9405 48.3217 40.6974 46.1277 40.6165 43.3787C40.5355 40.6268 42.6457 38.3085 45.3918 38.1292ZM38.1566 60.0665V58.2455C38.1913 54.8635 40.4604 51.915 43.721 51.0189C46.9816 50.1229 50.4417 51.4988 52.1962 54.3865C48.2939 57.8119 43.3455 59.8121 38.1566 60.0665ZM60.1257 36.9993C60.1228 42.8644 57.8826 48.507 53.8618 52.7731C52.8732 51.2931 51.5001 50.1079 49.8871 49.3477C52.4367 47.5729 53.6161 44.4047 52.8529 41.3957C52.0869 38.3865 49.5374 36.1665 46.4502 35.8226C45.6669 33.1401 43.7764 30.9143 41.2529 29.7089C43.9152 27.8503 45.0627 24.4827 44.0886 21.3869C43.1144 18.2911 40.2441 16.1867 37.0008 16.1867C33.7575 16.1867 30.8871 18.2911 29.913 21.3869C28.9389 24.4827 30.0864 27.8504 32.7487 29.7089C30.2251 30.9143 28.3347 33.1401 27.5514 35.8226C24.467 36.1666 21.9175 38.3865 21.1515 41.3928C20.3855 44.4019 21.562 47.5672 24.1087 49.3448C22.4957 50.1022 21.1226 51.2873 20.134 52.7673C6.37448 38.3055 16.8532 13.813 37.0009 13.8737C43.1319 13.8795 49.0111 16.3191 53.3445 20.6551C57.6805 24.9911 60.1199 30.8684 60.1257 36.9993ZM64.7507 13.8743C62.2127 13.8511 60.1662 11.7872 60.1662 9.24926C60.1662 6.71129 62.2127 4.64735 64.7507 4.62426C67.2887 4.64739 69.3352 6.71129 69.3352 9.24926C69.3352 11.7872 67.2887 13.8512 64.7507 13.8743Z" fill="#ABABAB"/>
</g>
</g>
</svg>
