<svg width="96" height="96" viewBox="0 0 96 96" fill="none" xmlns="http://www.w3.org/2000/svg">
<g id="np_gamepad_5927797_000000 1">
<path id="Vector" d="M40.5004 46.5004C40.5004 46.8979 40.3429 47.2804 40.0617 47.5617C39.7804 47.843 39.3979 48.0004 39.0004 48.0004H36.0004V51.0004C36.0004 51.8292 35.3291 52.5004 34.5004 52.5004C33.6716 52.5004 33.0004 51.8292 33.0004 51.0004V48.0004H30.0004C29.1716 48.0004 28.5004 47.3292 28.5004 46.5004C28.5004 45.6717 29.1716 45.0004 30.0004 45.0004H33.0004V42.0004C33.0004 41.1717 33.6716 40.5004 34.5004 40.5004C35.3291 40.5004 36.0004 41.1717 36.0004 42.0004V45.0004H39.0004C39.3979 45.0004 39.7804 45.1579 40.0617 45.4392C40.343 45.7204 40.5004 46.1029 40.5004 46.5004ZM52.5004 55.5004H43.5004C42.6717 55.5004 42.0004 56.1717 42.0004 57.0004C42.0004 57.8292 42.6717 58.5004 43.5004 58.5004H52.5004C53.3292 58.5004 54.0004 57.8292 54.0004 57.0004C54.0004 56.1717 53.3292 55.5004 52.5004 55.5004ZM61.5004 48.0004C60.6717 48.0004 60.0004 48.6717 60.0004 49.5004V51.0004C60.0004 51.8292 60.6717 52.5004 61.5004 52.5004C62.3292 52.5004 63.0004 51.8292 63.0004 51.0004V49.5004C63.0004 49.1029 62.8429 48.7204 62.5617 48.4391C62.2804 48.1579 61.898 48.0004 61.5004 48.0004ZM66.0004 45.0004H64.5004C63.6717 45.0004 63.0004 45.6717 63.0004 46.5004C63.0004 47.3292 63.6717 48.0004 64.5004 48.0004H66.0004C66.8292 48.0004 67.5004 47.3292 67.5004 46.5004C67.5004 45.6717 66.8292 45.0004 66.0004 45.0004ZM61.5004 45.0004C61.8979 45.0004 62.2804 44.8429 62.5617 44.5617C62.843 44.2804 63.0005 43.8979 63.0005 43.5004V42.0004C63.0005 41.1716 62.3292 40.5004 61.5005 40.5004C60.6717 40.5004 60.0005 41.1716 60.0005 42.0004V43.5004C60.0005 43.8979 60.158 44.2804 60.4392 44.5617C60.7205 44.8429 61.1029 45.0004 61.5004 45.0004ZM58.5004 45.0004H57.0004C56.1717 45.0004 55.5004 45.6717 55.5004 46.5004C55.5004 47.3292 56.1717 48.0004 57.0004 48.0004H58.5004C59.3292 48.0004 60.0004 47.3292 60.0004 46.5004C60.0004 45.6717 59.3292 45.0004 58.5004 45.0004ZM78.3609 82.9799C76.9359 84.585 74.8959 85.4999 72.7509 85.4999H68.7309C65.5583 85.4999 62.7309 83.505 61.6658 80.5199L57.0008 67.5004C56.3633 65.7004 54.6646 64.5004 52.7558 64.5004H42.0009C39.9871 64.4967 38.2172 65.8316 37.6659 67.7704L34.156 80.0555C33.2447 83.2579 30.3309 85.4742 27.001 85.5005H23.251C21.1023 85.5155 19.051 84.608 17.6148 83.0067C16.1785 81.4054 15.4998 79.2643 15.751 77.1305L19.771 43.5007C20.5323 36.6757 26.2998 31.5122 33.1659 31.5007H45.931V27.0007C45.931 23.6857 48.6161 21.0007 51.931 21.0007H71.0715C71.8665 21.0007 72.6315 20.6857 73.194 20.1232C73.7565 19.5607 74.0715 18.7957 74.0715 18.0007V12.0007C74.0715 11.172 74.7427 10.5007 75.5715 10.5007C76.4002 10.5007 77.0715 11.172 77.0715 12.0007V18.0007C77.0715 19.5907 76.4377 21.117 75.3128 22.242C74.1878 23.367 72.6615 24.0007 71.0715 24.0007H51.931C50.2735 24.0007 48.931 25.3432 48.931 27.0007V31.5007H62.8356C69.7019 31.512 75.4693 36.6757 76.2305 43.5007L80.2055 77.2054C80.4305 79.3054 79.7597 81.4012 78.3609 82.9799ZM77.2209 77.4749L73.2609 43.7703C72.6347 38.4565 68.1121 34.4628 62.7604 34.5003H33.1655C27.8443 34.5003 23.363 38.4865 22.7409 43.7703L18.7809 77.4749C18.6309 78.7574 19.0359 80.0399 19.8984 81.0037C20.7572 81.9637 21.9909 82.5074 23.2809 82.4999H27.0009C29.0147 82.5037 30.7846 81.1687 31.3359 79.23L34.8458 66.9449C35.7571 63.7424 38.6709 61.5261 42.0008 61.4998H52.7413C55.9138 61.4998 58.7413 63.4948 59.8063 66.4798L64.5013 79.4994C65.1388 81.2994 66.8375 82.4994 68.7463 82.4994H72.7513C74.0414 82.5069 75.2751 81.9631 76.1338 81.0031C76.9963 80.0394 77.4013 78.7569 77.2513 77.4743L77.2209 77.4749Z" fill="#ABABAB"/>
</g>
</svg>
