<svg width="70" height="70" viewBox="0 0 70 70" fill="none" xmlns="http://www.w3.org/2000/svg">
<path d="M63.4376 41.5623H61.2501V40.4686C61.2501 39.8643 60.7607 39.3748 60.1564 39.3748C59.5521 39.3748 59.0626 39.8643 59.0626 40.4686V41.5623H56.8751C56.5333 41.5678 56.2134 41.7346 56.011 42.0108L48.9781 33.2608C48.8934 33.1596 48.7895 33.0748 48.6719 33.0092V17.2263C48.6719 15.0497 39.3752 0 35.0002 0C30.6252 0 21.3285 15.05 21.3285 17.2263V32.9651C21.2109 33.0307 21.107 33.1155 21.0222 33.2167L13.9893 41.9667C13.7788 41.7069 13.4589 41.5565 13.1252 41.562H10.9377C10.9377 40.9577 10.4483 40.4682 9.84399 40.4682C9.2397 40.4682 8.75024 40.9577 8.75024 41.562H6.56274C5.95845 41.562 5.46899 42.0514 5.46899 42.6557V60.1557C5.46899 60.4456 5.58384 60.7245 5.78892 60.9296C5.99399 61.1347 6.2729 61.2495 6.56277 61.2495H13.1253C13.4151 61.2495 13.694 61.1347 13.8991 60.9296C14.1042 60.7245 14.219 60.4456 14.219 60.1557V56.8745H21.3282V57.9682C21.3337 58.3538 21.5415 58.7065 21.8751 58.8979V61.2495C21.8751 61.5393 21.99 61.8182 22.195 62.0233C22.4001 62.2284 22.679 62.3433 22.9689 62.3433H30.6255C30.9153 62.3433 31.1942 62.2284 31.3993 62.0233C31.6044 61.8183 31.7193 61.5393 31.7193 61.2495V59.062H37.188V61.2495C37.188 61.5393 37.3028 61.8182 37.5079 62.0233C37.713 62.2284 37.9919 62.3433 38.2818 62.3433H45.9384C46.2282 62.3433 46.5071 62.2284 46.7122 62.0233C46.9173 61.8183 47.0322 61.5393 47.0322 61.2495V59.062H47.579C47.8689 59.062 48.1478 58.9471 48.3529 58.7421C48.558 58.537 48.6728 58.2581 48.6728 57.9682V56.8745H55.782V60.1557C55.782 60.4456 55.8968 60.7245 56.1019 60.9296C56.307 61.1347 56.5859 61.2495 56.8758 61.2495H63.4383C63.7281 61.2495 64.007 61.1346 64.2121 60.9296C64.4172 60.7245 64.532 60.4456 64.532 60.1557V42.6557C64.532 42.3659 64.4172 42.087 64.2121 41.8819C64.007 41.6768 63.7281 41.5619 63.4383 41.5619L63.4376 41.5623ZM12.031 59.0623H7.656V43.7498H12.031V59.0623ZM20.781 54.6873H14.2185V45.2261L20.781 37.0228V54.6873ZM34.9994 2.18733C37.6901 2.18733 46.156 15.2248 46.4836 17.2261V56.8748H23.5152V17.2919C23.8433 15.2248 32.3086 2.18733 34.9994 2.18733ZM29.5307 60.1557H24.0619V59.062H29.5307V60.1557ZM44.8432 60.1557H39.3744V59.062H44.8432V60.1557ZM49.2182 54.687V37.0232L55.7807 45.2265V54.6877L49.2182 54.687ZM62.3432 59.062H57.9682V43.7495H62.3432V59.062Z" fill="#B5B5B5"/>
<path d="M29.5317 41.5624H40.4692C40.7591 41.5624 41.038 41.4476 41.2431 41.2425C41.4482 41.0374 41.563 40.7585 41.563 40.4686V26.2502C41.563 22.6272 38.6235 19.6877 35.0005 19.6877C31.3774 19.6877 28.438 22.6272 28.438 26.2502V40.4686C28.438 40.7585 28.5528 41.0374 28.7579 41.2425C28.963 41.4476 29.2419 41.5624 29.5317 41.5624ZM30.6255 26.2499C30.6255 23.8327 32.5833 21.8749 35.0005 21.8749C37.4176 21.8749 39.3755 23.8327 39.3755 26.2499V39.3749H30.6255V26.2499Z" fill="#B5B5B5"/>
<path d="M17.5 28.4373C16.8957 28.4373 16.4062 28.9267 16.4062 29.531V30.6248C16.4062 31.2291 16.8957 31.7185 17.5 31.7185C18.1043 31.7185 18.5938 31.2291 18.5938 30.6248V29.531C18.5938 29.2412 18.4789 28.9623 18.2738 28.7572C18.0688 28.5521 17.7899 28.4373 17.5 28.4373Z" fill="#B5B5B5"/>
<path d="M18.5935 13.1248C18.5935 12.5205 18.1041 12.031 17.4998 12.031C16.8955 12.031 16.406 12.5205 16.406 13.1248V15.3123C16.406 15.9166 16.8955 16.406 17.4998 16.406C18.1041 16.406 18.5935 15.9166 18.5935 15.3123V13.1248Z" fill="#B5B5B5"/>
<path d="M18.5935 18.5933C18.5935 17.989 18.1041 17.4995 17.4998 17.4995C16.8955 17.4995 16.406 17.989 16.406 18.5933V20.7808C16.406 21.3851 16.8955 21.8745 17.4998 21.8745C18.1041 21.8745 18.5935 21.3851 18.5935 20.7808V18.5933Z" fill="#B5B5B5"/>
<path d="M18.5935 24.0623C18.5935 23.458 18.1041 22.9685 17.4998 22.9685C16.8955 22.9685 16.406 23.458 16.406 24.0623V26.2498C16.406 26.8541 16.8955 27.3435 17.4998 27.3435C18.1041 27.3435 18.5935 26.8541 18.5935 26.2498V24.0623Z" fill="#B5B5B5"/>
<path d="M52.5 28.4373C51.8957 28.4373 51.4062 28.9267 51.4062 29.531V30.6248C51.4062 31.2291 51.8957 31.7185 52.5 31.7185C53.1043 31.7185 53.5938 31.2291 53.5938 30.6248V29.531C53.5938 29.2412 53.4789 28.9623 53.2738 28.7572C53.0687 28.5521 52.7899 28.4373 52.5 28.4373Z" fill="#B5B5B5"/>
<path d="M53.5935 24.0623C53.5935 23.458 53.1041 22.9685 52.4998 22.9685C51.8955 22.9685 51.406 23.458 51.406 24.0623V26.2498C51.406 26.8541 51.8955 27.3435 52.4998 27.3435C53.1041 27.3435 53.5935 26.8541 53.5935 26.2498V24.0623Z" fill="#B5B5B5"/>
<path d="M53.5935 18.5933C53.5935 17.989 53.1041 17.4995 52.4998 17.4995C51.8955 17.4995 51.406 17.989 51.406 18.5933V20.7808C51.406 21.3851 51.8955 21.8745 52.4998 21.8745C53.1041 21.8745 53.5935 21.3851 53.5935 20.7808V18.5933Z" fill="#B5B5B5"/>
<path d="M53.5935 13.1248C53.5935 12.5205 53.1041 12.031 52.4998 12.031C51.8955 12.031 51.406 12.5205 51.406 13.1248V15.3123C51.406 15.9166 51.8955 16.406 52.4998 16.406C53.1041 16.406 53.5935 15.9166 53.5935 15.3123V13.1248Z" fill="#B5B5B5"/>
<path d="M61.25 29.5315C61.25 28.9272 60.7605 28.4377 60.1563 28.4377C59.552 28.4377 59.0625 28.9272 59.0625 29.5315V31.719C59.0625 32.3233 59.552 32.8127 60.1563 32.8127C60.7605 32.8127 61.25 32.3233 61.25 31.719V29.5315Z" fill="#B5B5B5"/>
<path d="M60.1567 33.9065C59.5524 33.9065 59.063 34.396 59.063 35.0003V37.1878C59.063 37.7921 59.5524 38.2815 60.1567 38.2815C60.761 38.2815 61.2505 37.7921 61.2505 37.1878V35.0003C61.2505 34.7104 61.1356 34.4315 60.9306 34.2264C60.7255 34.0213 60.4466 33.9065 60.1567 33.9065Z" fill="#B5B5B5"/>
<path d="M61.25 24.0623C61.25 23.458 60.7605 22.9685 60.1563 22.9685C59.552 22.9685 59.0625 23.458 59.0625 24.0623V26.2498C59.0625 26.8541 59.552 27.3435 60.1563 27.3435C60.7605 27.3435 61.25 26.8541 61.25 26.2498V24.0623Z" fill="#B5B5B5"/>
<path d="M10.9375 30.6248C10.9375 30.0205 10.448 29.531 9.84375 29.531C9.23945 29.531 8.75 30.0205 8.75 30.6248V32.8123C8.75 33.4166 9.23945 33.906 9.84375 33.906C10.448 33.906 10.9375 33.4166 10.9375 32.8123V30.6248Z" fill="#B5B5B5"/>
<path d="M9.84351 34.9998C9.23921 34.9998 8.74976 35.4892 8.74976 36.0935V38.281C8.74976 38.8853 9.23921 39.3748 9.84351 39.3748C10.4478 39.3748 10.9373 38.8853 10.9373 38.281V36.0935C10.9373 35.8037 10.8224 35.5248 10.6173 35.3197C10.4123 35.1146 10.1334 34.9998 9.84351 34.9998Z" fill="#B5B5B5"/>
<path d="M10.9375 25.1565C10.9375 24.5522 10.448 24.0627 9.84375 24.0627C9.23945 24.0627 8.75 24.5522 8.75 25.1565V27.344C8.75 27.9483 9.23945 28.4377 9.84375 28.4377C10.448 28.4377 10.9375 27.9483 10.9375 27.344V25.1565Z" fill="#B5B5B5"/>
</svg>
