<svg width="68" height="66" viewBox="0 0 68 66" fill="none" xmlns="http://www.w3.org/2000/svg">
<path id="Vector" d="M66.827 63.4209H61.3753V38.357C65.0713 37.7565 67.7796 34.6951 67.7884 31.106V30.7693L61.3636 10.9586V1.68763C61.3636 1.39019 61.2405 1.10397 61.0206 0.893493C60.8008 0.683016 60.5019 0.565186 60.1911 0.565186H7.80822C7.16046 0.565186 6.63581 1.06747 6.63581 1.68761V10.9586L0.257893 30.7692V31.106C0.266686 34.6949 2.97496 37.7563 6.671 38.357V63.4209H1.17241C0.524655 63.4209 0 63.9232 0 64.5433C0 65.1634 0.524655 65.6657 1.17241 65.6657H66.8274C67.4752 65.6657 67.9998 65.1634 67.9998 64.5433C67.9998 63.9232 67.4747 63.4209 66.827 63.4209ZM59.0302 63.4209H43.0389V58.067H59.0302V63.4209ZM8.96804 43.2173H24.9593V55.8222H8.96804V43.2173ZM8.96804 40.9725V38.4022C11.2161 38.1047 13.2121 36.8729 14.4197 35.0349C15.8296 37.1844 18.2946 38.4892 20.9442 38.4892C23.5938 38.4892 26.0588 37.1844 27.4686 35.0349C28.8814 37.1844 31.3464 38.4892 33.999 38.4892C36.6515 38.4892 39.1165 37.1844 40.5293 35.0349C41.9391 37.1844 44.4041 38.4892 47.0537 38.4892C49.7033 38.4892 52.1684 37.1844 53.5782 35.0349C54.7858 36.8729 56.7818 38.1047 59.0299 38.4022V40.9725H8.96804ZM48.7482 12.25L49.733 17.402L52.1599 30.0068H41.6086L40.4362 12.2722L48.7482 12.25ZM52.2654 32.2288C51.7203 34.5662 49.5513 36.2302 47.0482 36.2302C44.5452 36.2302 42.3762 34.5662 41.831 32.2288H52.2654ZM38.1965 12.25L39.3689 29.9846H28.8176L29.99 12.25H38.1965ZM39.2751 32.2288C38.73 34.5662 36.561 36.2302 34.0579 36.2302C31.5549 36.2302 29.3858 34.5662 28.8407 32.2288H39.2751ZM26.3782 29.9839H15.8269L18.2655 17.4013L19.2504 12.2719H27.4576L26.3782 29.9839ZM26.1672 32.2288C25.622 34.5662 23.4531 36.2302 20.95 36.2302C18.4469 36.2302 16.2779 34.5662 15.7328 32.2288H26.1672ZM43.0379 43.2173H59.018V55.8222H43.0379V43.2173ZM60.214 36.2134H60.085C57.5908 36.2078 55.4335 34.5495 54.8912 32.2176H65.3023C64.7688 34.513 62.6673 36.1601 60.214 36.2134ZM54.5512 29.984L51.1278 12.2494H59.3351L65.033 29.984H54.5512ZM8.97994 2.8103H59.0188V10.0053H8.97994V2.8103ZM8.66338 12.2501H16.8706L13.4472 29.9847H2.96565L8.66338 12.2501ZM2.69583 32.2288H13.1068C12.5646 34.5607 10.4073 36.219 7.91304 36.2246H7.78407C5.33082 36.1713 3.22925 34.5242 2.69583 32.2288ZM8.96825 58.0448H24.9596V63.4212H8.96825V58.0448ZM27.3051 63.4212V43.2177H40.6942V63.4212H27.3051Z" fill="#B5B5B5"/>
</svg>
