<svg xmlns="http://www.w3.org/2000/svg" width="50" height="46" viewBox="0 0 50 46" fill="none">
  <path d="M28.3695 18.842C25.8808 16.9693 24.2603 13.9931 24.2603 10.6499C24.2603 5.00831 28.8577 0.396924 34.4976 0.386921L34.5015 0.386207H34.5198C40.1678 0.386207 44.7755 5.00138 44.7755 10.6492C44.7755 13.9995 43.1549 16.976 40.6627 18.8487C46.0135 21.2176 49.7645 26.5771 49.7649 32.7926M28.3695 18.842L49.5588 32.7936M28.3695 18.842C27.456 19.2458 26.5907 19.7372 25.7828 20.3047C25.2697 15.1306 20.8859 11.0606 15.5785 11.0606C9.93047 11.0606 5.32284 15.6685 5.32284 21.3162C5.32284 24.6664 6.9467 27.6463 9.44224 29.5192C4.08835 31.8848 0.340538 37.2411 0.336891 43.4604L0.336841 43.5458L0.338416 43.5474L28.3695 18.842ZM49.7649 32.7926C49.7649 32.7929 49.7649 32.7933 49.7649 32.7936H49.5588M49.7649 32.7926C49.7649 32.7923 49.7649 32.792 49.7649 32.7917L49.5588 32.7936M49.7649 32.7926C49.7688 33.2416 49.5932 33.6742 49.2787 33.9928C48.9638 34.3118 48.5344 34.4917 48.0847 34.4917C47.6352 34.4917 47.2059 34.3119 46.8911 33.9931M49.5588 32.7936C49.5624 33.1881 49.4082 33.5683 49.132 33.8481C48.8559 34.1278 48.4793 34.2856 48.0847 34.2856C47.6902 34.2856 47.3136 34.1278 47.0375 33.8481M46.8911 33.9931C46.8913 33.9933 46.8915 33.9936 46.8918 33.9938L47.0375 33.8481M46.8911 33.9931C46.5926 33.6944 46.4238 33.2965 46.4061 32.8805M46.8911 33.9931C46.891 33.993 46.8909 33.9929 46.8908 33.9928L47.0375 33.8481M47.0375 33.8481L46.4061 32.8805M46.4061 32.8805L46.4613 32.9357L46.4649 32.9393L46.6107 32.7936L46.6035 32.7935L46.4046 32.7917C46.4043 32.8214 46.4048 32.851 46.4061 32.8805ZM46.4061 32.8805L46.401 32.8754V32.79C46.401 26.211 41.0989 20.9054 34.5164 20.9054C30.1074 20.9054 26.276 23.2975 24.2198 26.854M46.4061 32.8805L46.6071 32.79C46.6071 26.0973 41.2127 20.6993 34.5164 20.6993C30.0295 20.6993 26.1308 23.1347 24.0398 26.7537M24.2198 26.854C24.2204 26.853 24.2209 26.852 24.2215 26.851L24.0398 26.7537M24.2198 26.854C24.1602 26.9648 24.0893 27.064 24.0079 27.1547M24.2198 26.854C24.2193 26.8549 24.2188 26.8559 24.2183 26.8568L24.0398 26.7537M24.0398 26.7537C23.986 26.8541 23.9215 26.9438 23.8461 27.0263M24.0079 27.1547L21.3032 29.5692C21.378 29.6001 21.4526 29.6316 21.5268 29.6637C21.5915 29.6175 21.6556 29.5706 21.7192 29.5229C21.6466 29.4908 21.5738 29.4593 21.5006 29.4284C22.4082 28.7645 23.2037 27.9531 23.8461 27.0263M24.0079 27.1547C24.0047 27.1582 24.0015 27.1617 23.9983 27.1652L23.8461 27.0263M24.0079 27.1547C24.0104 27.151 24.013 27.1473 24.0155 27.1437L23.8461 27.0263M27.6727 43.4641H27.6691L27.4666 43.466C27.4672 43.5351 27.472 43.6033 27.4808 43.6702H27.6691H27.6727V43.4641ZM3.69378 43.4588C3.69368 43.4569 3.69358 43.455 3.69348 43.4531L3.4877 43.4641H3.69377C3.69377 43.4624 3.69378 43.4606 3.69378 43.4588ZM21.4605 24.9358L21.4588 24.9386C21.4375 24.9746 21.4143 25.0112 21.3889 25.0511C21.3641 25.0901 21.3371 25.1324 21.3118 25.1753L21.4028 25.2291L21.3379 25.2186L21.301 25.1936C21.3022 25.1912 21.3031 25.1896 21.3036 25.1889C21.3038 25.1884 21.304 25.1881 21.304 25.1882C21.3039 25.1882 21.3038 25.1885 21.3035 25.189L21.3006 25.1933C21.3004 25.1936 21.3002 25.1939 21.3 25.1941C20.0601 27.0257 17.9676 28.2231 15.5783 28.2231C11.7506 28.2231 8.68275 25.1486 8.68275 21.3204C8.68275 17.4924 11.7503 14.4249 15.5783 14.4249C19.4065 14.4249 22.481 17.4927 22.481 21.3204C22.481 22.651 22.105 23.8836 21.4605 24.9358ZM21.3004 25.1949L21.3352 25.2181L21.2937 25.2114C21.296 25.2044 21.2984 25.1991 21.3 25.1956C21.3001 25.1953 21.3002 25.1951 21.3004 25.1949ZM34.5159 3.74727C38.3438 3.74727 41.4151 6.82189 41.4151 10.65C41.4151 14.478 38.3474 17.5491 34.5159 17.5491C30.688 17.5491 27.6204 14.4816 27.6204 10.65C27.6204 6.82175 30.6882 3.74727 34.5159 3.74727Z" fill="white" stroke="white" stroke-width="0.412156"/>
</svg>