<svg width="60" height="52" viewBox="0 0 60 52" fill="none" xmlns="http://www.w3.org/2000/svg">
<path d="M57.5233 24.3544H55.672L55.6743 16.063C55.6743 12.6137 52.7637 9.81034 49.183 9.81034H45.6139V5.29791C45.6139 2.40175 43.1626 0.0427847 40.1582 0.0427847L5.45567 0.0405273C2.44431 0.0405273 0 2.40169 0 5.29565V45.4854C0 48.9347 2.91064 51.7381 6.49128 51.7381H49.1873C52.7682 51.7381 55.6786 48.9344 55.6786 45.4854V37.194H57.5299C58.8938 37.194 60 36.1285 60 34.8215V26.7335C59.993 25.4175 58.8872 24.3544 57.5233 24.3544ZM1.87467 11.6705V5.29594C1.87467 3.39749 3.47763 1.84669 5.45555 1.84669H40.1629C42.1385 1.84669 43.7438 3.39073 43.7438 5.29594V9.80837L6.48492 9.81063C6.2576 9.81063 6.03731 9.82192 5.82169 9.83997C5.7467 9.84675 5.66936 9.8648 5.59437 9.86932C5.4561 9.88738 5.3108 9.90544 5.1702 9.93027C5.08114 9.94833 4.99444 9.97316 4.90538 9.99799C4.78586 10.0273 4.66634 10.0522 4.54449 10.0883C4.45075 10.1176 4.36169 10.156 4.26561 10.1853C4.15781 10.2215 4.05001 10.2576 3.94455 10.3005C3.85081 10.3366 3.76176 10.3863 3.67271 10.4291C3.57194 10.4788 3.47117 10.5194 3.37509 10.5691C3.28604 10.6188 3.20401 10.6729 3.1173 10.7203C3.02356 10.7745 2.92748 10.8242 2.83843 10.8851C2.75641 10.9393 2.67439 11.0003 2.59236 11.0612C2.50331 11.1222 2.4166 11.1831 2.33458 11.2508C2.25959 11.3118 2.18225 11.384 2.10726 11.4517C2.03226 11.5194 1.95024 11.5849 1.87291 11.6594C1.88228 11.6662 1.87525 11.6662 1.87525 11.6707L1.87467 11.6705ZM53.7971 45.4857C53.7971 47.9372 51.7255 49.9327 49.1804 49.9327H6.48438C3.93934 49.9327 1.86771 47.9372 1.86771 45.4857L1.87005 38.7656H12.4535L15.9781 42.8356C16.1538 43.0433 16.421 43.1584 16.6975 43.1584H27.5083C27.6607 45.6166 29.7745 47.5692 32.3641 47.5692C35.0474 47.5692 37.2338 45.4654 37.2338 42.8784C37.2338 40.2938 35.0497 38.1877 32.3641 38.1877C30.2362 38.1877 28.4223 39.5128 27.7661 41.3502H17.1455L13.6209 37.2802C13.4451 37.0726 13.178 36.9574 12.9014 36.9574H1.87527V31.1899L13.0724 31.1922C13.5083 33.3457 15.4792 34.9755 17.8414 34.9755C20.5247 34.9755 22.7112 32.8717 22.7112 30.2847C22.7112 27.7 20.5271 25.594 17.8414 25.594C15.4792 25.594 13.5083 27.2238 13.0724 29.3773L1.87527 29.3795V24.5917H8.96889C9.24776 24.5917 9.51257 24.4698 9.68832 24.2689L13.2129 20.1989H23.7142C24.1501 22.3524 26.1256 23.9822 28.4878 23.9822C31.1712 23.9822 33.3576 21.8784 33.3576 19.2914C33.3576 16.7068 31.1735 14.6007 28.4878 14.6007C26.1256 14.6007 24.15 16.2305 23.7142 18.384L12.7702 18.3863C12.4913 18.3863 12.2265 18.5082 12.0507 18.7091L8.52613 22.7791H1.87527V16.0635C1.87527 13.612 3.9469 11.6166 6.49194 11.6166H49.1904C51.7354 11.6166 53.8071 13.612 53.8071 16.0635V24.3549H44.4661C43.1092 24.3549 42.0031 25.4204 42.0031 26.7274V34.8177C42.0031 36.1247 43.1092 37.1902 44.4661 37.1902H53.8005L53.7971 45.4857ZM32.3657 40.0004C34.0202 40.0004 35.3583 41.2961 35.3583 42.883C35.3583 44.4699 34.0132 45.7657 32.3657 45.7657C30.7182 45.7657 29.373 44.4699 29.373 42.883C29.3707 41.2893 30.7159 40.0004 32.3657 40.0004ZM14.853 30.2851C14.853 28.6982 16.1912 27.4024 17.841 27.4024C19.4885 27.4024 20.8336 28.6982 20.8336 30.2851C20.8336 31.872 19.4885 33.1677 17.841 33.1677C16.1912 33.17 14.853 31.8787 14.853 30.2851ZM25.4994 19.3007C25.4994 17.7138 26.8446 16.4181 28.4921 16.4181C30.1466 16.4181 31.4847 17.7138 31.4847 19.3007C31.4847 20.8876 30.1396 22.1834 28.4921 22.1834C26.8399 22.1834 25.4994 20.8876 25.4994 19.3007ZM58.1184 34.8243C58.1184 35.1336 57.8466 35.3909 57.5255 35.3909H55.6742L44.465 35.3886C44.144 35.3886 43.8768 35.1336 43.8768 34.8221V26.7341C43.8768 26.418 44.1416 26.1629 44.465 26.1629H57.5256C57.8466 26.1629 58.1185 26.4248 58.1185 26.7341L58.1184 34.8243Z" fill="#B5B5B5"/>
</svg>
