<svg width="43" height="43" viewBox="0 0 43 43" fill="none" xmlns="http://www.w3.org/2000/svg">
<path d="M32.8767 10.1462V6.94318C32.8767 3.28649 29.9107 0.322754 26.254 0.322754H11.8077C8.77624 0.322754 5.86682 1.52584 3.72242 3.67249C1.57582 5.81684 0.372681 8.72643 0.372681 11.7578V31.021C0.372681 34.0524 1.57576 36.9619 3.72242 39.1063C5.86676 41.2529 8.77635 42.456 11.8077 42.456H31.0709C34.1024 42.456 37.0118 41.2529 39.1562 39.1063C41.3028 36.9619 42.5059 34.0523 42.5059 31.021V21.3894C42.4992 18.6762 41.5263 16.0533 39.7611 13.9946C37.996 11.9338 35.556 10.5683 32.8767 10.1462ZM11.8077 3.93432H26.254C27.053 3.93432 27.8182 4.25033 28.3825 4.81461C28.9468 5.37892 29.2651 6.14413 29.2651 6.94318V9.95205H4.20082C5.045 6.43075 8.18712 3.9453 11.8077 3.93432ZM38.8944 31.021C38.8809 35.3369 35.3867 38.8313 31.0709 38.8446H11.8077C7.49185 38.831 3.99748 35.3368 3.98419 31.021V13.5636H31.0709C35.3868 13.5772 38.8811 17.0736 38.8944 21.3894V31.021Z" fill="white"/>
<path d="M29.8622 20.7871C27.6727 20.7871 25.6954 22.1076 24.8579 24.1323C24.0205 26.1571 24.4832 28.4866 26.0317 30.0351C27.5824 31.5858 29.9118 32.0485 31.9367 31.2111C33.9615 30.3714 35.2797 28.3964 35.2797 26.2046C35.2797 23.2137 32.8553 20.7871 29.8622 20.7871ZM29.8622 28.0102C29.1332 28.0102 28.4741 27.5701 28.1942 26.8952C27.9143 26.2225 28.07 25.4438 28.5869 24.9291C29.1016 24.4122 29.8803 24.2565 30.5529 24.5364C31.2279 24.8163 31.668 25.4754 31.668 26.2045C31.6567 27.1977 30.8555 27.999 29.8622 28.0102Z" fill="white"/>
</svg>
